G04 start of page 6 for group -4063 idx -4063 *
G04 Title: (unknown), componentmask *
G04 Creator: pcb 1.99z *
G04 CreationDate: Fri 14 Nov 2014 07:38:12 PM GMT UTC *
G04 For: commonadmin *
G04 Format: Gerber/RS-274X *
G04 PCB-Dimensions (mil): 1705.00 735.00 *
G04 PCB-Coordinate-Origin: lower left *
%MOIN*%
%FSLAX25Y25*%
%LNTOPMASK*%
%ADD58R,0.0355X0.0355*%
%ADD57C,0.0180*%
%ADD56R,0.0180X0.0180*%
%ADD55C,0.0660*%
%ADD54C,0.1180*%
%ADD53C,0.1000*%
%ADD52C,0.0001*%
%ADD51C,0.0887*%
%ADD50C,0.1536*%
%ADD49C,0.0851*%
G54D49*X102508Y48957D03*
Y38957D03*
Y28957D03*
Y18957D03*
X112508Y53957D03*
Y43957D03*
Y33957D03*
Y23957D03*
G54D50*X137508Y58957D03*
Y13957D03*
G54D51*X149516Y67500D03*
Y5492D03*
G54D49*X67508Y38957D03*
Y28957D03*
Y18957D03*
X57508Y33957D03*
Y23957D03*
X67508Y48957D03*
X57508Y53957D03*
Y43957D03*
G54D52*G36*
X70000Y11500D02*Y1500D01*
X80000D01*
Y11500D01*
X70000D01*
G37*
G54D53*X85000Y6500D03*
X95000D03*
G54D52*G36*
X69100Y71900D02*Y60100D01*
X80900D01*
Y71900D01*
X69100D01*
G37*
G54D54*X85000Y66000D03*
X95000D03*
G54D50*X32508Y58957D03*
G54D55*X19008Y53957D03*
G54D50*X32508Y13957D03*
G54D51*X20500Y67500D03*
Y5492D03*
G54D52*G36*
X5208Y16257D02*Y9657D01*
X11808D01*
Y16257D01*
X5208D01*
G37*
G36*
X5708Y57257D02*Y50657D01*
X12308D01*
Y57257D01*
X5708D01*
G37*
G54D55*X9008Y43957D03*
X19008D03*
X9008Y33957D03*
X19008D03*
X9008Y23957D03*
X19008D03*
G54D56*X85008Y29757D02*Y27157D01*
X87008Y29757D02*Y27157D01*
X89008Y29757D02*Y27157D01*
X90908Y29757D02*Y27157D01*
X92908Y29757D02*Y27157D01*
G54D57*X93008Y46257D02*Y43657D01*
G54D56*X91008Y46257D02*Y43657D01*
X89008Y46257D02*Y43657D01*
X87108Y46257D02*Y43657D01*
X85108Y46257D02*Y43657D01*
G54D58*X120508Y53949D02*Y52965D01*
X125626Y53949D02*Y52965D01*
X120508Y18949D02*Y17965D01*
X125626Y18949D02*Y17965D01*
X120508Y23949D02*Y22965D01*
X125626Y23949D02*Y22965D01*
X120508Y28949D02*Y27965D01*
X125626Y28949D02*Y27965D01*
X120508Y33949D02*Y32965D01*
X125626Y33949D02*Y32965D01*
X120508Y38949D02*Y37965D01*
Y43949D02*Y42965D01*
Y48949D02*Y47965D01*
X125626Y38949D02*Y37965D01*
Y43949D02*Y42965D01*
Y48949D02*Y47965D01*
M02*
