G04 start of page 3 for group 1 idx 1 *
G04 Title: (unknown), bottom *
G04 Creator: pcb 1.99z *
G04 CreationDate: Fri 14 Nov 2014 07:38:12 PM GMT UTC *
G04 For: commonadmin *
G04 Format: Gerber/RS-274X *
G04 PCB-Dimensions (mil): 1705.00 735.00 *
G04 PCB-Coordinate-Origin: lower left *
%MOIN*%
%FSLAX25Y25*%
%LNBOTTOM*%
%ADD41C,0.0380*%
%ADD40C,0.0280*%
%ADD39C,0.0630*%
%ADD38C,0.1280*%
%ADD37C,0.0354*%
%ADD36C,0.0130*%
%ADD35C,0.0270*%
%ADD34R,0.0060X0.0060*%
%ADD33C,0.0600*%
%ADD32C,0.0827*%
%ADD31C,0.1476*%
%ADD30C,0.0551*%
%ADD29C,0.0350*%
%ADD28C,0.0060*%
%ADD27C,0.0001*%
G54D27*G36*
X60379Y71957D02*X169008D01*
Y1457D01*
X60379D01*
Y17657D01*
X63981D01*
X64151Y17246D01*
X64460Y16742D01*
X64844Y16293D01*
X65293Y15909D01*
X65797Y15600D01*
X66344Y15374D01*
X66919Y15236D01*
X67508Y15189D01*
X68097Y15236D01*
X68672Y15374D01*
X69218Y15600D01*
X69722Y15909D01*
X70172Y16293D01*
X70556Y16742D01*
X70865Y17246D01*
X71035Y17657D01*
X72708D01*
X72912Y17669D01*
X73111Y17717D01*
X73300Y17795D01*
X73474Y17902D01*
X73542Y17960D01*
X73890Y17961D01*
X74173Y17677D01*
X74199Y17647D01*
X74318Y17545D01*
X74318Y17545D01*
X74452Y17463D01*
X74598Y17403D01*
X74721Y17373D01*
X74751Y17366D01*
X74751D01*
X74908Y17354D01*
X74947Y17357D01*
X75069D01*
X75108Y17354D01*
X75147Y17357D01*
X76269D01*
X76308Y17354D01*
X76347Y17357D01*
X76469D01*
X76508Y17354D01*
X76547Y17357D01*
X77669D01*
X77708Y17354D01*
X77747Y17357D01*
X77969D01*
X78008Y17354D01*
X78164Y17366D01*
X78165Y17366D01*
X78318Y17403D01*
X78463Y17463D01*
X78597Y17545D01*
X78717Y17647D01*
X78731Y17664D01*
X78858Y17657D01*
X80314D01*
X80439Y17453D01*
X80699Y17148D01*
X81004Y16887D01*
X81347Y16678D01*
X81717Y16524D01*
X82108Y16430D01*
X82508Y16407D01*
X96508D01*
X96908Y16430D01*
X97298Y16524D01*
X97669Y16678D01*
X98011Y16887D01*
X98317Y17148D01*
X98577Y17453D01*
X98702Y17657D01*
X98981D01*
X99151Y17246D01*
X99460Y16742D01*
X99844Y16293D01*
X100293Y15909D01*
X100797Y15600D01*
X101344Y15374D01*
X101919Y15236D01*
X102508Y15189D01*
X103097Y15236D01*
X103672Y15374D01*
X104218Y15600D01*
X104722Y15909D01*
X105172Y16293D01*
X105556Y16742D01*
X105865Y17246D01*
X106091Y17792D01*
X106229Y18367D01*
X106264Y18957D01*
X106229Y19546D01*
X106091Y20121D01*
X105865Y20667D01*
X105556Y21171D01*
X105172Y21621D01*
X104722Y22005D01*
X104218Y22314D01*
X103672Y22540D01*
X103185Y22657D01*
X108981D01*
X109151Y22246D01*
X109460Y21742D01*
X109844Y21293D01*
X110293Y20909D01*
X110797Y20600D01*
X111344Y20374D01*
X111919Y20236D01*
X112508Y20189D01*
X113097Y20236D01*
X113672Y20374D01*
X114218Y20600D01*
X114722Y20909D01*
X115172Y21293D01*
X115556Y21742D01*
X115865Y22246D01*
X116091Y22792D01*
X116229Y23367D01*
X116264Y23957D01*
X116229Y24546D01*
X116091Y25121D01*
X115865Y25667D01*
X115556Y26171D01*
X115172Y26621D01*
X114722Y27005D01*
X114218Y27314D01*
X113672Y27540D01*
X113097Y27678D01*
X112508Y27724D01*
X111919Y27678D01*
X111344Y27540D01*
X110797Y27314D01*
X110293Y27005D01*
X109844Y26621D01*
X109460Y26171D01*
X109151Y25667D01*
X108981Y25257D01*
X103185D01*
X103672Y25374D01*
X104218Y25600D01*
X104722Y25909D01*
X105172Y26293D01*
X105556Y26742D01*
X105865Y27246D01*
X106091Y27792D01*
X106229Y28367D01*
X106264Y28957D01*
X106229Y29546D01*
X106091Y30121D01*
X105865Y30667D01*
X105556Y31171D01*
X105172Y31621D01*
X104722Y32005D01*
X104218Y32314D01*
X103672Y32540D01*
X103185Y32657D01*
X108981D01*
X109151Y32246D01*
X109460Y31742D01*
X109844Y31293D01*
X110293Y30909D01*
X110797Y30600D01*
X111344Y30374D01*
X111919Y30236D01*
X112508Y30189D01*
X113097Y30236D01*
X113672Y30374D01*
X114218Y30600D01*
X114722Y30909D01*
X115172Y31293D01*
X115556Y31742D01*
X115865Y32246D01*
X116091Y32792D01*
X116229Y33367D01*
X116264Y33957D01*
X116229Y34546D01*
X116091Y35121D01*
X115865Y35667D01*
X115556Y36171D01*
X115172Y36621D01*
X114722Y37005D01*
X114218Y37314D01*
X113672Y37540D01*
X113097Y37678D01*
X112508Y37724D01*
X111919Y37678D01*
X111344Y37540D01*
X110797Y37314D01*
X110293Y37005D01*
X109844Y36621D01*
X109460Y36171D01*
X109151Y35667D01*
X108981Y35257D01*
X103185D01*
X103672Y35374D01*
X104218Y35600D01*
X104722Y35909D01*
X105172Y36293D01*
X105556Y36742D01*
X105865Y37246D01*
X106091Y37792D01*
X106229Y38367D01*
X106264Y38957D01*
X106229Y39546D01*
X106091Y40121D01*
X105865Y40667D01*
X105556Y41171D01*
X105172Y41621D01*
X104722Y42005D01*
X104218Y42314D01*
X103672Y42540D01*
X103185Y42657D01*
X108981D01*
X109151Y42246D01*
X109460Y41742D01*
X109844Y41293D01*
X110293Y40909D01*
X110797Y40600D01*
X111344Y40374D01*
X111919Y40236D01*
X112508Y40189D01*
X113097Y40236D01*
X113672Y40374D01*
X114218Y40600D01*
X114722Y40909D01*
X115172Y41293D01*
X115556Y41742D01*
X115865Y42246D01*
X116091Y42792D01*
X116229Y43367D01*
X116264Y43957D01*
X116229Y44546D01*
X116091Y45121D01*
X115865Y45667D01*
X115556Y46171D01*
X115172Y46621D01*
X114722Y47005D01*
X114218Y47314D01*
X113672Y47540D01*
X113097Y47678D01*
X112508Y47724D01*
X111919Y47678D01*
X111344Y47540D01*
X110797Y47314D01*
X110293Y47005D01*
X109844Y46621D01*
X109460Y46171D01*
X109151Y45667D01*
X108981Y45257D01*
X103185D01*
X103672Y45374D01*
X104218Y45600D01*
X104722Y45909D01*
X105172Y46293D01*
X105556Y46742D01*
X105865Y47246D01*
X106091Y47792D01*
X106229Y48367D01*
X106264Y48957D01*
X106229Y49546D01*
X106091Y50121D01*
X105865Y50667D01*
X105556Y51171D01*
X105172Y51621D01*
X104722Y52005D01*
X104218Y52314D01*
X103672Y52540D01*
X103185Y52657D01*
X108981D01*
X109151Y52246D01*
X109460Y51742D01*
X109844Y51293D01*
X110293Y50909D01*
X110797Y50600D01*
X111344Y50374D01*
X111919Y50236D01*
X112508Y50189D01*
X113097Y50236D01*
X113672Y50374D01*
X114218Y50600D01*
X114722Y50909D01*
X115172Y51293D01*
X115556Y51742D01*
X115865Y52246D01*
X116091Y52792D01*
X116229Y53367D01*
X116264Y53957D01*
X116229Y54546D01*
X116091Y55121D01*
X115865Y55667D01*
X115556Y56171D01*
X115172Y56621D01*
X114722Y57005D01*
X114218Y57314D01*
X113672Y57540D01*
X113097Y57678D01*
X112508Y57724D01*
X111919Y57678D01*
X111344Y57540D01*
X110797Y57314D01*
X110293Y57005D01*
X109844Y56621D01*
X109460Y56171D01*
X109151Y55667D01*
X108981Y55257D01*
X98702D01*
X98577Y55460D01*
X98317Y55765D01*
X98011Y56026D01*
X97669Y56236D01*
X97298Y56389D01*
X96908Y56483D01*
X96508Y56507D01*
X82008D01*
X81608Y56483D01*
X81217Y56389D01*
X80847Y56236D01*
X80504Y56026D01*
X80199Y55765D01*
X80102Y55651D01*
X80101Y55667D01*
X80076Y55774D01*
X80034Y55875D01*
X79976Y55969D01*
X79904Y56053D01*
X79821Y56125D01*
X79727Y56182D01*
X79625Y56224D01*
X79518Y56250D01*
X79408Y56257D01*
X79024Y56255D01*
X78643Y56636D01*
X78617Y56666D01*
X78497Y56768D01*
X78363Y56850D01*
X78218Y56911D01*
X78065Y56947D01*
X78065Y56947D01*
X77908Y56960D01*
X77869Y56957D01*
X77647D01*
X77608Y56960D01*
X77569Y56957D01*
X76447D01*
X76408Y56960D01*
X76369Y56957D01*
X75247D01*
X75208Y56960D01*
X75169Y56957D01*
X74947D01*
X74908Y56960D01*
X74751Y56947D01*
X74598Y56911D01*
X74452Y56850D01*
X74318Y56768D01*
X74318Y56768D01*
X74199Y56666D01*
X74173Y56636D01*
X73792Y56255D01*
X72298Y56250D01*
X72191Y56224D01*
X72089Y56182D01*
X71995Y56125D01*
X71911Y56053D01*
X71840Y55969D01*
X71782Y55875D01*
X71740Y55774D01*
X71714Y55667D01*
X71708Y55557D01*
X71711Y55257D01*
X61035D01*
X60865Y55667D01*
X60556Y56171D01*
X60379Y56378D01*
Y71957D01*
G37*
G36*
X1008D02*X60379D01*
Y56378D01*
X60172Y56621D01*
X59722Y57005D01*
X59218Y57314D01*
X58672Y57540D01*
X58097Y57678D01*
X57508Y57724D01*
X56919Y57678D01*
X56344Y57540D01*
X55797Y57314D01*
X55293Y57005D01*
X54844Y56621D01*
X54460Y56171D01*
X54151Y55667D01*
X53925Y55121D01*
X53787Y54546D01*
X53740Y53957D01*
X53787Y53367D01*
X53925Y52792D01*
X54095Y52382D01*
X53469Y51757D01*
X25046D01*
X24808Y51995D01*
Y55906D01*
X24812Y55957D01*
X24796Y56160D01*
X24796Y56161D01*
X24760Y56312D01*
X24748Y56360D01*
X24716Y56438D01*
X24670Y56549D01*
X24628Y56616D01*
X24563Y56723D01*
X24563Y56723D01*
X24430Y56879D01*
X24391Y56912D01*
X22463Y58840D01*
X22430Y58879D01*
X22274Y59012D01*
X22274Y59012D01*
X22167Y59077D01*
X22100Y59119D01*
X21989Y59164D01*
X21911Y59197D01*
X21863Y59208D01*
X21712Y59245D01*
X21712Y59245D01*
X21508Y59261D01*
X21457Y59257D01*
X13059D01*
X13008Y59261D01*
X12804Y59245D01*
X12605Y59197D01*
X12416Y59119D01*
X12241Y59012D01*
X12241Y59011D01*
X12086Y58879D01*
X12053Y58840D01*
X11669Y58456D01*
X5772Y58443D01*
X5543Y58388D01*
X5325Y58297D01*
X5123Y58174D01*
X4944Y58021D01*
X4791Y57841D01*
X4667Y57640D01*
X4577Y57422D01*
X4522Y57192D01*
X4508Y56957D01*
X4522Y50721D01*
X4577Y50492D01*
X4667Y50274D01*
X4791Y50072D01*
X4944Y49893D01*
X5123Y49739D01*
X5325Y49616D01*
X5543Y49526D01*
X5772Y49471D01*
X6008Y49457D01*
X12243Y49471D01*
X12473Y49526D01*
X12691Y49616D01*
X12892Y49739D01*
X13072Y49893D01*
X13225Y50072D01*
X13349Y50274D01*
X13439Y50492D01*
X13494Y50721D01*
X13508Y50957D01*
X13495Y56606D01*
X13546Y56657D01*
X15396D01*
X15356Y56610D01*
X14986Y56006D01*
X14715Y55352D01*
X14550Y54663D01*
X14494Y53957D01*
X14550Y53251D01*
X14715Y52562D01*
X14986Y51907D01*
X15356Y51304D01*
X15816Y50765D01*
X16355Y50305D01*
X16959Y49935D01*
X17613Y49664D01*
X18302Y49498D01*
X19008Y49443D01*
X19714Y49498D01*
X20403Y49664D01*
X21057Y49935D01*
X21140Y49986D01*
X23053Y48073D01*
X23086Y48035D01*
X23241Y47902D01*
X23241Y47902D01*
X23350Y47835D01*
X23416Y47795D01*
X23605Y47717D01*
X23804Y47669D01*
X23804Y47669D01*
X24008Y47653D01*
X24059Y47657D01*
X56831D01*
X56344Y47540D01*
X55797Y47314D01*
X55293Y47005D01*
X54844Y46621D01*
X54460Y46171D01*
X54151Y45667D01*
X53981Y45257D01*
X25546D01*
X21963Y48840D01*
X21930Y48879D01*
X21774Y49012D01*
X21774Y49012D01*
X21667Y49077D01*
X21600Y49119D01*
X21489Y49164D01*
X21411Y49197D01*
X21363Y49208D01*
X21212Y49245D01*
X21212Y49245D01*
X21008Y49261D01*
X20957Y49257D01*
X13059D01*
X13008Y49261D01*
X12804Y49245D01*
X12605Y49197D01*
X12416Y49119D01*
X12241Y49012D01*
X12241Y49011D01*
X12086Y48879D01*
X12053Y48840D01*
X11140Y47928D01*
X11057Y47979D01*
X10403Y48250D01*
X9714Y48415D01*
X9008Y48471D01*
X8302Y48415D01*
X7613Y48250D01*
X6959Y47979D01*
X6355Y47608D01*
X5816Y47148D01*
X5356Y46610D01*
X4986Y46006D01*
X4715Y45352D01*
X4550Y44663D01*
X4494Y43957D01*
X4550Y43251D01*
X4715Y42562D01*
X4986Y41907D01*
X5356Y41304D01*
X5816Y40765D01*
X6355Y40305D01*
X6959Y39935D01*
X7613Y39664D01*
X8302Y39498D01*
X9008Y39443D01*
X9714Y39498D01*
X10403Y39664D01*
X11057Y39935D01*
X11661Y40305D01*
X12200Y40765D01*
X12660Y41304D01*
X13030Y41907D01*
X13301Y42562D01*
X13466Y43251D01*
X13508Y43957D01*
X13466Y44663D01*
X13301Y45352D01*
X13030Y46006D01*
X12979Y46089D01*
X13546Y46657D01*
X15396D01*
X15356Y46610D01*
X14986Y46006D01*
X14715Y45352D01*
X14550Y44663D01*
X14494Y43957D01*
X14550Y43251D01*
X14715Y42562D01*
X14986Y41907D01*
X15356Y41304D01*
X15816Y40765D01*
X16355Y40305D01*
X16959Y39935D01*
X17389Y39757D01*
X13559D01*
X13508Y39761D01*
X13304Y39745D01*
X13105Y39697D01*
X12916Y39619D01*
X12741Y39512D01*
X12741Y39511D01*
X12586Y39379D01*
X12553Y39340D01*
X11140Y37928D01*
X11057Y37979D01*
X10403Y38250D01*
X9714Y38415D01*
X9008Y38471D01*
X8302Y38415D01*
X7613Y38250D01*
X6959Y37979D01*
X6355Y37608D01*
X5816Y37148D01*
X5356Y36610D01*
X4986Y36006D01*
X4715Y35352D01*
X4550Y34663D01*
X4494Y33957D01*
X4550Y33251D01*
X4715Y32562D01*
X4986Y31907D01*
X5356Y31304D01*
X5816Y30765D01*
X6355Y30305D01*
X6959Y29935D01*
X7613Y29664D01*
X8302Y29498D01*
X9008Y29443D01*
X9714Y29498D01*
X10403Y29664D01*
X11057Y29935D01*
X11661Y30305D01*
X12200Y30765D01*
X12660Y31304D01*
X13030Y31907D01*
X13301Y32562D01*
X13466Y33251D01*
X13508Y33957D01*
X13466Y34663D01*
X13301Y35352D01*
X13030Y36006D01*
X12979Y36089D01*
X14046Y37157D01*
X15826D01*
X15816Y37148D01*
X15356Y36610D01*
X14986Y36006D01*
X14715Y35352D01*
X14550Y34663D01*
X14494Y33957D01*
X14550Y33251D01*
X14715Y32562D01*
X14986Y31907D01*
X15356Y31304D01*
X15816Y30765D01*
X16355Y30305D01*
X16959Y29935D01*
X17613Y29664D01*
X18302Y29498D01*
X19008Y29443D01*
X19714Y29498D01*
X20403Y29664D01*
X21057Y29935D01*
X21661Y30305D01*
X22073Y30657D01*
X52969D01*
X55553Y28073D01*
X55586Y28035D01*
X55741Y27902D01*
X55741Y27902D01*
X55850Y27835D01*
X55916Y27795D01*
X56105Y27717D01*
X56304Y27669D01*
X56304Y27669D01*
X56508Y27653D01*
X56559Y27657D01*
X56831D01*
X56344Y27540D01*
X55797Y27314D01*
X55293Y27005D01*
X54844Y26621D01*
X54460Y26171D01*
X54151Y25667D01*
X53981Y25257D01*
X25546D01*
X21963Y28840D01*
X21930Y28879D01*
X21774Y29012D01*
X21774Y29012D01*
X21667Y29077D01*
X21600Y29119D01*
X21489Y29164D01*
X21411Y29197D01*
X21363Y29208D01*
X21212Y29245D01*
X21212Y29245D01*
X21008Y29261D01*
X20957Y29257D01*
X13059D01*
X13008Y29261D01*
X12804Y29245D01*
X12605Y29197D01*
X12416Y29119D01*
X12241Y29012D01*
X12241Y29011D01*
X12086Y28879D01*
X12053Y28840D01*
X11140Y27928D01*
X11057Y27979D01*
X10403Y28250D01*
X9714Y28415D01*
X9008Y28471D01*
X8302Y28415D01*
X7613Y28250D01*
X6959Y27979D01*
X6355Y27608D01*
X5816Y27148D01*
X5356Y26610D01*
X4986Y26006D01*
X4715Y25352D01*
X4550Y24663D01*
X4494Y23957D01*
X4550Y23251D01*
X4715Y22562D01*
X4986Y21907D01*
X5356Y21304D01*
X5816Y20765D01*
X6355Y20305D01*
X6959Y19935D01*
X7613Y19664D01*
X8302Y19498D01*
X9008Y19443D01*
X9714Y19498D01*
X10403Y19664D01*
X11057Y19935D01*
X11661Y20305D01*
X12200Y20765D01*
X12660Y21304D01*
X13030Y21907D01*
X13301Y22562D01*
X13466Y23251D01*
X13508Y23957D01*
X13466Y24663D01*
X13301Y25352D01*
X13030Y26006D01*
X12979Y26089D01*
X13546Y26657D01*
X15396D01*
X15356Y26610D01*
X14986Y26006D01*
X14715Y25352D01*
X14550Y24663D01*
X14494Y23957D01*
X14550Y23251D01*
X14715Y22562D01*
X14986Y21907D01*
X15356Y21304D01*
X15816Y20765D01*
X16355Y20305D01*
X16959Y19935D01*
X17613Y19664D01*
X18302Y19498D01*
X19008Y19443D01*
X19714Y19498D01*
X20403Y19664D01*
X21057Y19935D01*
X21661Y20305D01*
X22200Y20765D01*
X22534Y21157D01*
X52969D01*
X56053Y18073D01*
X56086Y18035D01*
X56241Y17902D01*
X56241Y17902D01*
X56350Y17835D01*
X56416Y17795D01*
X56605Y17717D01*
X56804Y17669D01*
X56804Y17669D01*
X57008Y17653D01*
X57059Y17657D01*
X60379D01*
Y1457D01*
X1008D01*
Y71957D01*
G37*
G36*
X97517Y31299D02*X97298Y31389D01*
X97018Y31457D01*
X97298Y31524D01*
X97669Y31678D01*
X98011Y31887D01*
X98317Y32148D01*
X98577Y32453D01*
X98702Y32657D01*
X98869D01*
X97625Y31412D01*
X97586Y31379D01*
X97517Y31299D01*
G37*
G36*
X71646Y32657D02*X73508D01*
X73712Y32669D01*
X73911Y32717D01*
X74069Y32782D01*
X74173Y32677D01*
X74199Y32647D01*
X74318Y32545D01*
X74318Y32545D01*
X74452Y32463D01*
X74598Y32403D01*
X74721Y32373D01*
X74751Y32366D01*
X74751Y32366D01*
X74908Y32354D01*
X74947Y32357D01*
X75069D01*
X75108Y32354D01*
X75147Y32357D01*
X76269D01*
X76308Y32354D01*
X76347Y32357D01*
X76469D01*
X76508Y32354D01*
X76547Y32357D01*
X77669D01*
X77708Y32354D01*
X77747Y32357D01*
X77969D01*
X78008Y32354D01*
X78164Y32366D01*
X78165Y32366D01*
X78318Y32403D01*
X78463Y32463D01*
X78597Y32545D01*
X78717Y32647D01*
X78731Y32664D01*
X78858Y32657D01*
X79814D01*
X79939Y32453D01*
X80199Y32148D01*
X80504Y31887D01*
X80847Y31678D01*
X81217Y31524D01*
X81498Y31457D01*
X81217Y31389D01*
X80847Y31236D01*
X80504Y31026D01*
X80199Y30765D01*
X80102Y30651D01*
X80101Y30667D01*
X80076Y30774D01*
X80034Y30875D01*
X79976Y30969D01*
X79904Y31053D01*
X79821Y31125D01*
X79727Y31182D01*
X79625Y31224D01*
X79518Y31250D01*
X79408Y31257D01*
X79024Y31255D01*
X78643Y31636D01*
X78617Y31666D01*
X78497Y31768D01*
X78363Y31850D01*
X78218Y31911D01*
X78065Y31947D01*
X78065Y31947D01*
X77908Y31960D01*
X77869Y31957D01*
X77647D01*
X77608Y31960D01*
X77569Y31957D01*
X76447D01*
X76408Y31960D01*
X76369Y31957D01*
X75247D01*
X75208Y31960D01*
X75169Y31957D01*
X74947D01*
X74908Y31960D01*
X74751Y31947D01*
X74598Y31911D01*
X74452Y31850D01*
X74318Y31768D01*
X74318Y31768D01*
X74199Y31666D01*
X74173Y31636D01*
X73792Y31255D01*
X72308Y31250D01*
Y31406D01*
X72312Y31457D01*
X72296Y31660D01*
X72296Y31661D01*
X72260Y31812D01*
X72248Y31860D01*
X72216Y31938D01*
X72170Y32049D01*
X72128Y32116D01*
X72063Y32223D01*
X72063Y32223D01*
X71930Y32379D01*
X71891Y32412D01*
X71646Y32657D01*
G37*
G36*
X74069Y22782D02*X74173Y22677D01*
X74199Y22647D01*
X74318Y22545D01*
X74318Y22545D01*
X74452Y22463D01*
X74598Y22403D01*
X74721Y22373D01*
X74751Y22366D01*
X74751Y22366D01*
X74908Y22354D01*
X74947Y22357D01*
X75069D01*
X75108Y22354D01*
X75147Y22357D01*
X76269D01*
X76308Y22354D01*
X76347Y22357D01*
X76469D01*
X76508Y22354D01*
X76547Y22357D01*
X77669D01*
X77708Y22354D01*
X77747Y22357D01*
X77969D01*
X78008Y22354D01*
X78164Y22366D01*
X78165Y22366D01*
X78318Y22403D01*
X78463Y22463D01*
X78597Y22545D01*
X78717Y22647D01*
X78731Y22664D01*
X78858Y22657D01*
X80314D01*
X80439Y22453D01*
X80699Y22148D01*
X81004Y21887D01*
X81347Y21678D01*
X81717Y21524D01*
X81998Y21457D01*
X81717Y21389D01*
X81347Y21236D01*
X81004Y21026D01*
X80699Y20765D01*
X80439Y20460D01*
X80314Y20257D01*
X80105D01*
X80101Y20667D01*
X80076Y20774D01*
X80034Y20875D01*
X79976Y20969D01*
X79904Y21053D01*
X79821Y21125D01*
X79727Y21182D01*
X79625Y21224D01*
X79518Y21250D01*
X79408Y21257D01*
X79024Y21255D01*
X78643Y21636D01*
X78617Y21666D01*
X78497Y21768D01*
X78363Y21850D01*
X78218Y21911D01*
X78065Y21947D01*
X78065Y21947D01*
X77908Y21960D01*
X77869Y21957D01*
X77647D01*
X77608Y21960D01*
X77569Y21957D01*
X76447D01*
X76408Y21960D01*
X76369Y21957D01*
X75247D01*
X75208Y21960D01*
X75169Y21957D01*
X74947D01*
X74908Y21960D01*
X74751Y21947D01*
X74598Y21911D01*
X74452Y21850D01*
X74318Y21768D01*
X74318Y21768D01*
X74199Y21666D01*
X74173Y21636D01*
X73792Y21255D01*
X72298Y21250D01*
X72191Y21224D01*
X72089Y21182D01*
X71995Y21125D01*
X71911Y21053D01*
X71840Y20969D01*
X71782Y20875D01*
X71740Y20774D01*
X71714Y20667D01*
X71708Y20557D01*
X71711Y20257D01*
X71035D01*
X70865Y20667D01*
X70556Y21171D01*
X70172Y21621D01*
X69722Y22005D01*
X69218Y22314D01*
X68672Y22540D01*
X68185Y22657D01*
X73508D01*
X73712Y22669D01*
X73911Y22717D01*
X74069Y22782D01*
G37*
G36*
X63981Y20257D02*X58185D01*
X58672Y20374D01*
X59218Y20600D01*
X59722Y20909D01*
X60172Y21293D01*
X60556Y21742D01*
X60865Y22246D01*
X61035Y22657D01*
X66831D01*
X66344Y22540D01*
X65797Y22314D01*
X65293Y22005D01*
X64844Y21621D01*
X64460Y21171D01*
X64151Y20667D01*
X63981Y20257D01*
G37*
G36*
X55646Y50257D02*X55933Y50544D01*
X56344Y50374D01*
X56831Y50257D01*
X55646D01*
G37*
G36*
X61035Y52657D02*X66831D01*
X66344Y52540D01*
X65797Y52314D01*
X65293Y52005D01*
X64844Y51621D01*
X64460Y51171D01*
X64151Y50667D01*
X63981Y50257D01*
X58185D01*
X58672Y50374D01*
X59218Y50600D01*
X59722Y50909D01*
X60172Y51293D01*
X60556Y51742D01*
X60865Y52246D01*
X61035Y52657D01*
G37*
G36*
X68185D02*X72708D01*
X72912Y52669D01*
X73111Y52717D01*
X73300Y52795D01*
X73474Y52902D01*
X73542Y52960D01*
X73890Y52961D01*
X74173Y52677D01*
X74199Y52647D01*
X74318Y52545D01*
X74318Y52545D01*
X74452Y52463D01*
X74598Y52403D01*
X74721Y52373D01*
X74751Y52366D01*
X74751D01*
X74908Y52354D01*
X74947Y52357D01*
X75069D01*
X75108Y52354D01*
X75147Y52357D01*
X76269D01*
X76308Y52354D01*
X76347Y52357D01*
X76469D01*
X76508Y52354D01*
X76547Y52357D01*
X77669D01*
X77708Y52354D01*
X77747Y52357D01*
X77969D01*
X78008Y52354D01*
X78164Y52366D01*
X78165Y52366D01*
X78318Y52403D01*
X78463Y52463D01*
X78597Y52545D01*
X78717Y52647D01*
X78731Y52664D01*
X78858Y52657D01*
X79814D01*
X79939Y52453D01*
X80199Y52148D01*
X80504Y51887D01*
X80847Y51678D01*
X81217Y51524D01*
X81498Y51457D01*
X81217Y51389D01*
X80847Y51236D01*
X80504Y51026D01*
X80199Y50765D01*
X80102Y50651D01*
X80101Y50667D01*
X80076Y50774D01*
X80034Y50875D01*
X79976Y50969D01*
X79904Y51053D01*
X79821Y51125D01*
X79727Y51182D01*
X79625Y51224D01*
X79518Y51250D01*
X79408Y51257D01*
X79024Y51255D01*
X78643Y51636D01*
X78617Y51666D01*
X78497Y51768D01*
X78363Y51850D01*
X78218Y51911D01*
X78065Y51947D01*
X78065Y51947D01*
X77908Y51960D01*
X77869Y51957D01*
X77647D01*
X77608Y51960D01*
X77569Y51957D01*
X76447D01*
X76408Y51960D01*
X76369Y51957D01*
X75247D01*
X75208Y51960D01*
X75169Y51957D01*
X74947D01*
X74908Y51960D01*
X74751Y51947D01*
X74598Y51911D01*
X74452Y51850D01*
X74318Y51768D01*
X74318Y51768D01*
X74199Y51666D01*
X74173Y51636D01*
X73792Y51255D01*
X72298Y51250D01*
X72191Y51224D01*
X72089Y51182D01*
X71995Y51125D01*
X71911Y51053D01*
X71840Y50969D01*
X71782Y50875D01*
X71740Y50774D01*
X71714Y50667D01*
X71708Y50557D01*
X71711Y50257D01*
X71035D01*
X70865Y50667D01*
X70556Y51171D01*
X70172Y51621D01*
X69722Y52005D01*
X69218Y52314D01*
X68672Y52540D01*
X68185Y52657D01*
G37*
G36*
X60987Y40257D02*X58185D01*
X58672Y40374D01*
X59218Y40600D01*
X59722Y40909D01*
X60172Y41293D01*
X60556Y41742D01*
X60727Y42021D01*
X60680Y41825D01*
X60651Y41457D01*
X60680Y41088D01*
X60766Y40728D01*
X60908Y40387D01*
X60987Y40257D01*
G37*
G36*
X56831D02*X56546D01*
X56457Y40346D01*
X56831Y40257D01*
G37*
G36*
X71138Y37990D02*X71241Y37902D01*
X71241Y37902D01*
X71350Y37835D01*
X71416Y37795D01*
X71540Y37743D01*
X71408Y37527D01*
X71266Y37185D01*
X71180Y36825D01*
X71151Y36457D01*
X71180Y36088D01*
X71266Y35728D01*
X71408Y35387D01*
X71487Y35257D01*
X71046D01*
X70085Y36218D01*
X70172Y36293D01*
X70556Y36742D01*
X70865Y37246D01*
X71091Y37792D01*
X71138Y37990D01*
G37*
G36*
X75679Y42357D02*X76269D01*
X76308Y42354D01*
X76347Y42357D01*
X76469D01*
X76508Y42354D01*
X76547Y42357D01*
X77669D01*
X77708Y42354D01*
X77747Y42357D01*
X77969D01*
X78008Y42354D01*
X78164Y42366D01*
X78165Y42366D01*
X78318Y42403D01*
X78463Y42463D01*
X78597Y42545D01*
X78717Y42647D01*
X78731Y42664D01*
X78858Y42657D01*
X79814D01*
X79939Y42453D01*
X80199Y42148D01*
X80504Y41887D01*
X80847Y41678D01*
X81217Y41524D01*
X81498Y41457D01*
X81217Y41389D01*
X80847Y41236D01*
X80504Y41026D01*
X80199Y40765D01*
X80102Y40651D01*
X80101Y40667D01*
X80076Y40774D01*
X80034Y40875D01*
X79976Y40969D01*
X79904Y41053D01*
X79821Y41125D01*
X79727Y41182D01*
X79625Y41224D01*
X79518Y41250D01*
X79408Y41257D01*
X79024Y41255D01*
X78643Y41636D01*
X78617Y41666D01*
X78497Y41768D01*
X78363Y41850D01*
X78218Y41911D01*
X78065Y41947D01*
X78065Y41947D01*
X77908Y41960D01*
X77869Y41957D01*
X77647D01*
X77608Y41960D01*
X77569Y41957D01*
X76447D01*
X76408Y41960D01*
X76369Y41957D01*
X75805D01*
X75750Y42185D01*
X75679Y42357D01*
G37*
G36*
Y37357D02*X76269D01*
X76308Y37354D01*
X76347Y37357D01*
X76469D01*
X76508Y37354D01*
X76547Y37357D01*
X77669D01*
X77708Y37354D01*
X77747Y37357D01*
X77969D01*
X78008Y37354D01*
X78164Y37366D01*
X78165Y37366D01*
X78318Y37403D01*
X78463Y37463D01*
X78597Y37545D01*
X78717Y37647D01*
X78731Y37664D01*
X78858Y37657D01*
X79814D01*
X79939Y37453D01*
X80199Y37148D01*
X80504Y36887D01*
X80847Y36678D01*
X81217Y36524D01*
X81498Y36457D01*
X81217Y36389D01*
X80847Y36236D01*
X80504Y36026D01*
X80199Y35765D01*
X80102Y35651D01*
X80101Y35667D01*
X80076Y35774D01*
X80034Y35875D01*
X79976Y35969D01*
X79904Y36053D01*
X79821Y36125D01*
X79727Y36182D01*
X79625Y36224D01*
X79518Y36250D01*
X79408Y36257D01*
X79024Y36255D01*
X78643Y36636D01*
X78617Y36666D01*
X78497Y36768D01*
X78363Y36850D01*
X78218Y36911D01*
X78065Y36947D01*
X78065Y36947D01*
X77908Y36960D01*
X77869Y36957D01*
X77647D01*
X77608Y36960D01*
X77569Y36957D01*
X76447D01*
X76408Y36960D01*
X76369Y36957D01*
X75805D01*
X75750Y37185D01*
X75679Y37357D01*
G37*
G36*
X22534Y41157D02*X51969D01*
X55053Y38073D01*
X55086Y38035D01*
X55241Y37902D01*
X55241Y37902D01*
X55350Y37835D01*
X55416Y37795D01*
X55605Y37717D01*
X55804Y37669D01*
X55804Y37669D01*
X56008Y37653D01*
X56059Y37657D01*
X56831D01*
X56344Y37540D01*
X55797Y37314D01*
X55293Y37005D01*
X54844Y36621D01*
X54460Y36171D01*
X54151Y35667D01*
X53925Y35121D01*
X53837Y34757D01*
X26046D01*
X21463Y39340D01*
X21430Y39379D01*
X21274Y39512D01*
X21100Y39619D01*
X20911Y39697D01*
X20712Y39745D01*
X20711Y39745D01*
X20616Y39752D01*
X21057Y39935D01*
X21661Y40305D01*
X22200Y40765D01*
X22534Y41157D01*
G37*
G36*
X58185Y37657D02*X63981D01*
X64151Y37246D01*
X64460Y36742D01*
X64844Y36293D01*
X65293Y35909D01*
X65797Y35600D01*
X66344Y35374D01*
X66919Y35236D01*
X67431Y35195D01*
X68369Y34257D01*
X61246D01*
X61229Y34546D01*
X61091Y35121D01*
X60865Y35667D01*
X60556Y36171D01*
X60172Y36621D01*
X59722Y37005D01*
X59218Y37314D01*
X58672Y37540D01*
X58185Y37657D01*
G37*
G36*
X23489Y33637D02*X23869Y33257D01*
X23467D01*
X23489Y33637D01*
G37*
G36*
X58185Y27657D02*X63981D01*
X64151Y27246D01*
X64460Y26742D01*
X64844Y26293D01*
X65293Y25909D01*
X65797Y25600D01*
X66344Y25374D01*
X66831Y25257D01*
X61035D01*
X60865Y25667D01*
X60556Y26171D01*
X60172Y26621D01*
X59722Y27005D01*
X59218Y27314D01*
X58672Y27540D01*
X58185Y27657D01*
G37*
G36*
X63981Y30257D02*X58185D01*
X58672Y30374D01*
X59218Y30600D01*
X59722Y30909D01*
X60172Y31293D01*
X60483Y31657D01*
X64886D01*
X64844Y31621D01*
X64460Y31171D01*
X64151Y30667D01*
X63981Y30257D01*
G37*
G36*
X71066Y27733D02*X71105Y27717D01*
X71110Y27715D01*
X71114Y27713D01*
X71210Y27691D01*
X71304Y27669D01*
X71308Y27668D01*
X71314Y27667D01*
X71518Y27653D01*
X71564Y27657D01*
X73508D01*
X73712Y27669D01*
X73911Y27717D01*
X74069Y27782D01*
X74173Y27677D01*
X74199Y27647D01*
X74318Y27545D01*
X74318Y27545D01*
X74452Y27463D01*
X74598Y27403D01*
X74721Y27373D01*
X74751Y27366D01*
X74751Y27366D01*
X74908Y27354D01*
X74947Y27357D01*
X75069D01*
X75108Y27354D01*
X75147Y27357D01*
X76269D01*
X76308Y27354D01*
X76347Y27357D01*
X76469D01*
X76508Y27354D01*
X76547Y27357D01*
X77669D01*
X77708Y27354D01*
X77747Y27357D01*
X77969D01*
X78008Y27354D01*
X78164Y27366D01*
X78165Y27366D01*
X78318Y27403D01*
X78463Y27463D01*
X78597Y27545D01*
X78717Y27647D01*
X78731Y27664D01*
X78858Y27657D01*
X79814D01*
X79939Y27453D01*
X80199Y27148D01*
X80504Y26887D01*
X80847Y26678D01*
X81217Y26524D01*
X81608Y26430D01*
X81833Y26417D01*
X81717Y26389D01*
X81347Y26236D01*
X81004Y26026D01*
X80699Y25765D01*
X80439Y25460D01*
X80314Y25257D01*
X80105D01*
X80101Y25667D01*
X80076Y25774D01*
X80034Y25875D01*
X79976Y25969D01*
X79904Y26053D01*
X79821Y26125D01*
X79727Y26182D01*
X79625Y26224D01*
X79518Y26250D01*
X79408Y26257D01*
X79024Y26255D01*
X78643Y26636D01*
X78617Y26666D01*
X78497Y26768D01*
X78363Y26850D01*
X78218Y26911D01*
X78065Y26947D01*
X78065Y26947D01*
X77908Y26960D01*
X77869Y26957D01*
X77647D01*
X77608Y26960D01*
X77569Y26957D01*
X76447D01*
X76408Y26960D01*
X76369Y26957D01*
X75247D01*
X75208Y26960D01*
X75169Y26957D01*
X74947D01*
X74908Y26960D01*
X74751Y26947D01*
X74598Y26911D01*
X74452Y26850D01*
X74318Y26768D01*
X74318Y26768D01*
X74199Y26666D01*
X74173Y26636D01*
X73792Y26255D01*
X72298Y26250D01*
X72191Y26224D01*
X72089Y26182D01*
X71995Y26125D01*
X71911Y26053D01*
X71840Y25969D01*
X71782Y25875D01*
X71740Y25774D01*
X71714Y25667D01*
X71708Y25557D01*
X71711Y25257D01*
X68185D01*
X68672Y25374D01*
X69218Y25600D01*
X69722Y25909D01*
X70172Y26293D01*
X70556Y26742D01*
X70865Y27246D01*
X71066Y27733D01*
G37*
G36*
X98981Y20257D02*X98702D01*
X98577Y20460D01*
X98317Y20765D01*
X98011Y21026D01*
X97669Y21236D01*
X97298Y21389D01*
X97018Y21457D01*
X97298Y21524D01*
X97669Y21678D01*
X98011Y21887D01*
X98317Y22148D01*
X98577Y22453D01*
X98702Y22657D01*
X101831D01*
X101344Y22540D01*
X100797Y22314D01*
X100293Y22005D01*
X99844Y21621D01*
X99460Y21171D01*
X99151Y20667D01*
X98981Y20257D01*
G37*
G36*
X101831Y25257D02*X98702D01*
X98577Y25460D01*
X98317Y25765D01*
X98011Y26026D01*
X97669Y26236D01*
X97298Y26389D01*
X97018Y26457D01*
X97298Y26524D01*
X97669Y26678D01*
X98011Y26887D01*
X98317Y27148D01*
X98577Y27453D01*
X98787Y27795D01*
X98874Y28005D01*
X98925Y27792D01*
X99151Y27246D01*
X99460Y26742D01*
X99844Y26293D01*
X100293Y25909D01*
X100797Y25600D01*
X101344Y25374D01*
X101831Y25257D01*
G37*
G36*
X99688Y36475D02*X98614Y35401D01*
X98577Y35460D01*
X98317Y35765D01*
X98011Y36026D01*
X97669Y36236D01*
X97298Y36389D01*
X97018Y36457D01*
X97298Y36524D01*
X97669Y36678D01*
X98011Y36887D01*
X98317Y37148D01*
X98577Y37453D01*
X98787Y37795D01*
X98874Y38005D01*
X98925Y37792D01*
X99151Y37246D01*
X99460Y36742D01*
X99688Y36475D01*
G37*
G36*
X98874Y39908D02*X98787Y40118D01*
X98577Y40460D01*
X98317Y40765D01*
X98011Y41026D01*
X97669Y41236D01*
X97298Y41389D01*
X97018Y41457D01*
X97298Y41524D01*
X97669Y41678D01*
X98011Y41887D01*
X98317Y42148D01*
X98577Y42453D01*
X98702Y42657D01*
X101831D01*
X101344Y42540D01*
X100797Y42314D01*
X100293Y42005D01*
X99844Y41621D01*
X99460Y41171D01*
X99151Y40667D01*
X98925Y40121D01*
X98874Y39908D01*
G37*
G36*
X101831Y45257D02*X98702D01*
X98577Y45460D01*
X98317Y45765D01*
X98011Y46026D01*
X97669Y46236D01*
X97298Y46389D01*
X97018Y46457D01*
X97298Y46524D01*
X97669Y46678D01*
X98011Y46887D01*
X98317Y47148D01*
X98577Y47453D01*
X98702Y47657D01*
X98981D01*
X99151Y47246D01*
X99460Y46742D01*
X99844Y46293D01*
X100293Y45909D01*
X100797Y45600D01*
X101344Y45374D01*
X101831Y45257D01*
G37*
G36*
X98981Y50257D02*X98702D01*
X98577Y50460D01*
X98317Y50765D01*
X98011Y51026D01*
X97669Y51236D01*
X97298Y51389D01*
X97018Y51457D01*
X97298Y51524D01*
X97669Y51678D01*
X98011Y51887D01*
X98317Y52148D01*
X98577Y52453D01*
X98702Y52657D01*
X101831D01*
X101344Y52540D01*
X100797Y52314D01*
X100293Y52005D01*
X99844Y51621D01*
X99460Y51171D01*
X99151Y50667D01*
X98981Y50257D01*
G37*
G36*
X58185Y47657D02*X63981D01*
X64151Y47246D01*
X64460Y46742D01*
X64844Y46293D01*
X65293Y45909D01*
X65797Y45600D01*
X66344Y45374D01*
X66831Y45257D01*
X61035D01*
X60865Y45667D01*
X60556Y46171D01*
X60172Y46621D01*
X59722Y47005D01*
X59218Y47314D01*
X58672Y47540D01*
X58185Y47657D01*
G37*
G36*
X71035D02*X72708D01*
X72912Y47669D01*
X73111Y47717D01*
X73300Y47795D01*
X73474Y47902D01*
X73542Y47960D01*
X73890Y47961D01*
X74173Y47677D01*
X74199Y47647D01*
X74318Y47545D01*
X74318Y47545D01*
X74452Y47463D01*
X74598Y47403D01*
X74721Y47373D01*
X74751Y47366D01*
X74751Y47366D01*
X74908Y47354D01*
X74947Y47357D01*
X75069D01*
X75108Y47354D01*
X75147Y47357D01*
X76269D01*
X76308Y47354D01*
X76347Y47357D01*
X76469D01*
X76508Y47354D01*
X76547Y47357D01*
X77669D01*
X77708Y47354D01*
X77747Y47357D01*
X77969D01*
X78008Y47354D01*
X78164Y47366D01*
X78165Y47366D01*
X78318Y47403D01*
X78463Y47463D01*
X78597Y47545D01*
X78717Y47647D01*
X78731Y47664D01*
X78858Y47657D01*
X79814D01*
X79939Y47453D01*
X80199Y47148D01*
X80504Y46887D01*
X80847Y46678D01*
X81217Y46524D01*
X81498Y46457D01*
X81217Y46389D01*
X80847Y46236D01*
X80504Y46026D01*
X80199Y45765D01*
X80102Y45651D01*
X80101Y45667D01*
X80076Y45774D01*
X80034Y45875D01*
X79976Y45969D01*
X79904Y46053D01*
X79821Y46125D01*
X79727Y46182D01*
X79625Y46224D01*
X79518Y46250D01*
X79408Y46257D01*
X79024Y46255D01*
X78643Y46636D01*
X78617Y46666D01*
X78497Y46768D01*
X78363Y46850D01*
X78218Y46911D01*
X78065Y46947D01*
X78065Y46947D01*
X77908Y46960D01*
X77869Y46957D01*
X77647D01*
X77608Y46960D01*
X77569Y46957D01*
X76447D01*
X76408Y46960D01*
X76369Y46957D01*
X75247D01*
X75208Y46960D01*
X75169Y46957D01*
X74947D01*
X74908Y46960D01*
X74751Y46947D01*
X74598Y46911D01*
X74452Y46850D01*
X74318Y46768D01*
X74318Y46768D01*
X74199Y46666D01*
X74173Y46636D01*
X73792Y46255D01*
X72298Y46250D01*
X72191Y46224D01*
X72089Y46182D01*
X71995Y46125D01*
X71911Y46053D01*
X71840Y45969D01*
X71782Y45875D01*
X71740Y45774D01*
X71714Y45667D01*
X71708Y45557D01*
X71711Y45257D01*
X68185D01*
X68672Y45374D01*
X69218Y45600D01*
X69722Y45909D01*
X70172Y46293D01*
X70556Y46742D01*
X70865Y47246D01*
X71035Y47657D01*
G37*
G54D28*X102508Y38957D02*Y37457D01*
X99008Y33957D01*
X112508D02*X102008D01*
X98508Y30457D01*
Y29957D01*
X97508Y28957D01*
X99008Y33957D02*X96508D01*
G54D29*Y38957D02*X82008D01*
Y33957D02*X96508D01*
Y43957D02*X82008D01*
Y48957D02*X96508D01*
Y53957D02*X82008D01*
G54D28*X97508Y28957D02*X96508D01*
G54D29*X82008D01*
G54D28*X112508Y23957D02*X96508D01*
X102508Y18957D02*X96508D01*
G54D29*X82508D02*X96508D01*
Y23957D02*X82508D01*
G54D28*X112508Y43957D02*X96508D01*
X102508Y48957D02*X96508D01*
X112508Y53957D02*X96508D01*
X57508D02*X72708D01*
X78858D02*X82008D01*
Y48957D02*X78858D01*
X57008Y53957D02*Y53457D01*
X54008Y50457D01*
X72008Y38957D02*X71258Y39707D01*
X67508Y38957D02*X56008D01*
X52508Y42457D01*
X71258Y39707D02*Y41207D01*
X73458Y40257D02*Y41407D01*
X73508Y41457D01*
X82008Y43957D02*X78858D01*
X82008Y38957D02*X78858D01*
X69508Y32957D02*X58508D01*
X57508Y33957D01*
X67508Y38957D02*Y36957D01*
X70508Y33957D02*X67508Y36957D01*
X70508Y33957D02*X73508D01*
X73458Y35257D02*Y36407D01*
X73508Y36457D01*
Y38957D02*X72008D01*
X82008Y33957D02*X78858D01*
X82008Y28957D02*X78858D01*
X71008Y31457D02*X69508Y32957D01*
X71008Y31457D02*Y30457D01*
X73508Y28957D02*X71508D01*
X71008Y30457D02*X71508Y28957D01*
X57008Y18957D02*X53508Y22457D01*
X82508Y23957D02*X78858D01*
X82508Y18957D02*X78858D01*
X72708D02*X57008D01*
X67508Y28957D02*X56508D01*
X53508Y31957D01*
X24008Y48957D02*X19008Y53957D01*
X24508Y50457D02*X23508Y51457D01*
Y55957D01*
X21508Y57957D01*
X25008Y43957D02*X21008Y47957D01*
X25008Y23957D02*X21008Y27957D01*
X21508Y57957D02*X13008D01*
X9008Y53957D01*
X21008Y47957D02*X13008D01*
X9008Y43957D01*
X20508Y38457D02*X13508D01*
X21008Y27957D02*X13008D01*
X13508Y38457D02*X9008Y33957D01*
X13008Y27957D02*X9008Y23957D01*
X64258Y42707D02*X63008Y41457D01*
X64258Y42707D02*X69758D01*
X71258Y41207D02*X69758Y42707D01*
X52508Y42457D02*X20508D01*
X19008Y43957D01*
X72708D02*X25008D01*
X72708Y48957D02*X24008D01*
X54008Y50457D02*X24508D01*
X58008Y33457D02*X25508D01*
X20508Y38457D01*
X53508Y31957D02*X21008D01*
X19008Y33957D01*
X53508Y22457D02*X20508D01*
X19008Y23957D01*
X25008D02*X73508D01*
G54D30*X102508Y48957D03*
Y38957D03*
Y28957D03*
Y18957D03*
X112508Y53957D03*
Y43957D03*
Y33957D03*
Y23957D03*
G54D31*X137508Y58957D03*
Y13957D03*
G54D32*X149516Y67500D03*
Y5492D03*
G54D30*X67508Y38957D03*
Y28957D03*
Y18957D03*
X57508Y33957D03*
Y23957D03*
X67508Y48957D03*
X57508Y53957D03*
Y43957D03*
G54D27*G36*
X72000Y9500D02*Y3500D01*
X78000D01*
Y9500D01*
X72000D01*
G37*
G54D33*X85000Y6500D03*
X95000D03*
G54D27*G36*
X72000Y69000D02*Y63000D01*
X78000D01*
Y69000D01*
X72000D01*
G37*
G54D33*X85000Y66000D03*
X95000D03*
G54D31*X32508Y58957D03*
G54D33*X19008Y53957D03*
G54D31*X32508Y13957D03*
G54D32*X20500Y67500D03*
Y5492D03*
G54D27*G36*
X5508Y15957D02*Y9957D01*
X11508D01*
Y15957D01*
X5508D01*
G37*
G36*
X6008Y56957D02*Y50957D01*
X12008D01*
Y56957D01*
X6008D01*
G37*
G54D33*X9008Y43957D03*
X19008D03*
X9008Y33957D03*
X19008D03*
X9008Y23957D03*
X19008D03*
G54D28*X74908Y55957D02*X77908D01*
X78608Y55257D01*
G54D34*X79108D01*
G54D28*X77008Y55357D02*X77608Y55957D01*
X76408D02*X77008Y55357D01*
X74208Y55257D02*X74908Y55957D01*
G54D34*X72708Y55257D02*X74208D01*
G54D28*X75208Y55957D02*X75808Y55357D01*
X76408Y55957D01*
X78008Y53357D02*X78608Y53957D01*
G54D34*X79108D01*
G54D28*X74908Y45957D02*X77908D01*
X78608Y45257D01*
G54D34*X79108D01*
G54D28*X77008Y45357D02*X77608Y45957D01*
X76408D02*X77008Y45357D01*
X74208Y45257D02*X74908Y45957D01*
G54D34*X72708Y45257D02*X74208D01*
G54D28*X75208Y45957D02*X75808Y45357D01*
X76408Y45957D01*
X74908Y43357D02*X78008D01*
X74908D02*X75108D01*
X78008D02*X78608Y43957D01*
G54D34*X79108D01*
G54D28*X74308D02*X74908Y43357D01*
X75108D02*X75808Y44057D01*
X76508Y43357D01*
X76308D02*X77008Y44057D01*
X77708Y43357D01*
G54D34*X72708Y43957D02*X74308D01*
G54D28*X74908Y53357D02*X78008D01*
X74908D02*X75108D01*
X74308Y53957D02*X74908Y53357D01*
G54D34*X72708Y53957D02*X74308D01*
G54D28*X75108Y53357D02*X75808Y54057D01*
X76508Y53357D01*
X76308D02*X77008Y54057D01*
X77708Y53357D01*
X74908Y50957D02*X77908D01*
X78608Y50257D01*
G54D34*X79108D01*
G54D28*X77008Y50357D02*X77608Y50957D01*
X76408D02*X77008Y50357D01*
X74208Y50257D02*X74908Y50957D01*
G54D34*X72708Y50257D02*X74208D01*
G54D28*X75208Y50957D02*X75808Y50357D01*
X76408Y50957D01*
X74308Y48957D02*X74908Y48357D01*
G54D34*X72708Y48957D02*X74308D01*
G54D28*X75108Y48357D02*X75808Y49057D01*
X74908Y48357D02*X75108D01*
X78008D02*X78608Y48957D01*
G54D34*X79108D01*
G54D28*X74908Y48357D02*X78008D01*
X75808Y49057D02*X76508Y48357D01*
X76308D02*X77008Y49057D01*
X77708Y48357D01*
X74208Y20257D02*X74908Y20957D01*
G54D34*X72708Y20257D02*X74208D01*
G54D28*X77908Y20957D02*X78608Y20257D01*
G54D34*X79108D01*
G54D28*X74908Y20957D02*X77908D01*
X75208D02*X75808Y20357D01*
X76408Y20957D01*
X77008Y20357D02*X77608Y20957D01*
X76408D02*X77008Y20357D01*
X74908Y18357D02*X78008D01*
X74908D02*X75108D01*
X78008D02*X78608Y18957D01*
G54D34*X79108D01*
G54D28*X74308D02*X74908Y18357D01*
G54D34*X72708Y18957D02*X74308D01*
G54D28*X75108Y18357D02*X75808Y19057D01*
X76508Y18357D01*
X76308D02*X77008Y19057D01*
X77708Y18357D01*
X74908Y25957D02*X77908D01*
X78608Y25257D01*
X75208Y25957D02*X75808Y25357D01*
X76408Y25957D01*
X77008Y25357D02*X77608Y25957D01*
X76408D02*X77008Y25357D01*
G54D34*X78608Y25257D02*X79108D01*
G54D28*X78008Y23357D02*X78608Y23957D01*
G54D34*X79108D01*
G54D28*X77008Y24057D02*X77708Y23357D01*
X74208Y25257D02*X74908Y25957D01*
G54D34*X72708Y25257D02*X74208D01*
G54D28*X74308Y23957D02*X74908Y23357D01*
G54D34*X72708Y23957D02*X74308D01*
G54D28*X75108Y23357D02*X75808Y24057D01*
X74908Y23357D02*X75108D01*
X74908D02*X78008D01*
X75808Y24057D02*X76508Y23357D01*
X76308D02*X77008Y24057D01*
X74208Y40257D02*X74908Y40957D01*
G54D34*X72708Y40257D02*X74208D01*
G54D28*X77908Y40957D02*X78608Y40257D01*
G54D34*X79108D01*
G54D28*X74908Y40957D02*X77908D01*
X75208D02*X75808Y40357D01*
X76408Y40957D01*
X77008Y40357D02*X77608Y40957D01*
X76408D02*X77008Y40357D01*
X74308Y38957D02*X74908Y38357D01*
G54D34*X72708Y38957D02*X74308D01*
G54D28*X75108Y38357D02*X75808Y39057D01*
X76508Y38357D01*
X76308D02*X77008Y39057D01*
X77708Y38357D01*
X74208Y30257D02*X74908Y30957D01*
G54D34*X72708Y30257D02*X74208D01*
G54D28*X77908Y30957D02*X78608Y30257D01*
G54D34*X79108D01*
G54D28*X74908Y30957D02*X77908D01*
X75208D02*X75808Y30357D01*
X76408Y30957D01*
X77008Y30357D02*X77608Y30957D01*
X76408D02*X77008Y30357D01*
G54D34*X72708Y28957D02*X74308D01*
G54D28*X74908Y28357D01*
X75108D02*X75808Y29057D01*
X74908Y28357D02*X75108D01*
X78008D02*X78608Y28957D01*
G54D34*X79108D01*
G54D28*X74908Y28357D02*X78008D01*
X75808Y29057D02*X76508Y28357D01*
X76308D02*X77008Y29057D01*
X77708Y28357D01*
X74908Y38357D02*X78008D01*
X74908D02*X75108D01*
X78008D02*X78608Y38957D01*
G54D34*X79108D01*
G54D28*X74908Y35957D02*X77908D01*
X78608Y35257D01*
G54D34*X79108D01*
G54D28*X76408Y35957D02*X77008Y35357D01*
X74208Y35257D02*X74908Y35957D01*
G54D34*X72708Y35257D02*X74208D01*
G54D28*X75208Y35957D02*X75808Y35357D01*
X76408Y35957D01*
X77008Y35357D02*X77608Y35957D01*
X74308Y33957D02*X74908Y33357D01*
G54D34*X72708Y33957D02*X74308D01*
G54D28*X75108Y33357D02*X75808Y34057D01*
X74908Y33357D02*X75108D01*
X78008D02*X78608Y33957D01*
G54D34*X79108D01*
G54D28*X74908Y33357D02*X78008D01*
X75808Y34057D02*X76508Y33357D01*
X76308D02*X77008Y34057D01*
X77708Y33357D01*
G54D35*X73508Y36457D03*
X63008Y41457D03*
X73508D03*
Y31457D03*
X96508Y53957D03*
X73508Y46457D03*
Y51457D03*
Y56457D03*
X128008Y53957D03*
Y48957D03*
Y43957D03*
Y38957D03*
Y33957D03*
Y28957D03*
Y23957D03*
Y18957D03*
X96508Y38957D03*
X82008Y43957D03*
Y28957D03*
Y33957D03*
Y38957D03*
X91008Y48957D03*
Y23957D03*
X73508Y26457D03*
Y21457D03*
X96508Y18957D03*
G54D36*G54D37*G54D38*G54D39*G54D37*G54D40*G54D38*G54D41*G54D38*G54D39*G54D40*G54D41*M02*
