G04 start of page 12 for group -3984 idx -3984 *
G04 Title: (unknown), fab *
G04 Creator: pcb 1.99z *
G04 CreationDate: Fri 14 Nov 2014 07:38:12 PM GMT UTC *
G04 For: commonadmin *
G04 Format: Gerber/RS-274X *
G04 PCB-Dimensions (mil): 1705.00 735.00 *
G04 PCB-Coordinate-Origin: lower left *
%MOIN*%
%FSLAX25Y25*%
%LNFAB*%
%ADD85C,0.0100*%
%ADD84C,0.0075*%
%ADD83C,0.0060*%
%ADD82C,0.0080*%
G54D82*X32508Y58957D02*Y55757D01*
Y58957D02*X35281Y60557D01*
X32508Y58957D02*X29735Y60557D01*
X30908Y58957D02*G75*G03X34108Y58957I1600J0D01*G01*
G75*G03X30908Y58957I-1600J0D01*G01*
X32508Y13957D02*Y10757D01*
Y13957D02*X35281Y15557D01*
X32508Y13957D02*X29735Y15557D01*
X30908Y13957D02*G75*G03X34108Y13957I1600J0D01*G01*
G75*G03X30908Y13957I-1600J0D01*G01*
X137508Y58957D02*Y55757D01*
Y58957D02*X140281Y60557D01*
X137508Y58957D02*X134735Y60557D01*
X135908Y58957D02*G75*G03X139108Y58957I1600J0D01*G01*
G75*G03X135908Y58957I-1600J0D01*G01*
X137508Y13957D02*Y10757D01*
Y13957D02*X140281Y15557D01*
X137508Y13957D02*X134735Y15557D01*
X135908Y13957D02*G75*G03X139108Y13957I1600J0D01*G01*
G75*G03X135908Y13957I-1600J0D01*G01*
X15000Y84750D02*Y81550D01*
Y84750D02*X17773Y86350D01*
X15000Y84750D02*X12227Y86350D01*
X13400Y84750D02*G75*G03X16600Y84750I1600J0D01*G01*
G75*G03X13400Y84750I-1600J0D01*G01*
G54D83*X135000Y87000D02*X136500Y84000D01*
X138000Y87000D01*
X136500Y84000D02*Y81000D01*
X139800Y84300D02*X142050D01*
X139800Y81000D02*X142800D01*
X139800Y87000D02*Y81000D01*
Y87000D02*X142800D01*
X147600D02*X148350Y86250D01*
X145350Y87000D02*X147600D01*
X144600Y86250D02*X145350Y87000D01*
X144600Y86250D02*Y84750D01*
X145350Y84000D01*
X147600D01*
X148350Y83250D01*
Y81750D01*
X147600Y81000D02*X148350Y81750D01*
X145350Y81000D02*X147600D01*
X144600Y81750D02*X145350Y81000D01*
X98000Y83250D02*X101000Y87000D01*
X98000Y83250D02*X101750D01*
X101000Y87000D02*Y81000D01*
X45000Y81750D02*X45750Y81000D01*
X45000Y86250D02*Y81750D01*
Y86250D02*X45750Y87000D01*
X47250D01*
X48000Y86250D01*
Y81750D01*
X47250Y81000D02*X48000Y81750D01*
X45750Y81000D02*X47250D01*
X45000Y82500D02*X48000Y85500D01*
X49800Y81000D02*X50550D01*
X52350Y85800D02*X53550Y87000D01*
Y81000D01*
X52350D02*X54600D01*
X56400Y86250D02*X57150Y87000D01*
X59400D01*
X60150Y86250D01*
Y84750D01*
X56400Y81000D02*X60150Y84750D01*
X56400Y81000D02*X60150D01*
X61950Y81750D02*X62700Y81000D01*
X61950Y82950D02*Y81750D01*
Y82950D02*X63000Y84000D01*
X63900D01*
X64950Y82950D01*
Y81750D01*
X64200Y81000D02*X64950Y81750D01*
X62700Y81000D02*X64200D01*
X61950Y85050D02*X63000Y84000D01*
X61950Y86250D02*Y85050D01*
Y86250D02*X62700Y87000D01*
X64200D01*
X64950Y86250D01*
Y85050D01*
X63900Y84000D02*X64950Y85050D01*
X18900Y69100D02*X22100D01*
X18900D02*Y65900D01*
X22100D01*
Y69100D02*Y65900D01*
X18900Y7092D02*X22100D01*
X18900D02*Y3892D01*
X22100D01*
Y7092D02*Y3892D01*
X147916Y69100D02*X151116D01*
X147916D02*Y65900D01*
X151116D01*
Y69100D02*Y65900D01*
X147916Y7092D02*X151116D01*
X147916D02*Y3892D01*
X151116D01*
Y7092D02*Y3892D01*
X13400Y101350D02*X16600D01*
X13400D02*Y98150D01*
X16600D01*
Y101350D02*Y98150D01*
X135000Y102000D02*X136500Y99000D01*
X138000Y102000D01*
X136500Y99000D02*Y96000D01*
X139800Y99300D02*X142050D01*
X139800Y96000D02*X142800D01*
X139800Y102000D02*Y96000D01*
Y102000D02*X142800D01*
X147600D02*X148350Y101250D01*
X145350Y102000D02*X147600D01*
X144600Y101250D02*X145350Y102000D01*
X144600Y101250D02*Y99750D01*
X145350Y99000D01*
X147600D01*
X148350Y98250D01*
Y96750D01*
X147600Y96000D02*X148350Y96750D01*
X145350Y96000D02*X147600D01*
X144600Y96750D02*X145350Y96000D01*
X98000Y98250D02*X101000Y102000D01*
X98000Y98250D02*X101750D01*
X101000Y102000D02*Y96000D01*
X45000Y96750D02*X45750Y96000D01*
X45000Y101250D02*Y96750D01*
Y101250D02*X45750Y102000D01*
X47250D01*
X48000Y101250D01*
Y96750D01*
X47250Y96000D02*X48000Y96750D01*
X45750Y96000D02*X47250D01*
X45000Y97500D02*X48000Y100500D01*
X49800Y96000D02*X50550D01*
X52350Y96750D02*X53100Y96000D01*
X52350Y101250D02*Y96750D01*
Y101250D02*X53100Y102000D01*
X54600D01*
X55350Y101250D01*
Y96750D01*
X54600Y96000D02*X55350Y96750D01*
X53100Y96000D02*X54600D01*
X52350Y97500D02*X55350Y100500D01*
X59400Y102000D02*X60150Y101250D01*
X57900Y102000D02*X59400D01*
X57150Y101250D02*X57900Y102000D01*
X57150Y101250D02*Y96750D01*
X57900Y96000D01*
X59400Y99300D02*X60150Y98550D01*
X57150Y99300D02*X59400D01*
X57900Y96000D02*X59400D01*
X60150Y96750D01*
Y98550D02*Y96750D01*
X61950Y101250D02*X62700Y102000D01*
X64200D01*
X64950Y101250D01*
X64200Y96000D02*X64950Y96750D01*
X62700Y96000D02*X64200D01*
X61950Y96750D02*X62700Y96000D01*
Y99300D02*X64200D01*
X64950Y101250D02*Y100050D01*
Y98550D02*Y96750D01*
Y98550D02*X64200Y99300D01*
X64950Y100050D02*X64200Y99300D01*
X8208Y53957D02*G75*G03X9808Y53957I800J0D01*G01*
G75*G03X8208Y53957I-800J0D01*G01*
X18208D02*G75*G03X19808Y53957I800J0D01*G01*
G75*G03X18208Y53957I-800J0D01*G01*
X8208Y43957D02*G75*G03X9808Y43957I800J0D01*G01*
G75*G03X8208Y43957I-800J0D01*G01*
X18208D02*G75*G03X19808Y43957I800J0D01*G01*
G75*G03X18208Y43957I-800J0D01*G01*
X8208Y33957D02*G75*G03X9808Y33957I800J0D01*G01*
G75*G03X8208Y33957I-800J0D01*G01*
X18208D02*G75*G03X19808Y33957I800J0D01*G01*
G75*G03X18208Y33957I-800J0D01*G01*
X8208Y23957D02*G75*G03X9808Y23957I800J0D01*G01*
G75*G03X8208Y23957I-800J0D01*G01*
X18208D02*G75*G03X19808Y23957I800J0D01*G01*
G75*G03X18208Y23957I-800J0D01*G01*
X14200Y114750D02*G75*G03X15800Y114750I800J0D01*G01*
G75*G03X14200Y114750I-800J0D01*G01*
X135000Y117000D02*X136500Y114000D01*
X138000Y117000D01*
X136500Y114000D02*Y111000D01*
X139800Y114300D02*X142050D01*
X139800Y111000D02*X142800D01*
X139800Y117000D02*Y111000D01*
Y117000D02*X142800D01*
X147600D02*X148350Y116250D01*
X145350Y117000D02*X147600D01*
X144600Y116250D02*X145350Y117000D01*
X144600Y116250D02*Y114750D01*
X145350Y114000D01*
X147600D01*
X148350Y113250D01*
Y111750D01*
X147600Y111000D02*X148350Y111750D01*
X145350Y111000D02*X147600D01*
X144600Y111750D02*X145350Y111000D01*
X98000Y111750D02*X98750Y111000D01*
X98000Y112950D02*Y111750D01*
Y112950D02*X99050Y114000D01*
X99950D01*
X101000Y112950D01*
Y111750D01*
X100250Y111000D02*X101000Y111750D01*
X98750Y111000D02*X100250D01*
X98000Y115050D02*X99050Y114000D01*
X98000Y116250D02*Y115050D01*
Y116250D02*X98750Y117000D01*
X100250D01*
X101000Y116250D01*
Y115050D01*
X99950Y114000D02*X101000Y115050D01*
X45000Y111750D02*X45750Y111000D01*
X45000Y116250D02*Y111750D01*
Y116250D02*X45750Y117000D01*
X47250D01*
X48000Y116250D01*
Y111750D01*
X47250Y111000D02*X48000Y111750D01*
X45750Y111000D02*X47250D01*
X45000Y112500D02*X48000Y115500D01*
X49800Y111000D02*X50550D01*
X52350Y111750D02*X53100Y111000D01*
X52350Y116250D02*Y111750D01*
Y116250D02*X53100Y117000D01*
X54600D01*
X55350Y116250D01*
Y111750D01*
X54600Y111000D02*X55350Y111750D01*
X53100Y111000D02*X54600D01*
X52350Y112500D02*X55350Y115500D01*
X57150Y116250D02*X57900Y117000D01*
X59400D01*
X60150Y116250D01*
X59400Y111000D02*X60150Y111750D01*
X57900Y111000D02*X59400D01*
X57150Y111750D02*X57900Y111000D01*
Y114300D02*X59400D01*
X60150Y116250D02*Y115050D01*
Y113550D02*Y111750D01*
Y113550D02*X59400Y114300D01*
X60150Y115050D02*X59400Y114300D01*
X61950Y111750D02*X62700Y111000D01*
X61950Y112950D02*Y111750D01*
Y112950D02*X63000Y114000D01*
X63900D01*
X64950Y112950D01*
Y111750D01*
X64200Y111000D02*X64950Y111750D01*
X62700Y111000D02*X64200D01*
X61950Y115050D02*X63000Y114000D01*
X61950Y116250D02*Y115050D01*
Y116250D02*X62700Y117000D01*
X64200D01*
X64950Y116250D01*
Y115050D01*
X63900Y114000D02*X64950Y115050D01*
X66308Y50157D02*X68708Y47757D01*
X66308D02*X68708Y50157D01*
X66308Y40157D02*X68708Y37757D01*
X66308D02*X68708Y40157D01*
X66308Y30157D02*X68708Y27757D01*
X66308D02*X68708Y30157D01*
X66308Y20157D02*X68708Y17757D01*
X66308D02*X68708Y20157D01*
X56308Y55157D02*X58708Y52757D01*
X56308D02*X58708Y55157D01*
X56308Y45157D02*X58708Y42757D01*
X56308D02*X58708Y45157D01*
X56308Y35157D02*X58708Y32757D01*
X56308D02*X58708Y35157D01*
X56308Y25157D02*X58708Y22757D01*
X56308D02*X58708Y25157D01*
X101308Y50157D02*X103708Y47757D01*
X101308D02*X103708Y50157D01*
X101308Y40157D02*X103708Y37757D01*
X101308D02*X103708Y40157D01*
X101308Y30157D02*X103708Y27757D01*
X101308D02*X103708Y30157D01*
X101308Y20157D02*X103708Y17757D01*
X101308D02*X103708Y20157D01*
X111308Y55157D02*X113708Y52757D01*
X111308D02*X113708Y55157D01*
X111308Y45157D02*X113708Y42757D01*
X111308D02*X113708Y45157D01*
X111308Y35157D02*X113708Y32757D01*
X111308D02*X113708Y35157D01*
X111308Y25157D02*X113708Y22757D01*
X111308D02*X113708Y25157D01*
X13800Y130950D02*X16200Y128550D01*
X13800D02*X16200Y130950D01*
X135000Y132000D02*X136500Y129000D01*
X138000Y132000D01*
X136500Y129000D02*Y126000D01*
X139800Y129300D02*X142050D01*
X139800Y126000D02*X142800D01*
X139800Y132000D02*Y126000D01*
Y132000D02*X142800D01*
X147600D02*X148350Y131250D01*
X145350Y132000D02*X147600D01*
X144600Y131250D02*X145350Y132000D01*
X144600Y131250D02*Y129750D01*
X145350Y129000D01*
X147600D01*
X148350Y128250D01*
Y126750D01*
X147600Y126000D02*X148350Y126750D01*
X145350Y126000D02*X147600D01*
X144600Y126750D02*X145350Y126000D01*
X98000Y130800D02*X99200Y132000D01*
Y126000D01*
X98000D02*X100250D01*
X104300Y132000D02*X105050Y131250D01*
X102800Y132000D02*X104300D01*
X102050Y131250D02*X102800Y132000D01*
X102050Y131250D02*Y126750D01*
X102800Y126000D01*
X104300Y129300D02*X105050Y128550D01*
X102050Y129300D02*X104300D01*
X102800Y126000D02*X104300D01*
X105050Y126750D01*
Y128550D02*Y126750D01*
X45000D02*X45750Y126000D01*
X45000Y131250D02*Y126750D01*
Y131250D02*X45750Y132000D01*
X47250D01*
X48000Y131250D01*
Y126750D01*
X47250Y126000D02*X48000Y126750D01*
X45750Y126000D02*X47250D01*
X45000Y127500D02*X48000Y130500D01*
X49800Y126000D02*X50550D01*
X52350Y126750D02*X53100Y126000D01*
X52350Y131250D02*Y126750D01*
Y131250D02*X53100Y132000D01*
X54600D01*
X55350Y131250D01*
Y126750D01*
X54600Y126000D02*X55350Y126750D01*
X53100Y126000D02*X54600D01*
X52350Y127500D02*X55350Y130500D01*
X57150Y131250D02*X57900Y132000D01*
X59400D01*
X60150Y131250D01*
X59400Y126000D02*X60150Y126750D01*
X57900Y126000D02*X59400D01*
X57150Y126750D02*X57900Y126000D01*
Y129300D02*X59400D01*
X60150Y131250D02*Y130050D01*
Y128550D02*Y126750D01*
Y128550D02*X59400Y129300D01*
X60150Y130050D02*X59400Y129300D01*
X61950Y132000D02*X64950D01*
X61950D02*Y129000D01*
X62700Y129750D01*
X64200D01*
X64950Y129000D01*
Y126750D01*
X64200Y126000D02*X64950Y126750D01*
X62700Y126000D02*X64200D01*
X61950Y126750D02*X62700Y126000D01*
X8508Y14557D02*Y11357D01*
X6908Y12957D02*X10108D01*
X75000Y8100D02*Y4900D01*
X73400Y6500D02*X76600D01*
X85000Y8100D02*Y4900D01*
X83400Y6500D02*X86600D01*
X95000Y8100D02*Y4900D01*
X93400Y6500D02*X96600D01*
X75000Y67600D02*Y64400D01*
X73400Y66000D02*X76600D01*
X85000Y67600D02*Y64400D01*
X83400Y66000D02*X86600D01*
X95000Y67600D02*Y64400D01*
X93400Y66000D02*X96600D01*
X15000Y146350D02*Y143150D01*
X13400Y144750D02*X16600D01*
X135000Y147000D02*X136500Y144000D01*
X138000Y147000D01*
X136500Y144000D02*Y141000D01*
X139800Y144300D02*X142050D01*
X139800Y141000D02*X142800D01*
X139800Y147000D02*Y141000D01*
Y147000D02*X142800D01*
X147600D02*X148350Y146250D01*
X145350Y147000D02*X147600D01*
X144600Y146250D02*X145350Y147000D01*
X144600Y146250D02*Y144750D01*
X145350Y144000D01*
X147600D01*
X148350Y143250D01*
Y141750D01*
X147600Y141000D02*X148350Y141750D01*
X145350Y141000D02*X147600D01*
X144600Y141750D02*X145350Y141000D01*
X98750D02*X101750Y147000D01*
X98000D02*X101750D01*
X45000Y141750D02*X45750Y141000D01*
X45000Y146250D02*Y141750D01*
Y146250D02*X45750Y147000D01*
X47250D01*
X48000Y146250D01*
Y141750D01*
X47250Y141000D02*X48000Y141750D01*
X45750Y141000D02*X47250D01*
X45000Y142500D02*X48000Y145500D01*
X49800Y141000D02*X50550D01*
X52350Y141750D02*X53100Y141000D01*
X52350Y146250D02*Y141750D01*
Y146250D02*X53100Y147000D01*
X54600D01*
X55350Y146250D01*
Y141750D01*
X54600Y141000D02*X55350Y141750D01*
X53100Y141000D02*X54600D01*
X52350Y142500D02*X55350Y145500D01*
X57150Y146250D02*X57900Y147000D01*
X60150D01*
X60900Y146250D01*
Y144750D01*
X57150Y141000D02*X60900Y144750D01*
X57150Y141000D02*X60900D01*
X62700Y141750D02*X63450Y141000D01*
X62700Y142950D02*Y141750D01*
Y142950D02*X63750Y144000D01*
X64650D01*
X65700Y142950D01*
Y141750D01*
X64950Y141000D02*X65700Y141750D01*
X63450Y141000D02*X64950D01*
X62700Y145050D02*X63750Y144000D01*
X62700Y146250D02*Y145050D01*
Y146250D02*X63450Y147000D01*
X64950D01*
X65700Y146250D01*
Y145050D01*
X64650Y144000D02*X65700Y145050D01*
X73508Y36457D02*Y34857D01*
Y36457D02*X74895Y37257D01*
X73508Y36457D02*X72121Y37257D01*
X63008Y41457D02*Y39857D01*
Y41457D02*X64395Y42257D01*
X63008Y41457D02*X61621Y42257D01*
X73508Y41457D02*Y39857D01*
Y41457D02*X74895Y42257D01*
X73508Y41457D02*X72121Y42257D01*
X96508Y38957D02*Y37357D01*
Y38957D02*X97895Y39757D01*
X96508Y38957D02*X95121Y39757D01*
X82008Y43957D02*Y42357D01*
Y43957D02*X83395Y44757D01*
X82008Y43957D02*X80621Y44757D01*
X82008Y28957D02*Y27357D01*
Y28957D02*X83395Y29757D01*
X82008Y28957D02*X80621Y29757D01*
X82008Y33957D02*Y32357D01*
Y33957D02*X83395Y34757D01*
X82008Y33957D02*X80621Y34757D01*
X82008Y38957D02*Y37357D01*
Y38957D02*X83395Y39757D01*
X82008Y38957D02*X80621Y39757D01*
X91008Y48957D02*Y47357D01*
Y48957D02*X92395Y49757D01*
X91008Y48957D02*X89621Y49757D01*
X91008Y23957D02*Y22357D01*
Y23957D02*X92395Y24757D01*
X91008Y23957D02*X89621Y24757D01*
X96508Y18957D02*Y17357D01*
Y18957D02*X97895Y19757D01*
X96508Y18957D02*X95121Y19757D01*
X96508Y53957D02*Y52357D01*
Y53957D02*X97895Y54757D01*
X96508Y53957D02*X95121Y54757D01*
X73508Y46457D02*Y44857D01*
Y46457D02*X74895Y47257D01*
X73508Y46457D02*X72121Y47257D01*
X73508Y51457D02*Y49857D01*
Y51457D02*X74895Y52257D01*
X73508Y51457D02*X72121Y52257D01*
X73508Y56457D02*Y54857D01*
Y56457D02*X74895Y57257D01*
X73508Y56457D02*X72121Y57257D01*
X73508Y26457D02*Y24857D01*
Y26457D02*X74895Y27257D01*
X73508Y26457D02*X72121Y27257D01*
X73508Y21457D02*Y19857D01*
Y21457D02*X74895Y22257D01*
X73508Y21457D02*X72121Y22257D01*
X73508Y31457D02*Y29857D01*
Y31457D02*X74895Y32257D01*
X73508Y31457D02*X72121Y32257D01*
X128008Y53957D02*Y52357D01*
Y53957D02*X129395Y54757D01*
X128008Y53957D02*X126621Y54757D01*
X128008Y48957D02*Y47357D01*
Y48957D02*X129395Y49757D01*
X128008Y48957D02*X126621Y49757D01*
X128008Y43957D02*Y42357D01*
Y43957D02*X129395Y44757D01*
X128008Y43957D02*X126621Y44757D01*
X128008Y38957D02*Y37357D01*
Y38957D02*X129395Y39757D01*
X128008Y38957D02*X126621Y39757D01*
X128008Y33957D02*Y32357D01*
Y33957D02*X129395Y34757D01*
X128008Y33957D02*X126621Y34757D01*
X128008Y28957D02*Y27357D01*
Y28957D02*X129395Y29757D01*
X128008Y28957D02*X126621Y29757D01*
X128008Y23957D02*Y22357D01*
Y23957D02*X129395Y24757D01*
X128008Y23957D02*X126621Y24757D01*
X128008Y18957D02*Y17357D01*
Y18957D02*X129395Y19757D01*
X128008Y18957D02*X126621Y19757D01*
X15000Y159750D02*Y158150D01*
Y159750D02*X16387Y160550D01*
X15000Y159750D02*X13613Y160550D01*
X135000Y162000D02*X136500Y159000D01*
X138000Y162000D01*
X136500Y159000D02*Y156000D01*
X139800Y159300D02*X142050D01*
X139800Y156000D02*X142800D01*
X139800Y162000D02*Y156000D01*
Y162000D02*X142800D01*
X147600D02*X148350Y161250D01*
X145350Y162000D02*X147600D01*
X144600Y161250D02*X145350Y162000D01*
X144600Y161250D02*Y159750D01*
X145350Y159000D01*
X147600D01*
X148350Y158250D01*
Y156750D01*
X147600Y156000D02*X148350Y156750D01*
X145350Y156000D02*X147600D01*
X144600Y156750D02*X145350Y156000D01*
X98000Y161250D02*X98750Y162000D01*
X101000D01*
X101750Y161250D01*
Y159750D01*
X98000Y156000D02*X101750Y159750D01*
X98000Y156000D02*X101750D01*
X105800Y162000D02*X106550Y161250D01*
X104300Y162000D02*X105800D01*
X103550Y161250D02*X104300Y162000D01*
X103550Y161250D02*Y156750D01*
X104300Y156000D01*
X105800Y159300D02*X106550Y158550D01*
X103550Y159300D02*X105800D01*
X104300Y156000D02*X105800D01*
X106550Y156750D01*
Y158550D02*Y156750D01*
X45000D02*X45750Y156000D01*
X45000Y161250D02*Y156750D01*
Y161250D02*X45750Y162000D01*
X47250D01*
X48000Y161250D01*
Y156750D01*
X47250Y156000D02*X48000Y156750D01*
X45750Y156000D02*X47250D01*
X45000Y157500D02*X48000Y160500D01*
X49800Y156000D02*X50550D01*
X52350Y156750D02*X53100Y156000D01*
X52350Y161250D02*Y156750D01*
Y161250D02*X53100Y162000D01*
X54600D01*
X55350Y161250D01*
Y156750D01*
X54600Y156000D02*X55350Y156750D01*
X53100Y156000D02*X54600D01*
X52350Y157500D02*X55350Y160500D01*
X57150Y160800D02*X58350Y162000D01*
Y156000D01*
X57150D02*X59400D01*
X61200Y161250D02*X61950Y162000D01*
X63450D01*
X64200Y161250D01*
X63450Y156000D02*X64200Y156750D01*
X61950Y156000D02*X63450D01*
X61200Y156750D02*X61950Y156000D01*
Y159300D02*X63450D01*
X64200Y161250D02*Y160050D01*
Y158550D02*Y156750D01*
Y158550D02*X63450Y159300D01*
X64200Y160050D02*X63450Y159300D01*
X3000Y177000D02*X3750Y176250D01*
X750Y177000D02*X3000D01*
X0Y176250D02*X750Y177000D01*
X0Y176250D02*Y174750D01*
X750Y174000D01*
X3000D01*
X3750Y173250D01*
Y171750D01*
X3000Y171000D02*X3750Y171750D01*
X750Y171000D02*X3000D01*
X0Y171750D02*X750Y171000D01*
X5550Y174000D02*Y171750D01*
X6300Y171000D01*
X8550Y174000D02*Y169500D01*
X7800Y168750D02*X8550Y169500D01*
X6300Y168750D02*X7800D01*
X5550Y169500D02*X6300Y168750D01*
Y171000D02*X7800D01*
X8550Y171750D01*
X11100Y173250D02*Y171000D01*
Y173250D02*X11850Y174000D01*
X12600D01*
X13350Y173250D01*
Y171000D01*
Y173250D02*X14100Y174000D01*
X14850D01*
X15600Y173250D01*
Y171000D01*
X10350Y174000D02*X11100Y173250D01*
X17400Y177000D02*Y171000D01*
Y171750D02*X18150Y171000D01*
X19650D01*
X20400Y171750D01*
Y173250D02*Y171750D01*
X19650Y174000D02*X20400Y173250D01*
X18150Y174000D02*X19650D01*
X17400Y173250D02*X18150Y174000D01*
X22200Y173250D02*Y171750D01*
Y173250D02*X22950Y174000D01*
X24450D01*
X25200Y173250D01*
Y171750D01*
X24450Y171000D02*X25200Y171750D01*
X22950Y171000D02*X24450D01*
X22200Y171750D02*X22950Y171000D01*
X27000Y177000D02*Y171750D01*
X27750Y171000D01*
X0Y167750D02*X29250D01*
X41750Y177000D02*Y171000D01*
X43700Y177000D02*X44750Y175950D01*
Y172050D01*
X43700Y171000D02*X44750Y172050D01*
X41000Y171000D02*X43700D01*
X41000Y177000D02*X43700D01*
G54D84*X46550Y175500D02*Y175350D01*
G54D83*Y173250D02*Y171000D01*
X50300Y174000D02*X51050Y173250D01*
X48800Y174000D02*X50300D01*
X48050Y173250D02*X48800Y174000D01*
X48050Y173250D02*Y171750D01*
X48800Y171000D01*
X51050Y174000D02*Y171750D01*
X51800Y171000D01*
X48800D02*X50300D01*
X51050Y171750D01*
X54350Y173250D02*Y171000D01*
Y173250D02*X55100Y174000D01*
X55850D01*
X56600Y173250D01*
Y171000D01*
Y173250D02*X57350Y174000D01*
X58100D01*
X58850Y173250D01*
Y171000D01*
X53600Y174000D02*X54350Y173250D01*
X60650Y171000D02*X61400D01*
X65900Y171750D02*X66650Y171000D01*
X65900Y176250D02*X66650Y177000D01*
X65900Y176250D02*Y171750D01*
X68450Y177000D02*X69950D01*
X69200D02*Y171000D01*
X68450D02*X69950D01*
X72500Y173250D02*Y171000D01*
Y173250D02*X73250Y174000D01*
X74000D01*
X74750Y173250D01*
Y171000D01*
X71750Y174000D02*X72500Y173250D01*
X77300Y174000D02*X79550D01*
X76550Y173250D02*X77300Y174000D01*
X76550Y173250D02*Y171750D01*
X77300Y171000D01*
X79550D01*
X81350Y177000D02*Y171000D01*
Y173250D02*X82100Y174000D01*
X83600D01*
X84350Y173250D01*
Y171000D01*
X86150Y177000D02*X86900Y176250D01*
Y171750D01*
X86150Y171000D02*X86900Y171750D01*
X41000Y167750D02*X88700D01*
X96050Y171000D02*X98000D01*
X95000Y172050D02*X96050Y171000D01*
X95000Y175950D02*Y172050D01*
Y175950D02*X96050Y177000D01*
X98000D01*
X99800Y173250D02*Y171750D01*
Y173250D02*X100550Y174000D01*
X102050D01*
X102800Y173250D01*
Y171750D01*
X102050Y171000D02*X102800Y171750D01*
X100550Y171000D02*X102050D01*
X99800Y171750D02*X100550Y171000D01*
X104600Y174000D02*Y171750D01*
X105350Y171000D01*
X106850D01*
X107600Y171750D01*
Y174000D02*Y171750D01*
X110150Y173250D02*Y171000D01*
Y173250D02*X110900Y174000D01*
X111650D01*
X112400Y173250D01*
Y171000D01*
X109400Y174000D02*X110150Y173250D01*
X114950Y177000D02*Y171750D01*
X115700Y171000D01*
X114200Y174750D02*X115700D01*
X95000Y167750D02*X117200D01*
X130750Y177000D02*Y171000D01*
X130000Y177000D02*X133000D01*
X133750Y176250D01*
Y174750D01*
X133000Y174000D02*X133750Y174750D01*
X130750Y174000D02*X133000D01*
X135550Y177000D02*Y171750D01*
X136300Y171000D01*
X140050Y174000D02*X140800Y173250D01*
X138550Y174000D02*X140050D01*
X137800Y173250D02*X138550Y174000D01*
X137800Y173250D02*Y171750D01*
X138550Y171000D01*
X140800Y174000D02*Y171750D01*
X141550Y171000D01*
X138550D02*X140050D01*
X140800Y171750D01*
X144100Y177000D02*Y171750D01*
X144850Y171000D01*
X143350Y174750D02*X144850D01*
X147100Y171000D02*X149350D01*
X146350Y171750D02*X147100Y171000D01*
X146350Y173250D02*Y171750D01*
Y173250D02*X147100Y174000D01*
X148600D01*
X149350Y173250D01*
X146350Y172500D02*X149350D01*
Y173250D02*Y172500D01*
X154150Y177000D02*Y171000D01*
X153400D02*X154150Y171750D01*
X151900Y171000D02*X153400D01*
X151150Y171750D02*X151900Y171000D01*
X151150Y173250D02*Y171750D01*
Y173250D02*X151900Y174000D01*
X153400D01*
X154150Y173250D01*
X157450Y174000D02*Y173250D01*
Y171750D02*Y171000D01*
X155950Y176250D02*Y175500D01*
Y176250D02*X156700Y177000D01*
X158200D01*
X158950Y176250D01*
Y175500D01*
X157450Y174000D02*X158950Y175500D01*
X130000Y167750D02*X160750D01*
X0Y192000D02*X3000D01*
X1500D02*Y186000D01*
X4800Y192000D02*Y186000D01*
Y188250D02*X5550Y189000D01*
X7050D01*
X7800Y188250D01*
Y186000D01*
X10350D02*X12600D01*
X9600Y186750D02*X10350Y186000D01*
X9600Y188250D02*Y186750D01*
Y188250D02*X10350Y189000D01*
X11850D01*
X12600Y188250D01*
X9600Y187500D02*X12600D01*
Y188250D02*Y187500D01*
X15150Y188250D02*Y186000D01*
Y188250D02*X15900Y189000D01*
X17400D01*
X14400D02*X15150Y188250D01*
X19950Y186000D02*X22200D01*
X19200Y186750D02*X19950Y186000D01*
X19200Y188250D02*Y186750D01*
Y188250D02*X19950Y189000D01*
X21450D01*
X22200Y188250D01*
X19200Y187500D02*X22200D01*
Y188250D02*Y187500D01*
X28950Y189000D02*X29700Y188250D01*
X27450Y189000D02*X28950D01*
X26700Y188250D02*X27450Y189000D01*
X26700Y188250D02*Y186750D01*
X27450Y186000D01*
X29700Y189000D02*Y186750D01*
X30450Y186000D01*
X27450D02*X28950D01*
X29700Y186750D01*
X33000Y188250D02*Y186000D01*
Y188250D02*X33750Y189000D01*
X35250D01*
X32250D02*X33000Y188250D01*
X37800Y186000D02*X40050D01*
X37050Y186750D02*X37800Y186000D01*
X37050Y188250D02*Y186750D01*
Y188250D02*X37800Y189000D01*
X39300D01*
X40050Y188250D01*
X37050Y187500D02*X40050D01*
Y188250D02*Y187500D01*
X46800Y192000D02*X47550Y191250D01*
X45300Y192000D02*X46800D01*
X44550Y191250D02*X45300Y192000D01*
X44550Y191250D02*Y186750D01*
X45300Y186000D01*
X46800Y189300D02*X47550Y188550D01*
X44550Y189300D02*X46800D01*
X45300Y186000D02*X46800D01*
X47550Y186750D01*
Y188550D02*Y186750D01*
X55050Y192000D02*Y186000D01*
X54300D02*X55050Y186750D01*
X52800Y186000D02*X54300D01*
X52050Y186750D02*X52800Y186000D01*
X52050Y188250D02*Y186750D01*
Y188250D02*X52800Y189000D01*
X54300D01*
X55050Y188250D01*
G54D84*X56850Y190500D02*Y190350D01*
G54D83*Y188250D02*Y186000D01*
X59100Y191250D02*Y186000D01*
Y191250D02*X59850Y192000D01*
X60600D01*
X58350Y189000D02*X59850D01*
X62850Y191250D02*Y186000D01*
Y191250D02*X63600Y192000D01*
X64350D01*
X62100Y189000D02*X63600D01*
X66600Y186000D02*X68850D01*
X65850Y186750D02*X66600Y186000D01*
X65850Y188250D02*Y186750D01*
Y188250D02*X66600Y189000D01*
X68100D01*
X68850Y188250D01*
X65850Y187500D02*X68850D01*
Y188250D02*Y187500D01*
X71400Y188250D02*Y186000D01*
Y188250D02*X72150Y189000D01*
X73650D01*
X70650D02*X71400Y188250D01*
X76200Y186000D02*X78450D01*
X75450Y186750D02*X76200Y186000D01*
X75450Y188250D02*Y186750D01*
Y188250D02*X76200Y189000D01*
X77700D01*
X78450Y188250D01*
X75450Y187500D02*X78450D01*
Y188250D02*Y187500D01*
X81000Y188250D02*Y186000D01*
Y188250D02*X81750Y189000D01*
X82500D01*
X83250Y188250D01*
Y186000D01*
X80250Y189000D02*X81000Y188250D01*
X85800Y192000D02*Y186750D01*
X86550Y186000D01*
X85050Y189750D02*X86550D01*
X93750Y192000D02*Y186000D01*
X93000D02*X93750Y186750D01*
X91500Y186000D02*X93000D01*
X90750Y186750D02*X91500Y186000D01*
X90750Y188250D02*Y186750D01*
Y188250D02*X91500Y189000D01*
X93000D01*
X93750Y188250D01*
X96300D02*Y186000D01*
Y188250D02*X97050Y189000D01*
X98550D01*
X95550D02*X96300Y188250D01*
G54D84*X100350Y190500D02*Y190350D01*
G54D83*Y188250D02*Y186000D01*
X101850Y192000D02*Y186750D01*
X102600Y186000D01*
X104100Y192000D02*Y186750D01*
X104850Y186000D01*
X109800D02*X112050D01*
X112800Y186750D01*
X112050Y187500D02*X112800Y186750D01*
X109800Y187500D02*X112050D01*
X109050Y188250D02*X109800Y187500D01*
X109050Y188250D02*X109800Y189000D01*
X112050D01*
X112800Y188250D01*
X109050Y186750D02*X109800Y186000D01*
G54D84*X114600Y190500D02*Y190350D01*
G54D83*Y188250D02*Y186000D01*
X116100Y189000D02*X119100D01*
X116100Y186000D02*X119100Y189000D01*
X116100Y186000D02*X119100D01*
X121650D02*X123900D01*
X120900Y186750D02*X121650Y186000D01*
X120900Y188250D02*Y186750D01*
Y188250D02*X121650Y189000D01*
X123150D01*
X123900Y188250D01*
X120900Y187500D02*X123900D01*
Y188250D02*Y187500D01*
X126450Y186000D02*X128700D01*
X129450Y186750D01*
X128700Y187500D02*X129450Y186750D01*
X126450Y187500D02*X128700D01*
X125700Y188250D02*X126450Y187500D01*
X125700Y188250D02*X126450Y189000D01*
X128700D01*
X129450Y188250D01*
X125700Y186750D02*X126450Y186000D01*
X133950Y189000D02*Y186750D01*
X134700Y186000D01*
X136200D01*
X136950Y186750D01*
Y189000D02*Y186750D01*
X139500Y186000D02*X141750D01*
X142500Y186750D01*
X141750Y187500D02*X142500Y186750D01*
X139500Y187500D02*X141750D01*
X138750Y188250D02*X139500Y187500D01*
X138750Y188250D02*X139500Y189000D01*
X141750D01*
X142500Y188250D01*
X138750Y186750D02*X139500Y186000D01*
X145050D02*X147300D01*
X144300Y186750D02*X145050Y186000D01*
X144300Y188250D02*Y186750D01*
Y188250D02*X145050Y189000D01*
X146550D01*
X147300Y188250D01*
X144300Y187500D02*X147300D01*
Y188250D02*Y187500D01*
X152100Y192000D02*Y186000D01*
X151350D02*X152100Y186750D01*
X149850Y186000D02*X151350D01*
X149100Y186750D02*X149850Y186000D01*
X149100Y188250D02*Y186750D01*
Y188250D02*X149850Y189000D01*
X151350D01*
X152100Y188250D01*
G54D84*X156600Y190500D02*Y190350D01*
G54D83*Y188250D02*Y186000D01*
X158850Y188250D02*Y186000D01*
Y188250D02*X159600Y189000D01*
X160350D01*
X161100Y188250D01*
Y186000D01*
X158100Y189000D02*X158850Y188250D01*
X166350Y192000D02*Y186750D01*
X167100Y186000D01*
X165600Y189750D02*X167100D01*
X168600Y192000D02*Y186000D01*
Y188250D02*X169350Y189000D01*
X170850D01*
X171600Y188250D01*
Y186000D01*
G54D84*X173400Y190500D02*Y190350D01*
G54D83*Y188250D02*Y186000D01*
X175650D02*X177900D01*
X178650Y186750D01*
X177900Y187500D02*X178650Y186750D01*
X175650Y187500D02*X177900D01*
X174900Y188250D02*X175650Y187500D01*
X174900Y188250D02*X175650Y189000D01*
X177900D01*
X178650Y188250D01*
X174900Y186750D02*X175650Y186000D01*
X183150Y192000D02*Y186750D01*
X183900Y186000D01*
X187650Y189000D02*X188400Y188250D01*
X186150Y189000D02*X187650D01*
X185400Y188250D02*X186150Y189000D01*
X185400Y188250D02*Y186750D01*
X186150Y186000D01*
X188400Y189000D02*Y186750D01*
X189150Y186000D01*
X186150D02*X187650D01*
X188400Y186750D01*
X190950Y189000D02*Y186750D01*
X191700Y186000D01*
X193950Y189000D02*Y184500D01*
X193200Y183750D02*X193950Y184500D01*
X191700Y183750D02*X193200D01*
X190950Y184500D02*X191700Y183750D01*
Y186000D02*X193200D01*
X193950Y186750D01*
X195750Y188250D02*Y186750D01*
Y188250D02*X196500Y189000D01*
X198000D01*
X198750Y188250D01*
Y186750D01*
X198000Y186000D02*X198750Y186750D01*
X196500Y186000D02*X198000D01*
X195750Y186750D02*X196500Y186000D01*
X200550Y189000D02*Y186750D01*
X201300Y186000D01*
X202800D01*
X203550Y186750D01*
Y189000D02*Y186750D01*
X206100Y192000D02*Y186750D01*
X206850Y186000D01*
X205350Y189750D02*X206850D01*
X208350Y184500D02*X209850Y186000D01*
X216600Y192000D02*X217350Y191250D01*
X215100Y192000D02*X216600D01*
X214350Y191250D02*X215100Y192000D01*
X214350Y191250D02*Y186750D01*
X215100Y186000D01*
X216600Y189300D02*X217350Y188550D01*
X214350Y189300D02*X216600D01*
X215100Y186000D02*X216600D01*
X217350Y186750D01*
Y188550D02*Y186750D01*
X219150Y192000D02*X222150D01*
X219150D02*Y189000D01*
X219900Y189750D01*
X221400D01*
X222150Y189000D01*
Y186750D01*
X221400Y186000D02*X222150Y186750D01*
X219900Y186000D02*X221400D01*
X219150Y186750D02*X219900Y186000D01*
X226650Y192000D02*Y186000D01*
Y188250D02*X227400Y189000D01*
X228900D01*
X229650Y188250D01*
Y186000D01*
X231450Y188250D02*Y186750D01*
Y188250D02*X232200Y189000D01*
X233700D01*
X234450Y188250D01*
Y186750D01*
X233700Y186000D02*X234450Y186750D01*
X232200Y186000D02*X233700D01*
X231450Y186750D02*X232200Y186000D01*
X236250Y192000D02*Y186750D01*
X237000Y186000D01*
X239250D02*X241500D01*
X238500Y186750D02*X239250Y186000D01*
X238500Y188250D02*Y186750D01*
Y188250D02*X239250Y189000D01*
X240750D01*
X241500Y188250D01*
X238500Y187500D02*X241500D01*
Y188250D02*Y187500D01*
X244050Y186000D02*X246300D01*
X247050Y186750D01*
X246300Y187500D02*X247050Y186750D01*
X244050Y187500D02*X246300D01*
X243300Y188250D02*X244050Y187500D01*
X243300Y188250D02*X244050Y189000D01*
X246300D01*
X247050Y188250D01*
X243300Y186750D02*X244050Y186000D01*
X252300Y192000D02*Y186750D01*
X253050Y186000D01*
X251550Y189750D02*X253050D01*
X254550Y188250D02*Y186750D01*
Y188250D02*X255300Y189000D01*
X256800D01*
X257550Y188250D01*
Y186750D01*
X256800Y186000D02*X257550Y186750D01*
X255300Y186000D02*X256800D01*
X254550Y186750D02*X255300Y186000D01*
X260100Y192000D02*Y186750D01*
X260850Y186000D01*
X259350Y189750D02*X260850D01*
X264600Y189000D02*X265350Y188250D01*
X263100Y189000D02*X264600D01*
X262350Y188250D02*X263100Y189000D01*
X262350Y188250D02*Y186750D01*
X263100Y186000D01*
X265350Y189000D02*Y186750D01*
X266100Y186000D01*
X263100D02*X264600D01*
X265350Y186750D01*
X267900Y192000D02*Y186750D01*
X268650Y186000D01*
G54D85*X508Y457D02*X170008D01*
Y72957D01*
X508D01*
Y457D01*
G54D83*X0Y-9500D02*X3000D01*
X3750Y-8750D01*
Y-6950D02*Y-8750D01*
X3000Y-6200D02*X3750Y-6950D01*
X750Y-6200D02*X3000D01*
X750Y-3500D02*Y-9500D01*
X0Y-3500D02*X3000D01*
X3750Y-4250D01*
Y-5450D01*
X3000Y-6200D02*X3750Y-5450D01*
X5550Y-7250D02*Y-8750D01*
Y-7250D02*X6300Y-6500D01*
X7800D01*
X8550Y-7250D01*
Y-8750D01*
X7800Y-9500D02*X8550Y-8750D01*
X6300Y-9500D02*X7800D01*
X5550Y-8750D02*X6300Y-9500D01*
X12600Y-6500D02*X13350Y-7250D01*
X11100Y-6500D02*X12600D01*
X10350Y-7250D02*X11100Y-6500D01*
X10350Y-7250D02*Y-8750D01*
X11100Y-9500D01*
X13350Y-6500D02*Y-8750D01*
X14100Y-9500D01*
X11100D02*X12600D01*
X13350Y-8750D01*
X16650Y-7250D02*Y-9500D01*
Y-7250D02*X17400Y-6500D01*
X18900D01*
X15900D02*X16650Y-7250D01*
X23700Y-3500D02*Y-9500D01*
X22950D02*X23700Y-8750D01*
X21450Y-9500D02*X22950D01*
X20700Y-8750D02*X21450Y-9500D01*
X20700Y-7250D02*Y-8750D01*
Y-7250D02*X21450Y-6500D01*
X22950D01*
X23700Y-7250D01*
X28200D02*Y-8750D01*
Y-7250D02*X28950Y-6500D01*
X30450D01*
X31200Y-7250D01*
Y-8750D01*
X30450Y-9500D02*X31200Y-8750D01*
X28950Y-9500D02*X30450D01*
X28200Y-8750D02*X28950Y-9500D01*
X33000Y-6500D02*Y-8750D01*
X33750Y-9500D01*
X35250D01*
X36000Y-8750D01*
Y-6500D02*Y-8750D01*
X38550Y-3500D02*Y-8750D01*
X39300Y-9500D01*
X37800Y-5750D02*X39300D01*
X40800Y-3500D02*Y-8750D01*
X41550Y-9500D01*
G54D84*X43050Y-5000D02*Y-5150D01*
G54D83*Y-7250D02*Y-9500D01*
X45300Y-7250D02*Y-9500D01*
Y-7250D02*X46050Y-6500D01*
X46800D01*
X47550Y-7250D01*
Y-9500D01*
X44550Y-6500D02*X45300Y-7250D01*
X50100Y-9500D02*X52350D01*
X49350Y-8750D02*X50100Y-9500D01*
X49350Y-7250D02*Y-8750D01*
Y-7250D02*X50100Y-6500D01*
X51600D01*
X52350Y-7250D01*
X49350Y-8000D02*X52350D01*
Y-7250D02*Y-8000D01*
G54D84*X56850Y-5000D02*Y-5150D01*
G54D83*Y-7250D02*Y-9500D01*
X59100D02*X61350D01*
X62100Y-8750D01*
X61350Y-8000D02*X62100Y-8750D01*
X59100Y-8000D02*X61350D01*
X58350Y-7250D02*X59100Y-8000D01*
X58350Y-7250D02*X59100Y-6500D01*
X61350D01*
X62100Y-7250D01*
X58350Y-8750D02*X59100Y-9500D01*
X67350Y-3500D02*Y-8750D01*
X68100Y-9500D01*
X66600Y-5750D02*X68100D01*
X69600Y-3500D02*Y-9500D01*
Y-7250D02*X70350Y-6500D01*
X71850D01*
X72600Y-7250D01*
Y-9500D01*
X75150D02*X77400D01*
X74400Y-8750D02*X75150Y-9500D01*
X74400Y-7250D02*Y-8750D01*
Y-7250D02*X75150Y-6500D01*
X76650D01*
X77400Y-7250D01*
X74400Y-8000D02*X77400D01*
Y-7250D02*Y-8000D01*
X82650Y-6500D02*X84900D01*
X81900Y-7250D02*X82650Y-6500D01*
X81900Y-7250D02*Y-8750D01*
X82650Y-9500D01*
X84900D01*
X87450D02*X89700D01*
X86700Y-8750D02*X87450Y-9500D01*
X86700Y-7250D02*Y-8750D01*
Y-7250D02*X87450Y-6500D01*
X88950D01*
X89700Y-7250D01*
X86700Y-8000D02*X89700D01*
Y-7250D02*Y-8000D01*
X92250Y-7250D02*Y-9500D01*
Y-7250D02*X93000Y-6500D01*
X93750D01*
X94500Y-7250D01*
Y-9500D01*
X91500Y-6500D02*X92250Y-7250D01*
X97050Y-3500D02*Y-8750D01*
X97800Y-9500D01*
X96300Y-5750D02*X97800D01*
X100050Y-9500D02*X102300D01*
X99300Y-8750D02*X100050Y-9500D01*
X99300Y-7250D02*Y-8750D01*
Y-7250D02*X100050Y-6500D01*
X101550D01*
X102300Y-7250D01*
X99300Y-8000D02*X102300D01*
Y-7250D02*Y-8000D01*
X104850Y-7250D02*Y-9500D01*
Y-7250D02*X105600Y-6500D01*
X107100D01*
X104100D02*X104850Y-7250D01*
X108900Y-3500D02*Y-8750D01*
X109650Y-9500D01*
G54D84*X111150Y-5000D02*Y-5150D01*
G54D83*Y-7250D02*Y-9500D01*
X113400Y-7250D02*Y-9500D01*
Y-7250D02*X114150Y-6500D01*
X114900D01*
X115650Y-7250D01*
Y-9500D01*
X112650Y-6500D02*X113400Y-7250D01*
X118200Y-9500D02*X120450D01*
X117450Y-8750D02*X118200Y-9500D01*
X117450Y-7250D02*Y-8750D01*
Y-7250D02*X118200Y-6500D01*
X119700D01*
X120450Y-7250D01*
X117450Y-8000D02*X120450D01*
Y-7250D02*Y-8000D01*
X124950Y-7250D02*Y-8750D01*
Y-7250D02*X125700Y-6500D01*
X127200D01*
X127950Y-7250D01*
Y-8750D01*
X127200Y-9500D02*X127950Y-8750D01*
X125700Y-9500D02*X127200D01*
X124950Y-8750D02*X125700Y-9500D01*
X130500Y-4250D02*Y-9500D01*
Y-4250D02*X131250Y-3500D01*
X132000D01*
X129750Y-6500D02*X131250D01*
X136950Y-3500D02*Y-8750D01*
X137700Y-9500D01*
X136200Y-5750D02*X137700D01*
X139200Y-3500D02*Y-9500D01*
Y-7250D02*X139950Y-6500D01*
X141450D01*
X142200Y-7250D01*
Y-9500D01*
G54D84*X144000Y-5000D02*Y-5150D01*
G54D83*Y-7250D02*Y-9500D01*
X146250D02*X148500D01*
X149250Y-8750D01*
X148500Y-8000D02*X149250Y-8750D01*
X146250Y-8000D02*X148500D01*
X145500Y-7250D02*X146250Y-8000D01*
X145500Y-7250D02*X146250Y-6500D01*
X148500D01*
X149250Y-7250D01*
X145500Y-8750D02*X146250Y-9500D01*
X154500Y-7250D02*Y-11750D01*
X153750Y-6500D02*X154500Y-7250D01*
X155250Y-6500D01*
X156750D01*
X157500Y-7250D01*
Y-8750D01*
X156750Y-9500D02*X157500Y-8750D01*
X155250Y-9500D02*X156750D01*
X154500Y-8750D02*X155250Y-9500D01*
X161550Y-6500D02*X162300Y-7250D01*
X160050Y-6500D02*X161550D01*
X159300Y-7250D02*X160050Y-6500D01*
X159300Y-7250D02*Y-8750D01*
X160050Y-9500D01*
X162300Y-6500D02*Y-8750D01*
X163050Y-9500D01*
X160050D02*X161550D01*
X162300Y-8750D01*
X165600Y-3500D02*Y-8750D01*
X166350Y-9500D01*
X164850Y-5750D02*X166350D01*
X167850Y-3500D02*Y-9500D01*
Y-7250D02*X168600Y-6500D01*
X170100D01*
X170850Y-7250D01*
Y-9500D01*
X200750Y102000D02*Y96000D01*
X202700Y102000D02*X203750Y100950D01*
Y97050D01*
X202700Y96000D02*X203750Y97050D01*
X200000Y96000D02*X202700D01*
X200000Y102000D02*X202700D01*
X207800Y99000D02*X208550Y98250D01*
X206300Y99000D02*X207800D01*
X205550Y98250D02*X206300Y99000D01*
X205550Y98250D02*Y96750D01*
X206300Y96000D01*
X208550Y99000D02*Y96750D01*
X209300Y96000D01*
X206300D02*X207800D01*
X208550Y96750D01*
X211850Y102000D02*Y96750D01*
X212600Y96000D01*
X211100Y99750D02*X212600D01*
X214850Y96000D02*X217100D01*
X214100Y96750D02*X214850Y96000D01*
X214100Y98250D02*Y96750D01*
Y98250D02*X214850Y99000D01*
X216350D01*
X217100Y98250D01*
X214100Y97500D02*X217100D01*
Y98250D02*Y97500D01*
X218900Y99750D02*X219650D01*
X218900Y98250D02*X219650D01*
X224150Y102000D02*Y96000D01*
Y102000D02*X227150D01*
X224150Y99300D02*X226400D01*
X229700Y98250D02*Y96000D01*
Y98250D02*X230450Y99000D01*
X231950D01*
X228950D02*X229700Y98250D01*
G54D84*X233750Y100500D02*Y100350D01*
G54D83*Y98250D02*Y96000D01*
X237950Y100800D02*X239150Y102000D01*
Y96000D01*
X237950D02*X240200D01*
X242000Y98250D02*X245000Y102000D01*
X242000Y98250D02*X245750D01*
X245000Y102000D02*Y96000D01*
X250250Y102000D02*Y96000D01*
Y102000D02*X254000Y96000D01*
Y102000D02*Y96000D01*
X255800Y98250D02*Y96750D01*
Y98250D02*X256550Y99000D01*
X258050D01*
X258800Y98250D01*
Y96750D01*
X258050Y96000D02*X258800Y96750D01*
X256550Y96000D02*X258050D01*
X255800Y96750D02*X256550Y96000D01*
X260600Y99000D02*X262100Y96000D01*
X263600Y99000D02*X262100Y96000D01*
X268100Y101250D02*X268850Y102000D01*
X271100D01*
X271850Y101250D01*
Y99750D01*
X268100Y96000D02*X271850Y99750D01*
X268100Y96000D02*X271850D01*
X273650Y96750D02*X274400Y96000D01*
X273650Y101250D02*Y96750D01*
Y101250D02*X274400Y102000D01*
X275900D01*
X276650Y101250D01*
Y96750D01*
X275900Y96000D02*X276650Y96750D01*
X274400Y96000D02*X275900D01*
X273650Y97500D02*X276650Y100500D01*
X278450Y100800D02*X279650Y102000D01*
Y96000D01*
X278450D02*X280700D01*
X282500Y98250D02*X285500Y102000D01*
X282500Y98250D02*X286250D01*
X285500Y102000D02*Y96000D01*
X290750Y96750D02*X291500Y96000D01*
X290750Y101250D02*Y96750D01*
Y101250D02*X291500Y102000D01*
X293000D01*
X293750Y101250D01*
Y96750D01*
X293000Y96000D02*X293750Y96750D01*
X291500Y96000D02*X293000D01*
X290750Y97500D02*X293750Y100500D01*
X296300Y96000D02*X299300Y102000D01*
X295550D02*X299300D01*
X301100Y99750D02*X301850D01*
X301100Y98250D02*X301850D01*
X303650Y101250D02*X304400Y102000D01*
X305900D01*
X306650Y101250D01*
X305900Y96000D02*X306650Y96750D01*
X304400Y96000D02*X305900D01*
X303650Y96750D02*X304400Y96000D01*
Y99300D02*X305900D01*
X306650Y101250D02*Y100050D01*
Y98550D02*Y96750D01*
Y98550D02*X305900Y99300D01*
X306650Y100050D02*X305900Y99300D01*
X308450Y96750D02*X309200Y96000D01*
X308450Y97950D02*Y96750D01*
Y97950D02*X309500Y99000D01*
X310400D01*
X311450Y97950D01*
Y96750D01*
X310700Y96000D02*X311450Y96750D01*
X309200Y96000D02*X310700D01*
X308450Y100050D02*X309500Y99000D01*
X308450Y101250D02*Y100050D01*
Y101250D02*X309200Y102000D01*
X310700D01*
X311450Y101250D01*
Y100050D01*
X310400Y99000D02*X311450Y100050D01*
X313250Y99750D02*X314000D01*
X313250Y98250D02*X314000D01*
X315800Y100800D02*X317000Y102000D01*
Y96000D01*
X315800D02*X318050D01*
X319850Y101250D02*X320600Y102000D01*
X322850D01*
X323600Y101250D01*
Y99750D01*
X319850Y96000D02*X323600Y99750D01*
X319850Y96000D02*X323600D01*
X328850Y102000D02*Y96000D01*
X328100Y102000D02*X331100D01*
X331850Y101250D01*
Y99750D01*
X331100Y99000D02*X331850Y99750D01*
X328850Y99000D02*X331100D01*
X333650Y102000D02*Y96000D01*
Y102000D02*X335900Y99000D01*
X338150Y102000D01*
Y96000D01*
X345650Y102000D02*X346400Y101250D01*
X343400Y102000D02*X345650D01*
X342650Y101250D02*X343400Y102000D01*
X342650Y101250D02*Y96750D01*
X343400Y96000D01*
X345650D01*
X346400Y96750D01*
Y98250D02*Y96750D01*
X345650Y99000D02*X346400Y98250D01*
X344150Y99000D02*X345650D01*
X348200Y102000D02*Y96000D01*
Y102000D02*X350450Y99000D01*
X352700Y102000D01*
Y96000D01*
X354500Y102000D02*X357500D01*
X356000D02*Y96000D01*
X362000Y102000D02*Y96750D01*
X362750Y96000D01*
X364250D01*
X365000Y96750D01*
Y102000D02*Y96750D01*
X366800Y102000D02*X369800D01*
X368300D02*Y96000D01*
X372650D02*X374600D01*
X371600Y97050D02*X372650Y96000D01*
X371600Y100950D02*Y97050D01*
Y100950D02*X372650Y102000D01*
X374600D01*
X200000Y115500D02*Y111000D01*
Y115500D02*X201050Y117000D01*
X202700D01*
X203750Y115500D01*
Y111000D01*
X200000Y114000D02*X203750D01*
X205550D02*Y111750D01*
X206300Y111000D01*
X207800D01*
X208550Y111750D01*
Y114000D02*Y111750D01*
X211100Y117000D02*Y111750D01*
X211850Y111000D01*
X210350Y114750D02*X211850D01*
X213350Y117000D02*Y111000D01*
Y113250D02*X214100Y114000D01*
X215600D01*
X216350Y113250D01*
Y111000D01*
X218150Y113250D02*Y111750D01*
Y113250D02*X218900Y114000D01*
X220400D01*
X221150Y113250D01*
Y111750D01*
X220400Y111000D02*X221150Y111750D01*
X218900Y111000D02*X220400D01*
X218150Y111750D02*X218900Y111000D01*
X223700Y113250D02*Y111000D01*
Y113250D02*X224450Y114000D01*
X225950D01*
X222950D02*X223700Y113250D01*
X227750Y114750D02*X228500D01*
X227750Y113250D02*X228500D01*
X200000Y132000D02*X203000D01*
X201500D02*Y126000D01*
G54D84*X204800Y130500D02*Y130350D01*
G54D83*Y128250D02*Y126000D01*
X207050Y132000D02*Y126750D01*
X207800Y126000D01*
X206300Y129750D02*X207800D01*
X209300Y132000D02*Y126750D01*
X210050Y126000D01*
X212300D02*X214550D01*
X211550Y126750D02*X212300Y126000D01*
X211550Y128250D02*Y126750D01*
Y128250D02*X212300Y129000D01*
X213800D01*
X214550Y128250D01*
X211550Y127500D02*X214550D01*
Y128250D02*Y127500D01*
X216350Y129750D02*X217100D01*
X216350Y128250D02*X217100D01*
X221600Y126750D02*X222350Y126000D01*
X221600Y131250D02*X222350Y132000D01*
X221600Y131250D02*Y126750D01*
X224150Y129000D02*Y126750D01*
X224900Y126000D01*
X226400D01*
X227150Y126750D01*
Y129000D02*Y126750D01*
X229700Y128250D02*Y126000D01*
Y128250D02*X230450Y129000D01*
X231200D01*
X231950Y128250D01*
Y126000D01*
X228950Y129000D02*X229700Y128250D01*
X233750Y132000D02*Y126000D01*
Y128250D02*X236000Y126000D01*
X233750Y128250D02*X235250Y129750D01*
X238550Y128250D02*Y126000D01*
Y128250D02*X239300Y129000D01*
X240050D01*
X240800Y128250D01*
Y126000D01*
X237800Y129000D02*X238550Y128250D01*
X242600D02*Y126750D01*
Y128250D02*X243350Y129000D01*
X244850D01*
X245600Y128250D01*
Y126750D01*
X244850Y126000D02*X245600Y126750D01*
X243350Y126000D02*X244850D01*
X242600Y126750D02*X243350Y126000D01*
X247400Y129000D02*Y126750D01*
X248150Y126000D01*
X248900D01*
X249650Y126750D01*
Y129000D02*Y126750D01*
X250400Y126000D01*
X251150D01*
X251900Y126750D01*
Y129000D02*Y126750D01*
X254450Y128250D02*Y126000D01*
Y128250D02*X255200Y129000D01*
X255950D01*
X256700Y128250D01*
Y126000D01*
X253700Y129000D02*X254450Y128250D01*
X258500Y132000D02*X259250Y131250D01*
Y126750D01*
X258500Y126000D02*X259250Y126750D01*
X263750Y129000D02*X266750D01*
X271250Y132000D02*Y126000D01*
Y132000D02*X274250D01*
X271250Y129300D02*X273500D01*
X278300Y129000D02*X279050Y128250D01*
X276800Y129000D02*X278300D01*
X276050Y128250D02*X276800Y129000D01*
X276050Y128250D02*Y126750D01*
X276800Y126000D01*
X279050Y129000D02*Y126750D01*
X279800Y126000D01*
X276800D02*X278300D01*
X279050Y126750D01*
X281600Y132000D02*Y126000D01*
Y126750D02*X282350Y126000D01*
X283850D01*
X284600Y126750D01*
Y128250D02*Y126750D01*
X283850Y129000D02*X284600Y128250D01*
X282350Y129000D02*X283850D01*
X281600Y128250D02*X282350Y129000D01*
X287150Y128250D02*Y126000D01*
Y128250D02*X287900Y129000D01*
X289400D01*
X286400D02*X287150Y128250D01*
G54D84*X291200Y130500D02*Y130350D01*
G54D83*Y128250D02*Y126000D01*
X293450Y129000D02*X295700D01*
X292700Y128250D02*X293450Y129000D01*
X292700Y128250D02*Y126750D01*
X293450Y126000D01*
X295700D01*
X299750Y129000D02*X300500Y128250D01*
X298250Y129000D02*X299750D01*
X297500Y128250D02*X298250Y129000D01*
X297500Y128250D02*Y126750D01*
X298250Y126000D01*
X300500Y129000D02*Y126750D01*
X301250Y126000D01*
X298250D02*X299750D01*
X300500Y126750D01*
X303800Y132000D02*Y126750D01*
X304550Y126000D01*
X303050Y129750D02*X304550D01*
G54D84*X306050Y130500D02*Y130350D01*
G54D83*Y128250D02*Y126000D01*
X307550Y128250D02*Y126750D01*
Y128250D02*X308300Y129000D01*
X309800D01*
X310550Y128250D01*
Y126750D01*
X309800Y126000D02*X310550Y126750D01*
X308300Y126000D02*X309800D01*
X307550Y126750D02*X308300Y126000D01*
X313100Y128250D02*Y126000D01*
Y128250D02*X313850Y129000D01*
X314600D01*
X315350Y128250D01*
Y126000D01*
X312350Y129000D02*X313100Y128250D01*
X320600Y132000D02*Y126000D01*
X322550Y132000D02*X323600Y130950D01*
Y127050D01*
X322550Y126000D02*X323600Y127050D01*
X319850Y126000D02*X322550D01*
X319850Y132000D02*X322550D01*
X326150Y128250D02*Y126000D01*
Y128250D02*X326900Y129000D01*
X328400D01*
X325400D02*X326150Y128250D01*
X332450Y129000D02*X333200Y128250D01*
X330950Y129000D02*X332450D01*
X330200Y128250D02*X330950Y129000D01*
X330200Y128250D02*Y126750D01*
X330950Y126000D01*
X333200Y129000D02*Y126750D01*
X333950Y126000D01*
X330950D02*X332450D01*
X333200Y126750D01*
X335750Y129000D02*Y126750D01*
X336500Y126000D01*
X337250D01*
X338000Y126750D01*
Y129000D02*Y126750D01*
X338750Y126000D01*
X339500D01*
X340250Y126750D01*
Y129000D02*Y126750D01*
G54D84*X342050Y130500D02*Y130350D01*
G54D83*Y128250D02*Y126000D01*
X344300Y128250D02*Y126000D01*
Y128250D02*X345050Y129000D01*
X345800D01*
X346550Y128250D01*
Y126000D01*
X343550Y129000D02*X344300Y128250D01*
X350600Y129000D02*X351350Y128250D01*
X349100Y129000D02*X350600D01*
X348350Y128250D02*X349100Y129000D01*
X348350Y128250D02*Y126750D01*
X349100Y126000D01*
X350600D01*
X351350Y126750D01*
X348350Y124500D02*X349100Y123750D01*
X350600D01*
X351350Y124500D01*
Y129000D02*Y124500D01*
M02*
