G04 start of page 7 for group -4062 idx -4062 *
G04 Title: (unknown), soldermask *
G04 Creator: pcb 1.99z *
G04 CreationDate: Fri 14 Nov 2014 07:38:12 PM GMT UTC *
G04 For: commonadmin *
G04 Format: Gerber/RS-274X *
G04 PCB-Dimensions (mil): 1705.00 735.00 *
G04 PCB-Coordinate-Origin: lower left *
%MOIN*%
%FSLAX25Y25*%
%LNBOTTOMMASK*%
%ADD67R,0.0200X0.0200*%
%ADD66C,0.0200*%
%ADD65C,0.0660*%
%ADD64C,0.1180*%
%ADD63C,0.1000*%
%ADD62C,0.0001*%
%ADD61C,0.0887*%
%ADD60C,0.1536*%
%ADD59C,0.0851*%
G54D59*X102508Y48957D03*
Y38957D03*
Y28957D03*
Y18957D03*
X112508Y53957D03*
Y43957D03*
Y33957D03*
Y23957D03*
G54D60*X137508Y58957D03*
Y13957D03*
G54D61*X149516Y67500D03*
Y5492D03*
G54D59*X67508Y38957D03*
Y28957D03*
Y18957D03*
X57508Y33957D03*
Y23957D03*
X67508Y48957D03*
X57508Y53957D03*
Y43957D03*
G54D62*G36*
X70000Y11500D02*Y1500D01*
X80000D01*
Y11500D01*
X70000D01*
G37*
G54D63*X85000Y6500D03*
X95000D03*
G54D62*G36*
X69100Y71900D02*Y60100D01*
X80900D01*
Y71900D01*
X69100D01*
G37*
G54D64*X85000Y66000D03*
X95000D03*
G54D60*X32508Y58957D03*
G54D65*X19008Y53957D03*
G54D60*X32508Y13957D03*
G54D61*X20500Y67500D03*
Y5492D03*
G54D62*G36*
X5208Y16257D02*Y9657D01*
X11808D01*
Y16257D01*
X5208D01*
G37*
G36*
X5708Y57257D02*Y50657D01*
X12308D01*
Y57257D01*
X5708D01*
G37*
G54D65*X9008Y43957D03*
X19008D03*
X9008Y33957D03*
X19008D03*
X9008Y23957D03*
X19008D03*
G54D66*X74908Y55957D02*X77908D01*
X78608Y55257D01*
G54D67*X79108D01*
G54D66*X77008Y55357D02*X77608Y55957D01*
X76408D02*X77008Y55357D01*
X74208Y55257D02*X74908Y55957D01*
G54D67*X72708Y55257D02*X74208D01*
G54D66*X75208Y55957D02*X75808Y55357D01*
X76408Y55957D01*
X78008Y53357D02*X78608Y53957D01*
G54D67*X79108D01*
G54D66*X74908Y45957D02*X77908D01*
X78608Y45257D01*
G54D67*X79108D01*
G54D66*X77008Y45357D02*X77608Y45957D01*
X76408D02*X77008Y45357D01*
X74208Y45257D02*X74908Y45957D01*
G54D67*X72708Y45257D02*X74208D01*
G54D66*X75208Y45957D02*X75808Y45357D01*
X76408Y45957D01*
X74908Y43357D02*X78008D01*
X74908D02*X75108D01*
X78008D02*X78608Y43957D01*
G54D67*X79108D01*
G54D66*X74308D02*X74908Y43357D01*
X75108D02*X75808Y44057D01*
X76508Y43357D01*
X76308D02*X77008Y44057D01*
X77708Y43357D01*
G54D67*X72708Y43957D02*X74308D01*
G54D66*X74908Y53357D02*X78008D01*
X74908D02*X75108D01*
X74308Y53957D02*X74908Y53357D01*
G54D67*X72708Y53957D02*X74308D01*
G54D66*X75108Y53357D02*X75808Y54057D01*
X76508Y53357D01*
X76308D02*X77008Y54057D01*
X77708Y53357D01*
X74908Y50957D02*X77908D01*
X78608Y50257D01*
G54D67*X79108D01*
G54D66*X77008Y50357D02*X77608Y50957D01*
X76408D02*X77008Y50357D01*
X74208Y50257D02*X74908Y50957D01*
G54D67*X72708Y50257D02*X74208D01*
G54D66*X75208Y50957D02*X75808Y50357D01*
X76408Y50957D01*
X74308Y48957D02*X74908Y48357D01*
G54D67*X72708Y48957D02*X74308D01*
G54D66*X75108Y48357D02*X75808Y49057D01*
X74908Y48357D02*X75108D01*
X78008D02*X78608Y48957D01*
G54D67*X79108D01*
G54D66*X74908Y48357D02*X78008D01*
X75808Y49057D02*X76508Y48357D01*
X76308D02*X77008Y49057D01*
X77708Y48357D01*
X74208Y20257D02*X74908Y20957D01*
G54D67*X72708Y20257D02*X74208D01*
G54D66*X77908Y20957D02*X78608Y20257D01*
G54D67*X79108D01*
G54D66*X74908Y20957D02*X77908D01*
X75208D02*X75808Y20357D01*
X76408Y20957D01*
X77008Y20357D02*X77608Y20957D01*
X76408D02*X77008Y20357D01*
X74908Y18357D02*X78008D01*
X74908D02*X75108D01*
X78008D02*X78608Y18957D01*
G54D67*X79108D01*
G54D66*X74308D02*X74908Y18357D01*
G54D67*X72708Y18957D02*X74308D01*
G54D66*X75108Y18357D02*X75808Y19057D01*
X76508Y18357D01*
X76308D02*X77008Y19057D01*
X77708Y18357D01*
X74908Y25957D02*X77908D01*
X78608Y25257D01*
X75208Y25957D02*X75808Y25357D01*
X76408Y25957D01*
X77008Y25357D02*X77608Y25957D01*
X76408D02*X77008Y25357D01*
G54D67*X78608Y25257D02*X79108D01*
G54D66*X78008Y23357D02*X78608Y23957D01*
G54D67*X79108D01*
G54D66*X77008Y24057D02*X77708Y23357D01*
X74208Y25257D02*X74908Y25957D01*
G54D67*X72708Y25257D02*X74208D01*
G54D66*X74308Y23957D02*X74908Y23357D01*
G54D67*X72708Y23957D02*X74308D01*
G54D66*X75108Y23357D02*X75808Y24057D01*
X74908Y23357D02*X75108D01*
X74908D02*X78008D01*
X75808Y24057D02*X76508Y23357D01*
X76308D02*X77008Y24057D01*
X74208Y40257D02*X74908Y40957D01*
G54D67*X72708Y40257D02*X74208D01*
G54D66*X77908Y40957D02*X78608Y40257D01*
G54D67*X79108D01*
G54D66*X74908Y40957D02*X77908D01*
X75208D02*X75808Y40357D01*
X76408Y40957D01*
X77008Y40357D02*X77608Y40957D01*
X76408D02*X77008Y40357D01*
X74308Y38957D02*X74908Y38357D01*
G54D67*X72708Y38957D02*X74308D01*
G54D66*X75108Y38357D02*X75808Y39057D01*
X76508Y38357D01*
X76308D02*X77008Y39057D01*
X77708Y38357D01*
X74208Y30257D02*X74908Y30957D01*
G54D67*X72708Y30257D02*X74208D01*
G54D66*X77908Y30957D02*X78608Y30257D01*
G54D67*X79108D01*
G54D66*X74908Y30957D02*X77908D01*
X75208D02*X75808Y30357D01*
X76408Y30957D01*
X77008Y30357D02*X77608Y30957D01*
X76408D02*X77008Y30357D01*
G54D67*X72708Y28957D02*X74308D01*
G54D66*X74908Y28357D01*
X75108D02*X75808Y29057D01*
X74908Y28357D02*X75108D01*
X78008D02*X78608Y28957D01*
G54D67*X79108D01*
G54D66*X74908Y28357D02*X78008D01*
X75808Y29057D02*X76508Y28357D01*
X76308D02*X77008Y29057D01*
X77708Y28357D01*
X74908Y38357D02*X78008D01*
X74908D02*X75108D01*
X78008D02*X78608Y38957D01*
G54D67*X79108D01*
G54D66*X74908Y35957D02*X77908D01*
X78608Y35257D01*
G54D67*X79108D01*
G54D66*X76408Y35957D02*X77008Y35357D01*
X74208Y35257D02*X74908Y35957D01*
G54D67*X72708Y35257D02*X74208D01*
G54D66*X75208Y35957D02*X75808Y35357D01*
X76408Y35957D01*
X77008Y35357D02*X77608Y35957D01*
X74308Y33957D02*X74908Y33357D01*
G54D67*X72708Y33957D02*X74308D01*
G54D66*X75108Y33357D02*X75808Y34057D01*
X74908Y33357D02*X75108D01*
X78008D02*X78608Y33957D01*
G54D67*X79108D01*
G54D66*X74908Y33357D02*X78008D01*
X75808Y34057D02*X76508Y33357D01*
X76308D02*X77008Y34057D01*
X77708Y33357D01*
M02*
