G04 start of page 8 for group -4079 idx -4079 *
G04 Title: (unknown), topsilk *
G04 Creator: pcb 1.99z *
G04 CreationDate: Fri 14 Nov 2014 07:38:12 PM GMT UTC *
G04 For: commonadmin *
G04 Format: Gerber/RS-274X *
G04 PCB-Dimensions (mil): 1705.00 735.00 *
G04 PCB-Coordinate-Origin: lower left *
%MOIN*%
%FSLAX25Y25*%
%LNTOPSILK*%
%ADD72C,0.0040*%
%ADD71C,0.0200*%
%ADD70C,0.0030*%
%ADD69C,0.0060*%
%ADD68C,0.0100*%
G54D68*X44538Y71527D02*X73514D01*
Y57747D01*
G54D69*X58357Y54558D02*X56782Y52983D01*
Y54558D02*X58357Y52983D01*
G54D68*X1073Y71527D02*Y1054D01*
Y71527D02*X44577D01*
X1073Y1054D02*X44577D01*
X73514Y15976D02*Y1054D01*
X44538D02*X73514D01*
Y58771D02*Y13771D01*
G54D70*X53060Y25395D02*X51560Y22395D01*
X53435D01*
X50660Y25020D02*X48410Y22770D01*
X47510Y23895D02*Y22395D01*
Y23895D02*X47135Y25395D01*
X46385Y23895D01*
X45635Y25395D01*
X45260Y23895D01*
Y22395D01*
X42860Y25395D02*X44360D01*
X42860D02*X42485Y25020D01*
Y24120D01*
X42860Y23745D02*X42485Y24120D01*
X42860Y23745D02*X43985D01*
Y25395D02*Y22395D01*
X42860D02*X44360D01*
X42860D02*X42485Y22770D01*
Y23370D02*Y22770D01*
X42860Y23745D02*X42485Y23370D01*
X41210Y25395D02*Y24270D01*
X40835Y23895D01*
X40085D02*X40835D01*
X41585D02*X41210Y24270D01*
X63278Y19902D02*X62903Y20277D01*
X63278Y19902D02*Y19302D01*
X62753Y18777D01*
X62303D02*X62753D01*
X62303D02*X61778Y19302D01*
Y19902D02*Y19302D01*
X62153Y20277D02*X61778Y19902D01*
X62153Y20277D02*X62903D01*
X63278Y18252D02*X62753Y18777D01*
X63278Y18252D02*Y17652D01*
X62903Y17277D01*
X62153D02*X62903D01*
X62153D02*X61778Y17652D01*
Y18252D02*Y17652D01*
X62303Y18777D02*X61778Y18252D01*
X60878Y19902D02*X58628Y17652D01*
X56228Y20277D02*X57728D01*
X56228D02*X55853Y19902D01*
Y19002D01*
X56228Y18627D02*X55853Y19002D01*
X56228Y18627D02*X57353D01*
Y20277D02*Y17277D01*
X56228D02*X57728D01*
X56228D02*X55853Y17652D01*
Y18252D02*Y17652D01*
X56228Y18627D02*X55853Y18252D01*
X54578Y20277D02*Y19152D01*
X54203Y18777D01*
X53453D02*X54203D01*
X54953D02*X54578Y19152D01*
X62153Y27513D02*X61778Y27888D01*
X62153Y27513D02*X62903D01*
X63278Y27888D02*X62903Y27513D01*
X63278Y30138D02*Y27888D01*
Y30138D02*X62903Y30513D01*
X62153Y28863D02*X61778Y29238D01*
X62153Y28863D02*X63278D01*
X62153Y30513D02*X62903D01*
X62153D02*X61778Y30138D01*
Y29238D01*
X60878Y30138D02*X58628Y27888D01*
X57728Y30138D02*Y27888D01*
X57353Y27513D01*
X56603D02*X57353D01*
X56603D02*X56228Y27888D01*
Y30138D02*Y27888D01*
X56603Y30513D02*X56228Y30138D01*
X56603Y30513D02*X57353D01*
X57728Y30138D02*X57353Y30513D01*
X51935Y31844D02*X53435D01*
Y33344D02*Y31844D01*
Y33344D02*X53060Y32969D01*
X52310D02*X53060D01*
X52310D02*X51935Y33344D01*
Y34469D02*Y33344D01*
X52310Y34844D02*X51935Y34469D01*
X52310Y34844D02*X53060D01*
X53435Y34469D02*X53060Y34844D01*
X51035Y34469D02*X48785Y32219D01*
X47885Y33344D02*Y31844D01*
Y33344D02*X47510Y34844D01*
X46760Y33344D01*
X46010Y34844D01*
X45635Y33344D01*
Y31844D01*
X43235Y34844D02*X44735D01*
X43235D02*X42860Y34469D01*
Y33569D01*
X43235Y33194D02*X42860Y33569D01*
X43235Y33194D02*X44360D01*
Y34844D02*Y31844D01*
X43235D02*X44735D01*
X43235D02*X42860Y32219D01*
Y32819D02*Y32219D01*
X43235Y33194D02*X42860Y32819D01*
X41960Y34469D02*Y31844D01*
Y34469D02*X41585Y34844D01*
X63672Y39231D02*X62172Y37356D01*
X61797Y39231D02*X63672D01*
X62172Y40356D02*Y37356D01*
X60897Y39981D02*X58647Y37731D01*
X56247Y40356D02*X57747D01*
X56247D02*X55872Y39981D01*
Y39081D01*
X56247Y38706D02*X55872Y39081D01*
X56247Y38706D02*X57372D01*
Y40356D02*Y37356D01*
X56247D02*X57747D01*
X56247D02*X55872Y37731D01*
Y38331D02*Y37731D01*
X56247Y38706D02*X55872Y38331D01*
X54972Y39981D02*Y37356D01*
Y39981D02*X54597Y40356D01*
X53435Y42455D02*X53060Y42080D01*
X52310D02*X53060D01*
X52310D02*X51935Y42455D01*
X52310Y45080D02*X51935Y44705D01*
X52310Y45080D02*X53060D01*
X53435Y44705D02*X53060Y45080D01*
X52310Y43430D02*X53060D01*
X51935Y43055D02*Y42455D01*
Y44705D02*Y43805D01*
X52310Y43430D01*
X51935Y43055D02*X52310Y43430D01*
X51035Y44705D02*X48785Y42455D01*
X47885Y43580D02*Y42080D01*
Y43580D02*X47510Y45080D01*
X46760Y43580D01*
X46010Y45080D01*
X45635Y43580D01*
Y42080D01*
X44735Y44705D02*Y42455D01*
X44360Y42080D01*
X43610D02*X44360D01*
X43610D02*X43235Y42455D01*
Y44705D02*Y42455D01*
X43610Y45080D02*X43235Y44705D01*
X43610Y45080D02*X44360D01*
X44735Y44705D02*X44360Y45080D01*
X65678Y67708D02*Y66208D01*
X62678Y66958D02*X65678D01*
Y65308D02*Y63808D01*
X64178Y65308D02*X65678D01*
X64178D02*X64553Y64933D01*
Y64183D01*
X64178Y63808D01*
X63053D02*X64178D01*
X62678Y64183D02*X63053Y63808D01*
X62678Y64933D02*Y64183D01*
X63053Y65308D02*X62678Y64933D01*
X65678Y61783D02*X65303Y61408D01*
X65678Y62533D02*Y61783D01*
X65303Y62908D02*X65678Y62533D01*
X63053Y62908D02*X65303D01*
X63053D02*X62678Y62533D01*
X64328Y61783D02*X63953Y61408D01*
X64328Y62908D02*Y61783D01*
X62678Y62533D02*Y61783D01*
X63053Y61408D01*
X63953D01*
X63053Y60508D02*X62678Y60133D01*
X63053Y60508D02*X63653D01*
X64178Y59983D01*
Y59533D01*
X63653Y59008D01*
X63053D02*X63653D01*
X62678Y59383D02*X63053Y59008D01*
X62678Y60133D02*Y59383D01*
X64703Y60508D02*X64178Y59983D01*
X64703Y60508D02*X65303D01*
X65678Y60133D01*
Y59383D01*
X65303Y59008D01*
X64703D02*X65303D01*
X64178Y59533D02*X64703Y59008D01*
X62678Y58108D02*X64928D01*
X65678Y57583D01*
Y56758D01*
X64928Y56233D01*
X62678D02*X64928D01*
X64178Y58108D02*Y56233D01*
X63672Y47573D02*X63297Y47198D01*
X62172D02*X63297D01*
X62172D02*X61797Y47573D01*
Y48323D02*Y47573D01*
X63672Y50198D02*X61797Y48323D01*
Y50198D02*X63672D01*
X60897Y49823D02*X58647Y47573D01*
X56247Y47198D02*X55872Y47573D01*
X56247Y47198D02*X57372D01*
X57747Y47573D02*X57372Y47198D01*
X57747Y49823D02*Y47573D01*
Y49823D02*X57372Y50198D01*
X56247D02*X57372D01*
X56247D02*X55872Y49823D01*
Y49073D01*
X56247Y48698D02*X55872Y49073D01*
X56247Y48698D02*X56997D01*
X53042Y52916D02*X52442Y52316D01*
Y55316D02*Y52316D01*
X51917Y55316D02*X53042D01*
X51017Y54941D02*X48767Y52691D01*
X47867Y53816D02*Y52316D01*
Y53816D02*X47492Y55316D01*
X46742Y53816D01*
X45992Y55316D01*
X45617Y53816D01*
Y52316D01*
X43217D02*X42842Y52691D01*
X43217Y52316D02*X44342D01*
X44717Y52691D02*X44342Y52316D01*
X44717Y54941D02*Y52691D01*
Y54941D02*X44342Y55316D01*
X43217D02*X44342D01*
X43217D02*X42842Y54941D01*
Y54191D01*
X43217Y53816D02*X42842Y54191D01*
X43217Y53816D02*X43967D01*
G54D68*X94908Y47857D02*Y38657D01*
Y34857D02*Y25557D01*
X83108D02*X94908D01*
X83108Y47857D02*Y25557D01*
Y47857D02*X94908D01*
Y38657D02*G75*G03X94908Y34857I0J-1900D01*G01*
G54D71*X75000Y1500D02*X95000D01*
X75000Y11500D02*X95000D01*
G54D68*X80000D02*Y1500D01*
G54D71*X75000Y11500D02*G75*G03X75000Y1500I0J-5000D01*G01*
X95000D02*G75*G03X95000Y11500I0J5000D01*G01*
G54D68*X73453Y58957D02*Y13957D01*
Y71713D02*Y57933D01*
X44476Y1240D02*X73453D01*
Y16161D02*Y1240D01*
X1012D02*X44516D01*
X44476Y71713D02*X73453D01*
X1012D02*X44516D01*
X1012D02*Y1240D01*
G54D71*X13508Y12957D03*
X3508D03*
G54D68*Y17957D02*X13508D01*
G54D71*X3508Y12957D02*G75*G03X13508Y12957I5000J0D01*G01*
G75*G03X3508Y12957I-5000J0D01*G01*
G54D68*X4008Y58957D02*Y18957D01*
X24008D01*
Y58957D01*
X4008D01*
Y48957D02*X14008D01*
Y58957D01*
G54D71*X75000Y61000D02*X95000D01*
X75000Y71000D02*X95000D01*
G54D68*X80000D02*Y61000D01*
G54D71*X75000Y71000D02*G75*G03X75000Y61000I0J-5000D01*G01*
X95000D02*G75*G03X95000Y71000I0J5000D01*G01*
G54D72*X93908Y51357D02*Y47857D01*
Y51357D02*X93408Y51857D01*
X92408D02*X93408D01*
X92408D02*X91908Y51357D01*
Y47857D01*
X90708Y48657D02*X89908Y47857D01*
Y51857D02*Y47857D01*
X89208Y51857D02*X90708D01*
X35808Y43057D02*Y41557D01*
X33608Y43057D02*Y41057D01*
Y43057D02*X37608D01*
Y41057D01*
X33608Y39857D02*X37608Y37357D01*
Y39857D02*X33608Y37357D01*
X37608Y36157D02*Y34157D01*
X33608Y35157D02*X37608D01*
X5008Y64457D02*X5508Y63957D01*
X3508Y64457D02*X5008D01*
X3008Y63957D02*X3508Y64457D01*
X3008Y63957D02*Y62957D01*
X3508Y62457D01*
X5008D01*
X5508Y61957D01*
Y60957D01*
X5008Y60457D02*X5508Y60957D01*
X3508Y60457D02*X5008D01*
X3008Y60957D02*X3508Y60457D01*
X6708Y64457D02*X8708D01*
X7708D02*Y60457D01*
X9908Y64457D02*Y60957D01*
X10408Y60457D01*
X11408D01*
X11908Y60957D01*
Y64457D02*Y60957D01*
X13108Y60457D02*X15108D01*
X15608Y60957D01*
Y62157D02*Y60957D01*
X15108Y62657D02*X15608Y62157D01*
X13608Y62657D02*X15108D01*
X13608Y64457D02*Y60457D01*
X13108Y64457D02*X15108D01*
X15608Y63957D01*
Y63157D01*
X15108Y62657D02*X15608Y63157D01*
X79000Y60000D02*Y56000D01*
X81500Y60000D02*Y56000D01*
X79000Y58000D02*X81500D01*
X82700Y60000D02*Y56500D01*
X83200Y56000D01*
X84200D01*
X84700Y56500D01*
Y60000D02*Y56500D01*
X85900Y56000D02*X87900D01*
X88400Y56500D01*
Y57700D02*Y56500D01*
X87900Y58200D02*X88400Y57700D01*
X86400Y58200D02*X87900D01*
X86400Y60000D02*Y56000D01*
X85900Y60000D02*X87900D01*
X88400Y59500D01*
Y58700D01*
X87900Y58200D02*X88400Y58700D01*
X89600Y59200D02*X90400Y60000D01*
Y56000D01*
X89600D02*X91100D01*
X78500Y17000D02*Y13000D01*
X81000Y17000D02*Y13000D01*
X78500Y15000D02*X81000D01*
X82200Y17000D02*Y13500D01*
X82700Y13000D01*
X83700D01*
X84200Y13500D01*
Y17000D02*Y13500D01*
X85400Y13000D02*X87400D01*
X87900Y13500D01*
Y14700D02*Y13500D01*
X87400Y15200D02*X87900Y14700D01*
X85900Y15200D02*X87400D01*
X85900Y17000D02*Y13000D01*
X85400Y17000D02*X87400D01*
X87900Y16500D01*
Y15700D01*
X87400Y15200D02*X87900Y15700D01*
X89100Y16500D02*X89600Y17000D01*
X91100D01*
X91600Y16500D01*
Y15500D01*
X89100Y13000D02*X91600Y15500D01*
X89100Y13000D02*X91600D01*
X27508Y5957D02*X28008Y5457D01*
X26008Y5957D02*X27508D01*
X25508Y5457D02*X26008Y5957D01*
X25508Y5457D02*Y4457D01*
X26008Y3957D01*
X27508D01*
X28008Y3457D01*
Y2457D01*
X27508Y1957D02*X28008Y2457D01*
X26008Y1957D02*X27508D01*
X25508Y2457D02*X26008Y1957D01*
X29208Y5957D02*Y1957D01*
X31708Y5957D02*Y1957D01*
X29208Y3957D02*X31708D01*
X32908Y5957D02*X33908D01*
X33408D02*Y1957D01*
X32908D02*X33908D01*
X35108Y4157D02*X36608D01*
X35108Y1957D02*X37108D01*
X35108Y5957D02*Y1957D01*
Y5957D02*X37108D01*
X38308D02*Y1957D01*
X40308D01*
X42008Y5957D02*Y1957D01*
X43308Y5957D02*X44008Y5257D01*
Y2657D01*
X43308Y1957D02*X44008Y2657D01*
X41508Y1957D02*X43308D01*
X41508Y5957D02*X43308D01*
X119917Y55607D02*Y51607D01*
X121917D01*
X123117Y54807D02*X123917Y55607D01*
Y51607D01*
X123117D02*X124617D01*
X119917Y40607D02*Y36607D01*
X121917D01*
X123117Y38107D02*X125117Y40607D01*
X123117Y38107D02*X125617D01*
X125117Y40607D02*Y36607D01*
X119917Y45607D02*Y41607D01*
X121917D01*
X123117Y45107D02*X123617Y45607D01*
X124617D01*
X125117Y45107D01*
X124617Y41607D02*X125117Y42107D01*
X123617Y41607D02*X124617D01*
X123117Y42107D02*X123617Y41607D01*
Y43807D02*X124617D01*
X125117Y45107D02*Y44307D01*
Y43307D02*Y42107D01*
Y43307D02*X124617Y43807D01*
X125117Y44307D02*X124617Y43807D01*
X119917Y50607D02*Y46607D01*
X121917D01*
X123117Y50107D02*X123617Y50607D01*
X125117D01*
X125617Y50107D01*
Y49107D01*
X123117Y46607D02*X125617Y49107D01*
X123117Y46607D02*X125617D01*
X119917Y20607D02*Y16607D01*
X121917D01*
X123117Y17107D02*X123617Y16607D01*
X123117Y17907D02*Y17107D01*
Y17907D02*X123817Y18607D01*
X124417D01*
X125117Y17907D01*
Y17107D01*
X124617Y16607D02*X125117Y17107D01*
X123617Y16607D02*X124617D01*
X123117Y19307D02*X123817Y18607D01*
X123117Y20107D02*Y19307D01*
Y20107D02*X123617Y20607D01*
X124617D01*
X125117Y20107D01*
Y19307D01*
X124417Y18607D02*X125117Y19307D01*
X119917Y25607D02*Y21607D01*
X121917D01*
X123617D02*X125617Y25607D01*
X123117D02*X125617D01*
X119917Y30607D02*Y26607D01*
X121917D01*
X124617Y30607D02*X125117Y30107D01*
X123617Y30607D02*X124617D01*
X123117Y30107D02*X123617Y30607D01*
X123117Y30107D02*Y27107D01*
X123617Y26607D01*
X124617Y28807D02*X125117Y28307D01*
X123117Y28807D02*X124617D01*
X123617Y26607D02*X124617D01*
X125117Y27107D01*
Y28307D02*Y27107D01*
X119917Y35607D02*Y31607D01*
X121917D01*
X123117Y35607D02*X125117D01*
X123117D02*Y33607D01*
X123617Y34107D01*
X124617D01*
X125117Y33607D01*
Y32107D01*
X124617Y31607D02*X125117Y32107D01*
X123617Y31607D02*X124617D01*
X123117Y32107D02*X123617Y31607D01*
M02*
