M48
INCH
T48C0.013
T47C0.038
T46C0.028
T45C0.063
T44C0.128
T43C0.035
%
T48
X006301Y004146
X007351Y005646
X007351Y005146
X007351Y004646
X007351Y004146
X007351Y003646
X007351Y003146
X007351Y002646
X007351Y002146
X008201Y004396
X008201Y003896
X008201Y003396
X008201Y002896
X009101Y004896
X009101Y002396
X009651Y005396
X009651Y003896
X009651Y001896
X012801Y005396
X012801Y004896
X012801Y004396
X012801Y003896
X012801Y003396
X012801Y002896
X012801Y002396
X012801Y001896
T46
X000851Y001296
X007500Y006600
X007500Y000650
X008500Y006600
X008500Y000650
X009500Y006600
X009500Y000650
T43
X005751Y005396
X005751Y004396
X005751Y003396
X005751Y002396
X006751Y004896
X006751Y003896
X006751Y002896
X006751Y001896
X010251Y004896
X010251Y003896
X010251Y002896
X010251Y001896
X011251Y005396
X011251Y004396
X011251Y003396
X011251Y002396
T47
X000901Y005396
X000901Y004396
X000901Y003396
X000901Y002396
X001901Y005396
X001901Y004396
X001901Y003396
X001901Y002396
T45
X002050Y006750
X002050Y000549
X014952Y006750
X014952Y000549
T44
X003251Y005896
X003251Y001396
X013751Y005896
X013751Y001396
M30
