  0
SECTION
  2
HEADER
  9
$ACADVER
  1
AC1009
  9
$EXTMIN
 10
0.0
 20
0.0
 30
0.0
  9
$EXTMAX
 10
1000.0
 20
1000.0
 30
0.0
  9
$FILLMODE
 70
 0
  9
$SPLFRAME
 70
 1
  0
ENDSEC
  0
SECTION
  2
TABLES
  0
TABLE
  2
LAYER
 70
1
  0
LAYER
  2
0
 70
     0
 62
     7
  6
CONTINUOUS
  0
ENDTAB
  0
ENDSEC
  0
SECTION
  2
ENTITIES
  0
POLYLINE
  8
0
 62
     13
 66
     1
 10
0
 20
0
 30
0.0
 40
0.432
 41
0.432
  0
VERTEX
  8
0
 10
0.0388456
 20
0.0383029
 30
0.0
 40
0.006
 41
0.006
  0
VERTEX
  8
0
 10
1.73383
 20
0.0383029
 30
0.0
 40
0.006
 41
0.006
  0
SEQEND
 8
0
  0
POLYLINE
  8
0
 62
     13
 66
     1
 10
0
 20
0
 30
0.0
 40
0.432
 41
0.432
  0
VERTEX
  8
0
 10
1.73383
 20
0.0383029
 30
0.0
 40
0.006
 41
0.006
  0
VERTEX
  8
0
 10
1.73383
 20
0.763292
 30
0.0
 40
0.006
 41
0.006
  0
SEQEND
 8
0
  0
POLYLINE
  8
0
 62
     13
 66
     1
 10
0
 20
0
 30
0.0
 40
0.432
 41
0.432
  0
VERTEX
  8
0
 10
1.73383
 20
0.763292
 30
0.0
 40
0.006
 41
0.006
  0
VERTEX
  8
0
 10
0.0388456
 20
0.763292
 30
0.0
 40
0.006
 41
0.006
  0
SEQEND
 8
0
  0
POLYLINE
  8
0
 62
     13
 66
     1
 10
0
 20
0
 30
0.0
 40
0.432
 41
0.432
  0
VERTEX
  8
0
 10
0.0388456
 20
0.763292
 30
0.0
 40
0.006
 41
0.006
  0
VERTEX
  8
0
 10
0.0388456
 20
0.0383029
 30
0.0
 40
0.006
 41
0.006
  0
SEQEND
 8
0
  0
POLYLINE
  8
0
 62
     173
 66
     1
 10
0
 20
0
 30
0.0
 70
     1
 40
0
 41
0
  0
VERTEX
  8
0
 10
0.670356
 20
0.448296
 30
0.0
 40
0
 41
0
  0
VERTEX
  8
0
 10
0.663846
 20
0.454807
 30
0.0
 40
0
 41
0
  0
VERTEX
  8
0
 10
0.657335
 20
0.448296
 30
0.0
 40
0
 41
0
  0
VERTEX
  8
0
 10
0.663846
 20
0.44184
 30
0.0
 40
0
 41
0
  0
VERTEX
  8
0
 10
0.670356
 20
0.448296
 30
0.0
 40
0
 41
0
  0
SEQEND
 8
0
  0
POLYLINE
  8
0
 62
     173
 66
     1
 10
0
 20
0
 30
0.0
 70
     1
 40
0
 41
0
  0
VERTEX
  8
0
 10
0.775336
 20
0.598307
 30
0.0
 40
0
 41
0
  0
VERTEX
  8
0
 10
0.768826
 20
0.604818
 30
0.0
 40
0
 41
0
  0
VERTEX
  8
0
 10
0.762315
 20
0.598307
 30
0.0
 40
0
 41
0
  0
VERTEX
  8
0
 10
0.768826
 20
0.591797
 30
0.0
 40
0
 41
0
  0
VERTEX
  8
0
 10
0.775336
 20
0.598307
 30
0.0
 40
0
 41
0
  0
SEQEND
 8
0
  0
POLYLINE
  8
0
 62
     173
 66
     1
 10
0
 20
0
 30
0.0
 70
     1
 40
0
 41
0
  0
VERTEX
  8
0
 10
0.775336
 20
0.548286
 30
0.0
 40
0
 41
0
  0
VERTEX
  8
0
 10
0.768826
 20
0.554796
 30
0.0
 40
0
 41
0
  0
VERTEX
  8
0
 10
0.762315
 20
0.548286
 30
0.0
 40
0
 41
0
  0
VERTEX
  8
0
 10
0.768826
 20
0.541829
 30
0.0
 40
0
 41
0
  0
VERTEX
  8
0
 10
0.775336
 20
0.548286
 30
0.0
 40
0
 41
0
  0
SEQEND
 8
0
  0
POLYLINE
  8
0
 62
     173
 66
     1
 10
0
 20
0
 30
0.0
 70
     1
 40
0
 41
0
  0
VERTEX
  8
0
 10
0.775336
 20
0.498318
 30
0.0
 40
0
 41
0
  0
VERTEX
  8
0
 10
0.768826
 20
0.504829
 30
0.0
 40
0
 41
0
  0
VERTEX
  8
0
 10
0.762315
 20
0.498318
 30
0.0
 40
0
 41
0
  0
VERTEX
  8
0
 10
0.768826
 20
0.491808
 30
0.0
 40
0
 41
0
  0
VERTEX
  8
0
 10
0.775336
 20
0.498318
 30
0.0
 40
0
 41
0
  0
SEQEND
 8
0
  0
POLYLINE
  8
0
 62
     173
 66
     1
 10
0
 20
0
 30
0.0
 70
     1
 40
0
 41
0
  0
VERTEX
  8
0
 10
0.775336
 20
0.448296
 30
0.0
 40
0
 41
0
  0
VERTEX
  8
0
 10
0.768826
 20
0.454807
 30
0.0
 40
0
 41
0
  0
VERTEX
  8
0
 10
0.762315
 20
0.448296
 30
0.0
 40
0
 41
0
  0
VERTEX
  8
0
 10
0.768826
 20
0.44184
 30
0.0
 40
0
 41
0
  0
VERTEX
  8
0
 10
0.775336
 20
0.448296
 30
0.0
 40
0
 41
0
  0
SEQEND
 8
0
  0
POLYLINE
  8
0
 62
     173
 66
     1
 10
0
 20
0
 30
0.0
 70
     1
 40
0
 41
0
  0
VERTEX
  8
0
 10
0.775336
 20
0.398329
 30
0.0
 40
0
 41
0
  0
VERTEX
  8
0
 10
0.768826
 20
0.404839
 30
0.0
 40
0
 41
0
  0
VERTEX
  8
0
 10
0.762315
 20
0.398329
 30
0.0
 40
0
 41
0
  0
VERTEX
  8
0
 10
0.768826
 20
0.391818
 30
0.0
 40
0
 41
0
  0
VERTEX
  8
0
 10
0.775336
 20
0.398329
 30
0.0
 40
0
 41
0
  0
SEQEND
 8
0
  0
POLYLINE
  8
0
 62
     173
 66
     1
 10
0
 20
0
 30
0.0
 70
     1
 40
0
 41
0
  0
VERTEX
  8
0
 10
0.775336
 20
0.348307
 30
0.0
 40
0
 41
0
  0
VERTEX
  8
0
 10
0.768826
 20
0.354818
 30
0.0
 40
0
 41
0
  0
VERTEX
  8
0
 10
0.762315
 20
0.348307
 30
0.0
 40
0
 41
0
  0
VERTEX
  8
0
 10
0.768826
 20
0.341797
 30
0.0
 40
0
 41
0
  0
VERTEX
  8
0
 10
0.775336
 20
0.348307
 30
0.0
 40
0
 41
0
  0
SEQEND
 8
0
  0
POLYLINE
  8
0
 62
     173
 66
     1
 10
0
 20
0
 30
0.0
 70
     1
 40
0
 41
0
  0
VERTEX
  8
0
 10
0.775336
 20
0.298286
 30
0.0
 40
0
 41
0
  0
VERTEX
  8
0
 10
0.768826
 20
0.304796
 30
0.0
 40
0
 41
0
  0
VERTEX
  8
0
 10
0.762315
 20
0.298286
 30
0.0
 40
0
 41
0
  0
VERTEX
  8
0
 10
0.768826
 20
0.291829
 30
0.0
 40
0
 41
0
  0
VERTEX
  8
0
 10
0.775336
 20
0.298286
 30
0.0
 40
0
 41
0
  0
SEQEND
 8
0
  0
POLYLINE
  8
0
 62
     173
 66
     1
 10
0
 20
0
 30
0.0
 70
     1
 40
0
 41
0
  0
VERTEX
  8
0
 10
0.775336
 20
0.248318
 30
0.0
 40
0
 41
0
  0
VERTEX
  8
0
 10
0.768826
 20
0.254829
 30
0.0
 40
0
 41
0
  0
VERTEX
  8
0
 10
0.762315
 20
0.248318
 30
0.0
 40
0
 41
0
  0
VERTEX
  8
0
 10
0.768826
 20
0.241808
 30
0.0
 40
0
 41
0
  0
VERTEX
  8
0
 10
0.775336
 20
0.248318
 30
0.0
 40
0
 41
0
  0
SEQEND
 8
0
  0
POLYLINE
  8
0
 62
     173
 66
     1
 10
0
 20
0
 30
0.0
 70
     1
 40
0
 41
0
  0
VERTEX
  8
0
 10
0.860351
 20
0.473307
 30
0.0
 40
0
 41
0
  0
VERTEX
  8
0
 10
0.853842
 20
0.479818
 30
0.0
 40
0
 41
0
  0
VERTEX
  8
0
 10
0.847331
 20
0.473307
 30
0.0
 40
0
 41
0
  0
VERTEX
  8
0
 10
0.853842
 20
0.466797
 30
0.0
 40
0
 41
0
  0
VERTEX
  8
0
 10
0.860351
 20
0.473307
 30
0.0
 40
0
 41
0
  0
SEQEND
 8
0
  0
POLYLINE
  8
0
 62
     173
 66
     1
 10
0
 20
0
 30
0.0
 70
     1
 40
0
 41
0
  0
VERTEX
  8
0
 10
0.860351
 20
0.423286
 30
0.0
 40
0
 41
0
  0
VERTEX
  8
0
 10
0.853842
 20
0.429796
 30
0.0
 40
0
 41
0
  0
VERTEX
  8
0
 10
0.847331
 20
0.423286
 30
0.0
 40
0
 41
0
  0
VERTEX
  8
0
 10
0.853842
 20
0.416829
 30
0.0
 40
0
 41
0
  0
VERTEX
  8
0
 10
0.860351
 20
0.423286
 30
0.0
 40
0
 41
0
  0
SEQEND
 8
0
  0
POLYLINE
  8
0
 62
     173
 66
     1
 10
0
 20
0
 30
0.0
 70
     1
 40
0
 41
0
  0
VERTEX
  8
0
 10
0.860351
 20
0.373318
 30
0.0
 40
0
 41
0
  0
VERTEX
  8
0
 10
0.853842
 20
0.379829
 30
0.0
 40
0
 41
0
  0
VERTEX
  8
0
 10
0.847331
 20
0.373318
 30
0.0
 40
0
 41
0
  0
VERTEX
  8
0
 10
0.853842
 20
0.366808
 30
0.0
 40
0
 41
0
  0
VERTEX
  8
0
 10
0.860351
 20
0.373318
 30
0.0
 40
0
 41
0
  0
SEQEND
 8
0
  0
POLYLINE
  8
0
 62
     173
 66
     1
 10
0
 20
0
 30
0.0
 70
     1
 40
0
 41
0
  0
VERTEX
  8
0
 10
0.860351
 20
0.323296
 30
0.0
 40
0
 41
0
  0
VERTEX
  8
0
 10
0.853842
 20
0.329807
 30
0.0
 40
0
 41
0
  0
VERTEX
  8
0
 10
0.847331
 20
0.323296
 30
0.0
 40
0
 41
0
  0
VERTEX
  8
0
 10
0.853842
 20
0.31684
 30
0.0
 40
0
 41
0
  0
VERTEX
  8
0
 10
0.860351
 20
0.323296
 30
0.0
 40
0
 41
0
  0
SEQEND
 8
0
  0
POLYLINE
  8
0
 62
     173
 66
     1
 10
0
 20
0
 30
0.0
 70
     1
 40
0
 41
0
  0
VERTEX
  8
0
 10
0.950358
 20
0.523329
 30
0.0
 40
0
 41
0
  0
VERTEX
  8
0
 10
0.943847
 20
0.529839
 30
0.0
 40
0
 41
0
  0
VERTEX
  8
0
 10
0.937337
 20
0.523329
 30
0.0
 40
0
 41
0
  0
VERTEX
  8
0
 10
0.943847
 20
0.516818
 30
0.0
 40
0
 41
0
  0
VERTEX
  8
0
 10
0.950358
 20
0.523329
 30
0.0
 40
0
 41
0
  0
SEQEND
 8
0
  0
POLYLINE
  8
0
 62
     173
 66
     1
 10
0
 20
0
 30
0.0
 70
     1
 40
0
 41
0
  0
VERTEX
  8
0
 10
0.950358
 20
0.273329
 30
0.0
 40
0
 41
0
  0
VERTEX
  8
0
 10
0.943847
 20
0.279839
 30
0.0
 40
0
 41
0
  0
VERTEX
  8
0
 10
0.937337
 20
0.273329
 30
0.0
 40
0
 41
0
  0
VERTEX
  8
0
 10
0.943847
 20
0.266818
 30
0.0
 40
0
 41
0
  0
VERTEX
  8
0
 10
0.950358
 20
0.273329
 30
0.0
 40
0
 41
0
  0
SEQEND
 8
0
  0
POLYLINE
  8
0
 62
     173
 66
     1
 10
0
 20
0
 30
0.0
 70
     1
 40
0
 41
0
  0
VERTEX
  8
0
 10
1.00532
 20
0.573296
 30
0.0
 40
0
 41
0
  0
VERTEX
  8
0
 10
0.998807
 20
0.579807
 30
0.0
 40
0
 41
0
  0
VERTEX
  8
0
 10
0.99235
 20
0.573296
 30
0.0
 40
0
 41
0
  0
VERTEX
  8
0
 10
0.998807
 20
0.56684
 30
0.0
 40
0
 41
0
  0
VERTEX
  8
0
 10
1.00532
 20
0.573296
 30
0.0
 40
0
 41
0
  0
SEQEND
 8
0
  0
POLYLINE
  8
0
 62
     173
 66
     1
 10
0
 20
0
 30
0.0
 70
     1
 40
0
 41
0
  0
VERTEX
  8
0
 10
1.00532
 20
0.423286
 30
0.0
 40
0
 41
0
  0
VERTEX
  8
0
 10
0.998807
 20
0.429796
 30
0.0
 40
0
 41
0
  0
VERTEX
  8
0
 10
0.99235
 20
0.423286
 30
0.0
 40
0
 41
0
  0
VERTEX
  8
0
 10
0.998807
 20
0.416829
 30
0.0
 40
0
 41
0
  0
VERTEX
  8
0
 10
1.00532
 20
0.423286
 30
0.0
 40
0
 41
0
  0
SEQEND
 8
0
  0
POLYLINE
  8
0
 62
     173
 66
     1
 10
0
 20
0
 30
0.0
 70
     1
 40
0
 41
0
  0
VERTEX
  8
0
 10
1.00532
 20
0.223307
 30
0.0
 40
0
 41
0
  0
VERTEX
  8
0
 10
0.998807
 20
0.229818
 30
0.0
 40
0
 41
0
  0
VERTEX
  8
0
 10
0.99235
 20
0.223307
 30
0.0
 40
0
 41
0
  0
VERTEX
  8
0
 10
0.998807
 20
0.216797
 30
0.0
 40
0
 41
0
  0
VERTEX
  8
0
 10
1.00532
 20
0.223307
 30
0.0
 40
0
 41
0
  0
SEQEND
 8
0
  0
POLYLINE
  8
0
 62
     173
 66
     1
 10
0
 20
0
 30
0.0
 70
     1
 40
0
 41
0
  0
VERTEX
  8
0
 10
1.32037
 20
0.573296
 30
0.0
 40
0
 41
0
  0
VERTEX
  8
0
 10
1.31386
 20
0.579807
 30
0.0
 40
0
 41
0
  0
VERTEX
  8
0
 10
1.30735
 20
0.573296
 30
0.0
 40
0
 41
0
  0
VERTEX
  8
0
 10
1.31386
 20
0.56684
 30
0.0
 40
0
 41
0
  0
VERTEX
  8
0
 10
1.32037
 20
0.573296
 30
0.0
 40
0
 41
0
  0
SEQEND
 8
0
  0
POLYLINE
  8
0
 62
     173
 66
     1
 10
0
 20
0
 30
0.0
 70
     1
 40
0
 41
0
  0
VERTEX
  8
0
 10
1.32037
 20
0.523329
 30
0.0
 40
0
 41
0
  0
VERTEX
  8
0
 10
1.31386
 20
0.529839
 30
0.0
 40
0
 41
0
  0
VERTEX
  8
0
 10
1.30735
 20
0.523329
 30
0.0
 40
0
 41
0
  0
VERTEX
  8
0
 10
1.31386
 20
0.516818
 30
0.0
 40
0
 41
0
  0
VERTEX
  8
0
 10
1.32037
 20
0.523329
 30
0.0
 40
0
 41
0
  0
SEQEND
 8
0
  0
POLYLINE
  8
0
 62
     173
 66
     1
 10
0
 20
0
 30
0.0
 70
     1
 40
0
 41
0
  0
VERTEX
  8
0
 10
1.32037
 20
0.473307
 30
0.0
 40
0
 41
0
  0
VERTEX
  8
0
 10
1.31386
 20
0.479818
 30
0.0
 40
0
 41
0
  0
VERTEX
  8
0
 10
1.30735
 20
0.473307
 30
0.0
 40
0
 41
0
  0
VERTEX
  8
0
 10
1.31386
 20
0.466797
 30
0.0
 40
0
 41
0
  0
VERTEX
  8
0
 10
1.32037
 20
0.473307
 30
0.0
 40
0
 41
0
  0
SEQEND
 8
0
  0
POLYLINE
  8
0
 62
     173
 66
     1
 10
0
 20
0
 30
0.0
 70
     1
 40
0
 41
0
  0
VERTEX
  8
0
 10
1.32037
 20
0.423286
 30
0.0
 40
0
 41
0
  0
VERTEX
  8
0
 10
1.31386
 20
0.429796
 30
0.0
 40
0
 41
0
  0
VERTEX
  8
0
 10
1.30735
 20
0.423286
 30
0.0
 40
0
 41
0
  0
VERTEX
  8
0
 10
1.31386
 20
0.416829
 30
0.0
 40
0
 41
0
  0
VERTEX
  8
0
 10
1.32037
 20
0.423286
 30
0.0
 40
0
 41
0
  0
SEQEND
 8
0
  0
POLYLINE
  8
0
 62
     173
 66
     1
 10
0
 20
0
 30
0.0
 70
     1
 40
0
 41
0
  0
VERTEX
  8
0
 10
1.32037
 20
0.373318
 30
0.0
 40
0
 41
0
  0
VERTEX
  8
0
 10
1.31386
 20
0.379829
 30
0.0
 40
0
 41
0
  0
VERTEX
  8
0
 10
1.30735
 20
0.373318
 30
0.0
 40
0
 41
0
  0
VERTEX
  8
0
 10
1.31386
 20
0.366808
 30
0.0
 40
0
 41
0
  0
VERTEX
  8
0
 10
1.32037
 20
0.373318
 30
0.0
 40
0
 41
0
  0
SEQEND
 8
0
  0
POLYLINE
  8
0
 62
     173
 66
     1
 10
0
 20
0
 30
0.0
 70
     1
 40
0
 41
0
  0
VERTEX
  8
0
 10
1.32037
 20
0.323296
 30
0.0
 40
0
 41
0
  0
VERTEX
  8
0
 10
1.31386
 20
0.329807
 30
0.0
 40
0
 41
0
  0
VERTEX
  8
0
 10
1.30735
 20
0.323296
 30
0.0
 40
0
 41
0
  0
VERTEX
  8
0
 10
1.31386
 20
0.31684
 30
0.0
 40
0
 41
0
  0
VERTEX
  8
0
 10
1.32037
 20
0.323296
 30
0.0
 40
0
 41
0
  0
SEQEND
 8
0
  0
POLYLINE
  8
0
 62
     173
 66
     1
 10
0
 20
0
 30
0.0
 70
     1
 40
0
 41
0
  0
VERTEX
  8
0
 10
1.32037
 20
0.273329
 30
0.0
 40
0
 41
0
  0
VERTEX
  8
0
 10
1.31386
 20
0.279839
 30
0.0
 40
0
 41
0
  0
VERTEX
  8
0
 10
1.30735
 20
0.273329
 30
0.0
 40
0
 41
0
  0
VERTEX
  8
0
 10
1.31386
 20
0.266818
 30
0.0
 40
0
 41
0
  0
VERTEX
  8
0
 10
1.32037
 20
0.273329
 30
0.0
 40
0
 41
0
  0
SEQEND
 8
0
  0
POLYLINE
  8
0
 62
     173
 66
     1
 10
0
 20
0
 30
0.0
 70
     1
 40
0
 41
0
  0
VERTEX
  8
0
 10
1.32037
 20
0.223307
 30
0.0
 40
0
 41
0
  0
VERTEX
  8
0
 10
1.31386
 20
0.229818
 30
0.0
 40
0
 41
0
  0
VERTEX
  8
0
 10
1.30735
 20
0.223307
 30
0.0
 40
0
 41
0
  0
VERTEX
  8
0
 10
1.31386
 20
0.216797
 30
0.0
 40
0
 41
0
  0
VERTEX
  8
0
 10
1.32037
 20
0.223307
 30
0.0
 40
0
 41
0
  0
SEQEND
 8
0
  0
POLYLINE
  8
0
 62
     173
 66
     1
 10
0
 20
0
 30
0.0
 70
     1
 40
0
 41
0
  0
VERTEX
  8
0
 10
0.132867
 20
0.163303
 30
0.0
 40
0
 41
0
  0
VERTEX
  8
0
 10
0.128472
 20
0.173828
 30
0.0
 40
0
 41
0
  0
VERTEX
  8
0
 10
0.118815
 20
0.1773
 30
0.0
 40
0
 41
0
  0
VERTEX
  8
0
 10
0.109158
 20
0.173828
 30
0.0
 40
0
 41
0
  0
VERTEX
  8
0
 10
0.104818
 20
0.163303
 30
0.0
 40
0
 41
0
  0
VERTEX
  8
0
 10
0.109158
 20
0.152832
 30
0.0
 40
0
 41
0
  0
VERTEX
  8
0
 10
0.118815
 20
0.149306
 30
0.0
 40
0
 41
0
  0
VERTEX
  8
0
 10
0.128472
 20
0.152832
 30
0.0
 40
0
 41
0
  0
VERTEX
  8
0
 10
0.132867
 20
0.163303
 30
0.0
 40
0
 41
0
  0
SEQEND
 8
0
  0
POLYLINE
  8
0
 62
     173
 66
     1
 10
0
 20
0
 30
0.0
 70
     1
 40
0
 41
0
  0
VERTEX
  8
0
 10
0.797743
 20
0.693685
 30
0.0
 40
0
 41
0
  0
VERTEX
  8
0
 10
0.793349
 20
0.704264
 30
0.0
 40
0
 41
0
  0
VERTEX
  8
0
 10
0.783746
 20
0.707736
 30
0.0
 40
0
 41
0
  0
VERTEX
  8
0
 10
0.774089
 20
0.704264
 30
0.0
 40
0
 41
0
  0
VERTEX
  8
0
 10
0.769749
 20
0.693685
 30
0.0
 40
0
 41
0
  0
VERTEX
  8
0
 10
0.774089
 20
0.683214
 30
0.0
 40
0
 41
0
  0
VERTEX
  8
0
 10
0.783746
 20
0.679688
 30
0.0
 40
0
 41
0
  0
VERTEX
  8
0
 10
0.793349
 20
0.683214
 30
0.0
 40
0
 41
0
  0
VERTEX
  8
0
 10
0.797743
 20
0.693685
 30
0.0
 40
0
 41
0
  0
SEQEND
 8
0
  0
POLYLINE
  8
0
 62
     173
 66
     1
 10
0
 20
0
 30
0.0
 70
     1
 40
0
 41
0
  0
VERTEX
  8
0
 10
0.797743
 20
0.0986871
 30
0.0
 40
0
 41
0
  0
VERTEX
  8
0
 10
0.793349
 20
0.109267
 30
0.0
 40
0
 41
0
  0
VERTEX
  8
0
 10
0.783746
 20
0.112739
 30
0.0
 40
0
 41
0
  0
VERTEX
  8
0
 10
0.774089
 20
0.109267
 30
0.0
 40
0
 41
0
  0
VERTEX
  8
0
 10
0.769749
 20
0.0986871
 30
0.0
 40
0
 41
0
  0
VERTEX
  8
0
 10
0.774089
 20
0.0882161
 30
0.0
 40
0
 41
0
  0
VERTEX
  8
0
 10
0.783746
 20
0.0846897
 30
0.0
 40
0
 41
0
  0
VERTEX
  8
0
 10
0.793349
 20
0.0882161
 30
0.0
 40
0
 41
0
  0
VERTEX
  8
0
 10
0.797743
 20
0.0986871
 30
0.0
 40
0
 41
0
  0
SEQEND
 8
0
  0
POLYLINE
  8
0
 62
     173
 66
     1
 10
0
 20
0
 30
0.0
 70
     1
 40
0
 41
0
  0
VERTEX
  8
0
 10
0.897732
 20
0.693685
 30
0.0
 40
0
 41
0
  0
VERTEX
  8
0
 10
0.893337
 20
0.704264
 30
0.0
 40
0
 41
0
  0
VERTEX
  8
0
 10
0.883735
 20
0.707736
 30
0.0
 40
0
 41
0
  0
VERTEX
  8
0
 10
0.874078
 20
0.704264
 30
0.0
 40
0
 41
0
  0
VERTEX
  8
0
 10
0.869738
 20
0.693685
 30
0.0
 40
0
 41
0
  0
VERTEX
  8
0
 10
0.874078
 20
0.683214
 30
0.0
 40
0
 41
0
  0
VERTEX
  8
0
 10
0.883735
 20
0.679688
 30
0.0
 40
0
 41
0
  0
VERTEX
  8
0
 10
0.893337
 20
0.683214
 30
0.0
 40
0
 41
0
  0
VERTEX
  8
0
 10
0.897732
 20
0.693685
 30
0.0
 40
0
 41
0
  0
SEQEND
 8
0
  0
POLYLINE
  8
0
 62
     173
 66
     1
 10
0
 20
0
 30
0.0
 70
     1
 40
0
 41
0
  0
VERTEX
  8
0
 10
0.897732
 20
0.0986871
 30
0.0
 40
0
 41
0
  0
VERTEX
  8
0
 10
0.893337
 20
0.109267
 30
0.0
 40
0
 41
0
  0
VERTEX
  8
0
 10
0.883735
 20
0.112739
 30
0.0
 40
0
 41
0
  0
VERTEX
  8
0
 10
0.874078
 20
0.109267
 30
0.0
 40
0
 41
0
  0
VERTEX
  8
0
 10
0.869738
 20
0.0986871
 30
0.0
 40
0
 41
0
  0
VERTEX
  8
0
 10
0.874078
 20
0.0882161
 30
0.0
 40
0
 41
0
  0
VERTEX
  8
0
 10
0.883735
 20
0.0846897
 30
0.0
 40
0
 41
0
  0
VERTEX
  8
0
 10
0.893337
 20
0.0882161
 30
0.0
 40
0
 41
0
  0
VERTEX
  8
0
 10
0.897732
 20
0.0986871
 30
0.0
 40
0
 41
0
  0
SEQEND
 8
0
  0
POLYLINE
  8
0
 62
     173
 66
     1
 10
0
 20
0
 30
0.0
 70
     1
 40
0
 41
0
  0
VERTEX
  8
0
 10
0.997721
 20
0.693685
 30
0.0
 40
0
 41
0
  0
VERTEX
  8
0
 10
0.993326
 20
0.704264
 30
0.0
 40
0
 41
0
  0
VERTEX
  8
0
 10
0.983724
 20
0.707736
 30
0.0
 40
0
 41
0
  0
VERTEX
  8
0
 10
0.974067
 20
0.704264
 30
0.0
 40
0
 41
0
  0
VERTEX
  8
0
 10
0.969726
 20
0.693685
 30
0.0
 40
0
 41
0
  0
VERTEX
  8
0
 10
0.974067
 20
0.683214
 30
0.0
 40
0
 41
0
  0
VERTEX
  8
0
 10
0.983724
 20
0.679688
 30
0.0
 40
0
 41
0
  0
VERTEX
  8
0
 10
0.993326
 20
0.683214
 30
0.0
 40
0
 41
0
  0
VERTEX
  8
0
 10
0.997721
 20
0.693685
 30
0.0
 40
0
 41
0
  0
SEQEND
 8
0
  0
POLYLINE
  8
0
 62
     173
 66
     1
 10
0
 20
0
 30
0.0
 70
     1
 40
0
 41
0
  0
VERTEX
  8
0
 10
0.997721
 20
0.0986871
 30
0.0
 40
0
 41
0
  0
VERTEX
  8
0
 10
0.993326
 20
0.109267
 30
0.0
 40
0
 41
0
  0
VERTEX
  8
0
 10
0.983724
 20
0.112739
 30
0.0
 40
0
 41
0
  0
VERTEX
  8
0
 10
0.974067
 20
0.109267
 30
0.0
 40
0
 41
0
  0
VERTEX
  8
0
 10
0.969726
 20
0.0986871
 30
0.0
 40
0
 41
0
  0
VERTEX
  8
0
 10
0.974067
 20
0.0882161
 30
0.0
 40
0
 41
0
  0
VERTEX
  8
0
 10
0.983724
 20
0.0846897
 30
0.0
 40
0
 41
0
  0
VERTEX
  8
0
 10
0.993326
 20
0.0882161
 30
0.0
 40
0
 41
0
  0
VERTEX
  8
0
 10
0.997721
 20
0.0986871
 30
0.0
 40
0
 41
0
  0
SEQEND
 8
0
  0
POLYLINE
  8
0
 62
     173
 66
     1
 10
0
 20
0
 30
0.0
 70
     1
 40
0
 41
0
  0
VERTEX
  8
0
 10
0.626357
 20
0.573296
 30
0.0
 40
0
 41
0
  0
VERTEX
  8
0
 10
0.620876
 20
0.586426
 30
0.0
 40
0
 41
0
  0
VERTEX
  8
0
 10
0.608832
 20
0.590821
 30
0.0
 40
0
 41
0
  0
VERTEX
  8
0
 10
0.596789
 20
0.586426
 30
0.0
 40
0
 41
0
  0
VERTEX
  8
0
 10
0.591362
 20
0.573296
 30
0.0
 40
0
 41
0
  0
VERTEX
  8
0
 10
0.596789
 20
0.560221
 30
0.0
 40
0
 41
0
  0
VERTEX
  8
0
 10
0.608832
 20
0.555826
 30
0.0
 40
0
 41
0
  0
VERTEX
  8
0
 10
0.620876
 20
0.560221
 30
0.0
 40
0
 41
0
  0
VERTEX
  8
0
 10
0.626357
 20
0.573296
 30
0.0
 40
0
 41
0
  0
SEQEND
 8
0
  0
POLYLINE
  8
0
 62
     173
 66
     1
 10
0
 20
0
 30
0.0
 70
     1
 40
0
 41
0
  0
VERTEX
  8
0
 10
0.626357
 20
0.473307
 30
0.0
 40
0
 41
0
  0
VERTEX
  8
0
 10
0.620876
 20
0.486436
 30
0.0
 40
0
 41
0
  0
VERTEX
  8
0
 10
0.608832
 20
0.490831
 30
0.0
 40
0
 41
0
  0
VERTEX
  8
0
 10
0.596789
 20
0.486436
 30
0.0
 40
0
 41
0
  0
VERTEX
  8
0
 10
0.591362
 20
0.473307
 30
0.0
 40
0
 41
0
  0
VERTEX
  8
0
 10
0.596789
 20
0.460232
 30
0.0
 40
0
 41
0
  0
VERTEX
  8
0
 10
0.608832
 20
0.455838
 30
0.0
 40
0
 41
0
  0
VERTEX
  8
0
 10
0.620876
 20
0.460232
 30
0.0
 40
0
 41
0
  0
VERTEX
  8
0
 10
0.626357
 20
0.473307
 30
0.0
 40
0
 41
0
  0
SEQEND
 8
0
  0
POLYLINE
  8
0
 62
     173
 66
     1
 10
0
 20
0
 30
0.0
 70
     1
 40
0
 41
0
  0
VERTEX
  8
0
 10
0.626357
 20
0.373318
 30
0.0
 40
0
 41
0
  0
VERTEX
  8
0
 10
0.620876
 20
0.386447
 30
0.0
 40
0
 41
0
  0
VERTEX
  8
0
 10
0.608832
 20
0.390842
 30
0.0
 40
0
 41
0
  0
VERTEX
  8
0
 10
0.596789
 20
0.386447
 30
0.0
 40
0
 41
0
  0
VERTEX
  8
0
 10
0.591362
 20
0.373318
 30
0.0
 40
0
 41
0
  0
VERTEX
  8
0
 10
0.596789
 20
0.360243
 30
0.0
 40
0
 41
0
  0
VERTEX
  8
0
 10
0.608832
 20
0.355849
 30
0.0
 40
0
 41
0
  0
VERTEX
  8
0
 10
0.620876
 20
0.360243
 30
0.0
 40
0
 41
0
  0
VERTEX
  8
0
 10
0.626357
 20
0.373318
 30
0.0
 40
0
 41
0
  0
SEQEND
 8
0
  0
POLYLINE
  8
0
 62
     173
 66
     1
 10
0
 20
0
 30
0.0
 70
     1
 40
0
 41
0
  0
VERTEX
  8
0
 10
0.626357
 20
0.273329
 30
0.0
 40
0
 41
0
  0
VERTEX
  8
0
 10
0.620876
 20
0.286458
 30
0.0
 40
0
 41
0
  0
VERTEX
  8
0
 10
0.608832
 20
0.290853
 30
0.0
 40
0
 41
0
  0
VERTEX
  8
0
 10
0.596789
 20
0.286458
 30
0.0
 40
0
 41
0
  0
VERTEX
  8
0
 10
0.591362
 20
0.273329
 30
0.0
 40
0
 41
0
  0
VERTEX
  8
0
 10
0.596789
 20
0.260254
 30
0.0
 40
0
 41
0
  0
VERTEX
  8
0
 10
0.608832
 20
0.25586
 30
0.0
 40
0
 41
0
  0
VERTEX
  8
0
 10
0.620876
 20
0.260254
 30
0.0
 40
0
 41
0
  0
VERTEX
  8
0
 10
0.626357
 20
0.273329
 30
0.0
 40
0
 41
0
  0
SEQEND
 8
0
  0
POLYLINE
  8
0
 62
     173
 66
     1
 10
0
 20
0
 30
0.0
 70
     1
 40
0
 41
0
  0
VERTEX
  8
0
 10
0.726346
 20
0.523329
 30
0.0
 40
0
 41
0
  0
VERTEX
  8
0
 10
0.720865
 20
0.536458
 30
0.0
 40
0
 41
0
  0
VERTEX
  8
0
 10
0.708822
 20
0.540853
 30
0.0
 40
0
 41
0
  0
VERTEX
  8
0
 10
0.696778
 20
0.536458
 30
0.0
 40
0
 41
0
  0
VERTEX
  8
0
 10
0.691351
 20
0.523329
 30
0.0
 40
0
 41
0
  0
VERTEX
  8
0
 10
0.696778
 20
0.510254
 30
0.0
 40
0
 41
0
  0
VERTEX
  8
0
 10
0.708822
 20
0.50586
 30
0.0
 40
0
 41
0
  0
VERTEX
  8
0
 10
0.720865
 20
0.510254
 30
0.0
 40
0
 41
0
  0
VERTEX
  8
0
 10
0.726346
 20
0.523329
 30
0.0
 40
0
 41
0
  0
SEQEND
 8
0
  0
POLYLINE
  8
0
 62
     173
 66
     1
 10
0
 20
0
 30
0.0
 70
     1
 40
0
 41
0
  0
VERTEX
  8
0
 10
0.726346
 20
0.423286
 30
0.0
 40
0
 41
0
  0
VERTEX
  8
0
 10
0.720865
 20
0.436469
 30
0.0
 40
0
 41
0
  0
VERTEX
  8
0
 10
0.708822
 20
0.440864
 30
0.0
 40
0
 41
0
  0
VERTEX
  8
0
 10
0.696778
 20
0.436469
 30
0.0
 40
0
 41
0
  0
VERTEX
  8
0
 10
0.691351
 20
0.423286
 30
0.0
 40
0
 41
0
  0
VERTEX
  8
0
 10
0.696778
 20
0.410211
 30
0.0
 40
0
 41
0
  0
VERTEX
  8
0
 10
0.708822
 20
0.405817
 30
0.0
 40
0
 41
0
  0
VERTEX
  8
0
 10
0.720865
 20
0.410211
 30
0.0
 40
0
 41
0
  0
VERTEX
  8
0
 10
0.726346
 20
0.423286
 30
0.0
 40
0
 41
0
  0
SEQEND
 8
0
  0
POLYLINE
  8
0
 62
     173
 66
     1
 10
0
 20
0
 30
0.0
 70
     1
 40
0
 41
0
  0
VERTEX
  8
0
 10
0.726346
 20
0.323296
 30
0.0
 40
0
 41
0
  0
VERTEX
  8
0
 10
0.720865
 20
0.336426
 30
0.0
 40
0
 41
0
  0
VERTEX
  8
0
 10
0.708822
 20
0.340821
 30
0.0
 40
0
 41
0
  0
VERTEX
  8
0
 10
0.696778
 20
0.336426
 30
0.0
 40
0
 41
0
  0
VERTEX
  8
0
 10
0.691351
 20
0.323296
 30
0.0
 40
0
 41
0
  0
VERTEX
  8
0
 10
0.696778
 20
0.310221
 30
0.0
 40
0
 41
0
  0
VERTEX
  8
0
 10
0.708822
 20
0.305826
 30
0.0
 40
0
 41
0
  0
VERTEX
  8
0
 10
0.720865
 20
0.310221
 30
0.0
 40
0
 41
0
  0
VERTEX
  8
0
 10
0.726346
 20
0.323296
 30
0.0
 40
0
 41
0
  0
SEQEND
 8
0
  0
POLYLINE
  8
0
 62
     173
 66
     1
 10
0
 20
0
 30
0.0
 70
     1
 40
0
 41
0
  0
VERTEX
  8
0
 10
0.726346
 20
0.223307
 30
0.0
 40
0
 41
0
  0
VERTEX
  8
0
 10
0.720865
 20
0.236436
 30
0.0
 40
0
 41
0
  0
VERTEX
  8
0
 10
0.708822
 20
0.240831
 30
0.0
 40
0
 41
0
  0
VERTEX
  8
0
 10
0.696778
 20
0.236436
 30
0.0
 40
0
 41
0
  0
VERTEX
  8
0
 10
0.691351
 20
0.223307
 30
0.0
 40
0
 41
0
  0
VERTEX
  8
0
 10
0.696778
 20
0.210232
 30
0.0
 40
0
 41
0
  0
VERTEX
  8
0
 10
0.708822
 20
0.205838
 30
0.0
 40
0
 41
0
  0
VERTEX
  8
0
 10
0.720865
 20
0.210232
 30
0.0
 40
0
 41
0
  0
VERTEX
  8
0
 10
0.726346
 20
0.223307
 30
0.0
 40
0
 41
0
  0
SEQEND
 8
0
  0
POLYLINE
  8
0
 62
     173
 66
     1
 10
0
 20
0
 30
0.0
 70
     1
 40
0
 41
0
  0
VERTEX
  8
0
 10
1.07633
 20
0.523329
 30
0.0
 40
0
 41
0
  0
VERTEX
  8
0
 10
1.07086
 20
0.536458
 30
0.0
 40
0
 41
0
  0
VERTEX
  8
0
 10
1.05881
 20
0.540853
 30
0.0
 40
0
 41
0
  0
VERTEX
  8
0
 10
1.04677
 20
0.536458
 30
0.0
 40
0
 41
0
  0
VERTEX
  8
0
 10
1.04134
 20
0.523329
 30
0.0
 40
0
 41
0
  0
VERTEX
  8
0
 10
1.04677
 20
0.510254
 30
0.0
 40
0
 41
0
  0
VERTEX
  8
0
 10
1.05881
 20
0.50586
 30
0.0
 40
0
 41
0
  0
VERTEX
  8
0
 10
1.07086
 20
0.510254
 30
0.0
 40
0
 41
0
  0
VERTEX
  8
0
 10
1.07633
 20
0.523329
 30
0.0
 40
0
 41
0
  0
SEQEND
 8
0
  0
POLYLINE
  8
0
 62
     173
 66
     1
 10
0
 20
0
 30
0.0
 70
     1
 40
0
 41
0
  0
VERTEX
  8
0
 10
1.07633
 20
0.423286
 30
0.0
 40
0
 41
0
  0
VERTEX
  8
0
 10
1.07086
 20
0.436469
 30
0.0
 40
0
 41
0
  0
VERTEX
  8
0
 10
1.05881
 20
0.440864
 30
0.0
 40
0
 41
0
  0
VERTEX
  8
0
 10
1.04677
 20
0.436469
 30
0.0
 40
0
 41
0
  0
VERTEX
  8
0
 10
1.04134
 20
0.423286
 30
0.0
 40
0
 41
0
  0
VERTEX
  8
0
 10
1.04677
 20
0.410211
 30
0.0
 40
0
 41
0
  0
VERTEX
  8
0
 10
1.05881
 20
0.405817
 30
0.0
 40
0
 41
0
  0
VERTEX
  8
0
 10
1.07086
 20
0.410211
 30
0.0
 40
0
 41
0
  0
VERTEX
  8
0
 10
1.07633
 20
0.423286
 30
0.0
 40
0
 41
0
  0
SEQEND
 8
0
  0
POLYLINE
  8
0
 62
     173
 66
     1
 10
0
 20
0
 30
0.0
 70
     1
 40
0
 41
0
  0
VERTEX
  8
0
 10
1.07633
 20
0.323296
 30
0.0
 40
0
 41
0
  0
VERTEX
  8
0
 10
1.07086
 20
0.336426
 30
0.0
 40
0
 41
0
  0
VERTEX
  8
0
 10
1.05881
 20
0.340821
 30
0.0
 40
0
 41
0
  0
VERTEX
  8
0
 10
1.04677
 20
0.336426
 30
0.0
 40
0
 41
0
  0
VERTEX
  8
0
 10
1.04134
 20
0.323296
 30
0.0
 40
0
 41
0
  0
VERTEX
  8
0
 10
1.04677
 20
0.310221
 30
0.0
 40
0
 41
0
  0
VERTEX
  8
0
 10
1.05881
 20
0.305826
 30
0.0
 40
0
 41
0
  0
VERTEX
  8
0
 10
1.07086
 20
0.310221
 30
0.0
 40
0
 41
0
  0
VERTEX
  8
0
 10
1.07633
 20
0.323296
 30
0.0
 40
0
 41
0
  0
SEQEND
 8
0
  0
POLYLINE
  8
0
 62
     173
 66
     1
 10
0
 20
0
 30
0.0
 70
     1
 40
0
 41
0
  0
VERTEX
  8
0
 10
1.07633
 20
0.223307
 30
0.0
 40
0
 41
0
  0
VERTEX
  8
0
 10
1.07086
 20
0.236436
 30
0.0
 40
0
 41
0
  0
VERTEX
  8
0
 10
1.05881
 20
0.240831
 30
0.0
 40
0
 41
0
  0
VERTEX
  8
0
 10
1.04677
 20
0.236436
 30
0.0
 40
0
 41
0
  0
VERTEX
  8
0
 10
1.04134
 20
0.223307
 30
0.0
 40
0
 41
0
  0
VERTEX
  8
0
 10
1.04677
 20
0.210232
 30
0.0
 40
0
 41
0
  0
VERTEX
  8
0
 10
1.05881
 20
0.205838
 30
0.0
 40
0
 41
0
  0
VERTEX
  8
0
 10
1.07086
 20
0.210232
 30
0.0
 40
0
 41
0
  0
VERTEX
  8
0
 10
1.07633
 20
0.223307
 30
0.0
 40
0
 41
0
  0
SEQEND
 8
0
  0
POLYLINE
  8
0
 62
     173
 66
     1
 10
0
 20
0
 30
0.0
 70
     1
 40
0
 41
0
  0
VERTEX
  8
0
 10
1.17632
 20
0.573296
 30
0.0
 40
0
 41
0
  0
VERTEX
  8
0
 10
1.17084
 20
0.586426
 30
0.0
 40
0
 41
0
  0
VERTEX
  8
0
 10
1.1588
 20
0.590821
 30
0.0
 40
0
 41
0
  0
VERTEX
  8
0
 10
1.14676
 20
0.586426
 30
0.0
 40
0
 41
0
  0
VERTEX
  8
0
 10
1.14133
 20
0.573296
 30
0.0
 40
0
 41
0
  0
VERTEX
  8
0
 10
1.14676
 20
0.560221
 30
0.0
 40
0
 41
0
  0
VERTEX
  8
0
 10
1.1588
 20
0.555826
 30
0.0
 40
0
 41
0
  0
VERTEX
  8
0
 10
1.17084
 20
0.560221
 30
0.0
 40
0
 41
0
  0
VERTEX
  8
0
 10
1.17632
 20
0.573296
 30
0.0
 40
0
 41
0
  0
SEQEND
 8
0
  0
POLYLINE
  8
0
 62
     173
 66
     1
 10
0
 20
0
 30
0.0
 70
     1
 40
0
 41
0
  0
VERTEX
  8
0
 10
1.17632
 20
0.473307
 30
0.0
 40
0
 41
0
  0
VERTEX
  8
0
 10
1.17084
 20
0.486436
 30
0.0
 40
0
 41
0
  0
VERTEX
  8
0
 10
1.1588
 20
0.490831
 30
0.0
 40
0
 41
0
  0
VERTEX
  8
0
 10
1.14676
 20
0.486436
 30
0.0
 40
0
 41
0
  0
VERTEX
  8
0
 10
1.14133
 20
0.473307
 30
0.0
 40
0
 41
0
  0
VERTEX
  8
0
 10
1.14676
 20
0.460232
 30
0.0
 40
0
 41
0
  0
VERTEX
  8
0
 10
1.1588
 20
0.455838
 30
0.0
 40
0
 41
0
  0
VERTEX
  8
0
 10
1.17084
 20
0.460232
 30
0.0
 40
0
 41
0
  0
VERTEX
  8
0
 10
1.17632
 20
0.473307
 30
0.0
 40
0
 41
0
  0
SEQEND
 8
0
  0
POLYLINE
  8
0
 62
     173
 66
     1
 10
0
 20
0
 30
0.0
 70
     1
 40
0
 41
0
  0
VERTEX
  8
0
 10
1.17632
 20
0.373318
 30
0.0
 40
0
 41
0
  0
VERTEX
  8
0
 10
1.17084
 20
0.386447
 30
0.0
 40
0
 41
0
  0
VERTEX
  8
0
 10
1.1588
 20
0.390842
 30
0.0
 40
0
 41
0
  0
VERTEX
  8
0
 10
1.14676
 20
0.386447
 30
0.0
 40
0
 41
0
  0
VERTEX
  8
0
 10
1.14133
 20
0.373318
 30
0.0
 40
0
 41
0
  0
VERTEX
  8
0
 10
1.14676
 20
0.360243
 30
0.0
 40
0
 41
0
  0
VERTEX
  8
0
 10
1.1588
 20
0.355849
 30
0.0
 40
0
 41
0
  0
VERTEX
  8
0
 10
1.17084
 20
0.360243
 30
0.0
 40
0
 41
0
  0
VERTEX
  8
0
 10
1.17632
 20
0.373318
 30
0.0
 40
0
 41
0
  0
SEQEND
 8
0
  0
POLYLINE
  8
0
 62
     173
 66
     1
 10
0
 20
0
 30
0.0
 70
     1
 40
0
 41
0
  0
VERTEX
  8
0
 10
1.17632
 20
0.273329
 30
0.0
 40
0
 41
0
  0
VERTEX
  8
0
 10
1.17084
 20
0.286458
 30
0.0
 40
0
 41
0
  0
VERTEX
  8
0
 10
1.1588
 20
0.290853
 30
0.0
 40
0
 41
0
  0
VERTEX
  8
0
 10
1.14676
 20
0.286458
 30
0.0
 40
0
 41
0
  0
VERTEX
  8
0
 10
1.14133
 20
0.273329
 30
0.0
 40
0
 41
0
  0
VERTEX
  8
0
 10
1.14676
 20
0.260254
 30
0.0
 40
0
 41
0
  0
VERTEX
  8
0
 10
1.1588
 20
0.25586
 30
0.0
 40
0
 41
0
  0
VERTEX
  8
0
 10
1.17084
 20
0.260254
 30
0.0
 40
0
 41
0
  0
VERTEX
  8
0
 10
1.17632
 20
0.273329
 30
0.0
 40
0
 41
0
  0
SEQEND
 8
0
  0
POLYLINE
  8
0
 62
     173
 66
     1
 10
0
 20
0
 30
0.0
 70
     1
 40
0
 41
0
  0
VERTEX
  8
0
 10
0.14285
 20
0.573296
 30
0.0
 40
0
 41
0
  0
VERTEX
  8
0
 10
0.136882
 20
0.587565
 30
0.0
 40
0
 41
0
  0
VERTEX
  8
0
 10
0.123806
 20
0.592339
 30
0.0
 40
0
 41
0
  0
VERTEX
  8
0
 10
0.110731
 20
0.587565
 30
0.0
 40
0
 41
0
  0
VERTEX
  8
0
 10
0.104818
 20
0.573296
 30
0.0
 40
0
 41
0
  0
VERTEX
  8
0
 10
0.110731
 20
0.559082
 30
0.0
 40
0
 41
0
  0
VERTEX
  8
0
 10
0.123806
 20
0.554308
 30
0.0
 40
0
 41
0
  0
VERTEX
  8
0
 10
0.136882
 20
0.559082
 30
0.0
 40
0
 41
0
  0
VERTEX
  8
0
 10
0.14285
 20
0.573296
 30
0.0
 40
0
 41
0
  0
SEQEND
 8
0
  0
POLYLINE
  8
0
 62
     173
 66
     1
 10
0
 20
0
 30
0.0
 70
     1
 40
0
 41
0
  0
VERTEX
  8
0
 10
0.14285
 20
0.473307
 30
0.0
 40
0
 41
0
  0
VERTEX
  8
0
 10
0.136882
 20
0.487576
 30
0.0
 40
0
 41
0
  0
VERTEX
  8
0
 10
0.123806
 20
0.49235
 30
0.0
 40
0
 41
0
  0
VERTEX
  8
0
 10
0.110731
 20
0.487576
 30
0.0
 40
0
 41
0
  0
VERTEX
  8
0
 10
0.104818
 20
0.473307
 30
0.0
 40
0
 41
0
  0
VERTEX
  8
0
 10
0.110731
 20
0.459093
 30
0.0
 40
0
 41
0
  0
VERTEX
  8
0
 10
0.123806
 20
0.454318
 30
0.0
 40
0
 41
0
  0
VERTEX
  8
0
 10
0.136882
 20
0.459093
 30
0.0
 40
0
 41
0
  0
VERTEX
  8
0
 10
0.14285
 20
0.473307
 30
0.0
 40
0
 41
0
  0
SEQEND
 8
0
  0
POLYLINE
  8
0
 62
     173
 66
     1
 10
0
 20
0
 30
0.0
 70
     1
 40
0
 41
0
  0
VERTEX
  8
0
 10
0.14285
 20
0.373318
 30
0.0
 40
0
 41
0
  0
VERTEX
  8
0
 10
0.136882
 20
0.387587
 30
0.0
 40
0
 41
0
  0
VERTEX
  8
0
 10
0.123806
 20
0.392361
 30
0.0
 40
0
 41
0
  0
VERTEX
  8
0
 10
0.110731
 20
0.387587
 30
0.0
 40
0
 41
0
  0
VERTEX
  8
0
 10
0.104818
 20
0.373318
 30
0.0
 40
0
 41
0
  0
VERTEX
  8
0
 10
0.110731
 20
0.359104
 30
0.0
 40
0
 41
0
  0
VERTEX
  8
0
 10
0.123806
 20
0.354329
 30
0.0
 40
0
 41
0
  0
VERTEX
  8
0
 10
0.136882
 20
0.359104
 30
0.0
 40
0
 41
0
  0
VERTEX
  8
0
 10
0.14285
 20
0.373318
 30
0.0
 40
0
 41
0
  0
SEQEND
 8
0
  0
POLYLINE
  8
0
 62
     173
 66
     1
 10
0
 20
0
 30
0.0
 70
     1
 40
0
 41
0
  0
VERTEX
  8
0
 10
0.14285
 20
0.273329
 30
0.0
 40
0
 41
0
  0
VERTEX
  8
0
 10
0.136882
 20
0.287597
 30
0.0
 40
0
 41
0
  0
VERTEX
  8
0
 10
0.123806
 20
0.292372
 30
0.0
 40
0
 41
0
  0
VERTEX
  8
0
 10
0.110731
 20
0.287597
 30
0.0
 40
0
 41
0
  0
VERTEX
  8
0
 10
0.104818
 20
0.273329
 30
0.0
 40
0
 41
0
  0
VERTEX
  8
0
 10
0.110731
 20
0.259115
 30
0.0
 40
0
 41
0
  0
VERTEX
  8
0
 10
0.123806
 20
0.25434
 30
0.0
 40
0
 41
0
  0
VERTEX
  8
0
 10
0.136882
 20
0.259115
 30
0.0
 40
0
 41
0
  0
VERTEX
  8
0
 10
0.14285
 20
0.273329
 30
0.0
 40
0
 41
0
  0
SEQEND
 8
0
  0
POLYLINE
  8
0
 62
     173
 66
     1
 10
0
 20
0
 30
0.0
 70
     1
 40
0
 41
0
  0
VERTEX
  8
0
 10
0.242839
 20
0.573296
 30
0.0
 40
0
 41
0
  0
VERTEX
  8
0
 10
0.236871
 20
0.587565
 30
0.0
 40
0
 41
0
  0
VERTEX
  8
0
 10
0.22385
 20
0.592339
 30
0.0
 40
0
 41
0
  0
VERTEX
  8
0
 10
0.210775
 20
0.587565
 30
0.0
 40
0
 41
0
  0
VERTEX
  8
0
 10
0.204861
 20
0.573296
 30
0.0
 40
0
 41
0
  0
VERTEX
  8
0
 10
0.210775
 20
0.559082
 30
0.0
 40
0
 41
0
  0
VERTEX
  8
0
 10
0.22385
 20
0.554308
 30
0.0
 40
0
 41
0
  0
VERTEX
  8
0
 10
0.236871
 20
0.559082
 30
0.0
 40
0
 41
0
  0
VERTEX
  8
0
 10
0.242839
 20
0.573296
 30
0.0
 40
0
 41
0
  0
SEQEND
 8
0
  0
POLYLINE
  8
0
 62
     173
 66
     1
 10
0
 20
0
 30
0.0
 70
     1
 40
0
 41
0
  0
VERTEX
  8
0
 10
0.242839
 20
0.473307
 30
0.0
 40
0
 41
0
  0
VERTEX
  8
0
 10
0.236871
 20
0.487576
 30
0.0
 40
0
 41
0
  0
VERTEX
  8
0
 10
0.22385
 20
0.49235
 30
0.0
 40
0
 41
0
  0
VERTEX
  8
0
 10
0.210775
 20
0.487576
 30
0.0
 40
0
 41
0
  0
VERTEX
  8
0
 10
0.204861
 20
0.473307
 30
0.0
 40
0
 41
0
  0
VERTEX
  8
0
 10
0.210775
 20
0.459093
 30
0.0
 40
0
 41
0
  0
VERTEX
  8
0
 10
0.22385
 20
0.454318
 30
0.0
 40
0
 41
0
  0
VERTEX
  8
0
 10
0.236871
 20
0.459093
 30
0.0
 40
0
 41
0
  0
VERTEX
  8
0
 10
0.242839
 20
0.473307
 30
0.0
 40
0
 41
0
  0
SEQEND
 8
0
  0
POLYLINE
  8
0
 62
     173
 66
     1
 10
0
 20
0
 30
0.0
 70
     1
 40
0
 41
0
  0
VERTEX
  8
0
 10
0.242839
 20
0.373318
 30
0.0
 40
0
 41
0
  0
VERTEX
  8
0
 10
0.236871
 20
0.387587
 30
0.0
 40
0
 41
0
  0
VERTEX
  8
0
 10
0.22385
 20
0.392361
 30
0.0
 40
0
 41
0
  0
VERTEX
  8
0
 10
0.210775
 20
0.387587
 30
0.0
 40
0
 41
0
  0
VERTEX
  8
0
 10
0.204861
 20
0.373318
 30
0.0
 40
0
 41
0
  0
VERTEX
  8
0
 10
0.210775
 20
0.359104
 30
0.0
 40
0
 41
0
  0
VERTEX
  8
0
 10
0.22385
 20
0.354329
 30
0.0
 40
0
 41
0
  0
VERTEX
  8
0
 10
0.236871
 20
0.359104
 30
0.0
 40
0
 41
0
  0
VERTEX
  8
0
 10
0.242839
 20
0.373318
 30
0.0
 40
0
 41
0
  0
SEQEND
 8
0
  0
POLYLINE
  8
0
 62
     173
 66
     1
 10
0
 20
0
 30
0.0
 70
     1
 40
0
 41
0
  0
VERTEX
  8
0
 10
0.242839
 20
0.273329
 30
0.0
 40
0
 41
0
  0
VERTEX
  8
0
 10
0.236871
 20
0.287597
 30
0.0
 40
0
 41
0
  0
VERTEX
  8
0
 10
0.22385
 20
0.292372
 30
0.0
 40
0
 41
0
  0
VERTEX
  8
0
 10
0.210775
 20
0.287597
 30
0.0
 40
0
 41
0
  0
VERTEX
  8
0
 10
0.204861
 20
0.273329
 30
0.0
 40
0
 41
0
  0
VERTEX
  8
0
 10
0.210775
 20
0.259115
 30
0.0
 40
0
 41
0
  0
VERTEX
  8
0
 10
0.22385
 20
0.25434
 30
0.0
 40
0
 41
0
  0
VERTEX
  8
0
 10
0.236871
 20
0.259115
 30
0.0
 40
0
 41
0
  0
VERTEX
  8
0
 10
0.242839
 20
0.273329
 30
0.0
 40
0
 41
0
  0
SEQEND
 8
0
  0
POLYLINE
  8
0
 62
     173
 66
     1
 10
0
 20
0
 30
0.0
 70
     1
 40
0
 41
0
  0
VERTEX
  8
0
 10
0.270236
 20
0.708713
 30
0.0
 40
0
 41
0
  0
VERTEX
  8
0
 10
0.260362
 20
0.732368
 30
0.0
 40
0
 41
0
  0
VERTEX
  8
0
 10
0.238715
 20
0.740235
 30
0.0
 40
0
 41
0
  0
VERTEX
  8
0
 10
0.217068
 20
0.732368
 30
0.0
 40
0
 41
0
  0
VERTEX
  8
0
 10
0.207249
 20
0.708713
 30
0.0
 40
0
 41
0
  0
VERTEX
  8
0
 10
0.217068
 20
0.685112
 30
0.0
 40
0
 41
0
  0
VERTEX
  8
0
 10
0.238715
 20
0.677246
 30
0.0
 40
0
 41
0
  0
VERTEX
  8
0
 10
0.260362
 20
0.685112
 30
0.0
 40
0
 41
0
  0
VERTEX
  8
0
 10
0.270236
 20
0.708713
 30
0.0
 40
0
 41
0
  0
SEQEND
 8
0
  0
POLYLINE
  8
0
 62
     173
 66
     1
 10
0
 20
0
 30
0.0
 70
     1
 40
0
 41
0
  0
VERTEX
  8
0
 10
0.270236
 20
0.088596
 30
0.0
 40
0
 41
0
  0
VERTEX
  8
0
 10
0.260362
 20
0.11225
 30
0.0
 40
0
 41
0
  0
VERTEX
  8
0
 10
0.238715
 20
0.120117
 30
0.0
 40
0
 41
0
  0
VERTEX
  8
0
 10
0.217068
 20
0.11225
 30
0.0
 40
0
 41
0
  0
VERTEX
  8
0
 10
0.207249
 20
0.088596
 30
0.0
 40
0
 41
0
  0
VERTEX
  8
0
 10
0.217068
 20
0.0649957
 30
0.0
 40
0
 41
0
  0
VERTEX
  8
0
 10
0.238715
 20
0.0571289
 30
0.0
 40
0
 41
0
  0
VERTEX
  8
0
 10
0.260362
 20
0.0649957
 30
0.0
 40
0
 41
0
  0
VERTEX
  8
0
 10
0.270236
 20
0.088596
 30
0.0
 40
0
 41
0
  0
SEQEND
 8
0
  0
POLYLINE
  8
0
 62
     173
 66
     1
 10
0
 20
0
 30
0.0
 70
     1
 40
0
 41
0
  0
VERTEX
  8
0
 10
1.56044
 20
0.708713
 30
0.0
 40
0
 41
0
  0
VERTEX
  8
0
 10
1.55057
 20
0.732368
 30
0.0
 40
0
 41
0
  0
VERTEX
  8
0
 10
1.52892
 20
0.740235
 30
0.0
 40
0
 41
0
  0
VERTEX
  8
0
 10
1.50726
 20
0.732368
 30
0.0
 40
0
 41
0
  0
VERTEX
  8
0
 10
1.49744
 20
0.708713
 30
0.0
 40
0
 41
0
  0
VERTEX
  8
0
 10
1.50726
 20
0.685112
 30
0.0
 40
0
 41
0
  0
VERTEX
  8
0
 10
1.52892
 20
0.677246
 30
0.0
 40
0
 41
0
  0
VERTEX
  8
0
 10
1.55057
 20
0.685112
 30
0.0
 40
0
 41
0
  0
VERTEX
  8
0
 10
1.56044
 20
0.708713
 30
0.0
 40
0
 41
0
  0
SEQEND
 8
0
  0
POLYLINE
  8
0
 62
     173
 66
     1
 10
0
 20
0
 30
0.0
 70
     1
 40
0
 41
0
  0
VERTEX
  8
0
 10
1.56044
 20
0.088596
 30
0.0
 40
0
 41
0
  0
VERTEX
  8
0
 10
1.55057
 20
0.11225
 30
0.0
 40
0
 41
0
  0
VERTEX
  8
0
 10
1.52892
 20
0.120117
 30
0.0
 40
0
 41
0
  0
VERTEX
  8
0
 10
1.50726
 20
0.11225
 30
0.0
 40
0
 41
0
  0
VERTEX
  8
0
 10
1.49744
 20
0.088596
 30
0.0
 40
0
 41
0
  0
VERTEX
  8
0
 10
1.50726
 20
0.0649957
 30
0.0
 40
0
 41
0
  0
VERTEX
  8
0
 10
1.52892
 20
0.0571289
 30
0.0
 40
0
 41
0
  0
VERTEX
  8
0
 10
1.55057
 20
0.0649957
 30
0.0
 40
0
 41
0
  0
VERTEX
  8
0
 10
1.56044
 20
0.088596
 30
0.0
 40
0
 41
0
  0
SEQEND
 8
0
  0
POLYLINE
  8
0
 62
     173
 66
     1
 10
0
 20
0
 30
0.0
 70
     1
 40
0
 41
0
  0
VERTEX
  8
0
 10
0.422851
 20
0.623318
 30
0.0
 40
0
 41
0
  0
VERTEX
  8
0
 10
0.417318
 20
0.651367
 30
0.0
 40
0
 41
0
  0
VERTEX
  8
0
 10
0.402832
 20
0.671332
 30
0.0
 40
0
 41
0
  0
VERTEX
  8
0
 10
0.382324
 20
0.683376
 30
0.0
 40
0
 41
0
  0
VERTEX
  8
0
 10
0.358832
 20
0.687338
 30
0.0
 40
0
 41
0
  0
VERTEX
  8
0
 10
0.33534
 20
0.683376
 30
0.0
 40
0
 41
0
  0
VERTEX
  8
0
 10
0.314833
 20
0.671332
 30
0.0
 40
0
 41
0
  0
VERTEX
  8
0
 10
0.300347
 20
0.651367
 30
0.0
 40
0
 41
0
  0
VERTEX
  8
0
 10
0.294868
 20
0.623318
 30
0.0
 40
0
 41
0
  0
VERTEX
  8
0
 10
0.300347
 20
0.595324
 30
0.0
 40
0
 41
0
  0
VERTEX
  8
0
 10
0.314833
 20
0.575358
 30
0.0
 40
0
 41
0
  0
VERTEX
  8
0
 10
0.33534
 20
0.563314
 30
0.0
 40
0
 41
0
  0
VERTEX
  8
0
 10
0.358832
 20
0.559353
 30
0.0
 40
0
 41
0
  0
VERTEX
  8
0
 10
0.382324
 20
0.563314
 30
0.0
 40
0
 41
0
  0
VERTEX
  8
0
 10
0.402832
 20
0.575358
 30
0.0
 40
0
 41
0
  0
VERTEX
  8
0
 10
0.417318
 20
0.595324
 30
0.0
 40
0
 41
0
  0
VERTEX
  8
0
 10
0.422851
 20
0.623318
 30
0.0
 40
0
 41
0
  0
SEQEND
 8
0
  0
POLYLINE
  8
0
 62
     173
 66
     1
 10
0
 20
0
 30
0.0
 70
     1
 40
0
 41
0
  0
VERTEX
  8
0
 10
0.422851
 20
0.173286
 30
0.0
 40
0
 41
0
  0
VERTEX
  8
0
 10
0.417318
 20
0.201335
 30
0.0
 40
0
 41
0
  0
VERTEX
  8
0
 10
0.402832
 20
0.2213
 30
0.0
 40
0
 41
0
  0
VERTEX
  8
0
 10
0.382324
 20
0.233344
 30
0.0
 40
0
 41
0
  0
VERTEX
  8
0
 10
0.358832
 20
0.237304
 30
0.0
 40
0
 41
0
  0
VERTEX
  8
0
 10
0.33534
 20
0.233344
 30
0.0
 40
0
 41
0
  0
VERTEX
  8
0
 10
0.314833
 20
0.2213
 30
0.0
 40
0
 41
0
  0
VERTEX
  8
0
 10
0.300347
 20
0.201335
 30
0.0
 40
0
 41
0
  0
VERTEX
  8
0
 10
0.294868
 20
0.173286
 30
0.0
 40
0
 41
0
  0
VERTEX
  8
0
 10
0.300347
 20
0.145344
 30
0.0
 40
0
 41
0
  0
VERTEX
  8
0
 10
0.314833
 20
0.125326
 30
0.0
 40
0
 41
0
  0
VERTEX
  8
0
 10
0.33534
 20
0.113336
 30
0.0
 40
0
 41
0
  0
VERTEX
  8
0
 10
0.358832
 20
0.109321
 30
0.0
 40
0
 41
0
  0
VERTEX
  8
0
 10
0.382324
 20
0.113336
 30
0.0
 40
0
 41
0
  0
VERTEX
  8
0
 10
0.402832
 20
0.125326
 30
0.0
 40
0
 41
0
  0
VERTEX
  8
0
 10
0.417318
 20
0.145344
 30
0.0
 40
0
 41
0
  0
VERTEX
  8
0
 10
0.422851
 20
0.173286
 30
0.0
 40
0
 41
0
  0
SEQEND
 8
0
  0
POLYLINE
  8
0
 62
     173
 66
     1
 10
0
 20
0
 30
0.0
 70
     1
 40
0
 41
0
  0
VERTEX
  8
0
 10
1.47282
 20
0.623318
 30
0.0
 40
0
 41
0
  0
VERTEX
  8
0
 10
1.46729
 20
0.651367
 30
0.0
 40
0
 41
0
  0
VERTEX
  8
0
 10
1.45281
 20
0.671332
 30
0.0
 40
0
 41
0
  0
VERTEX
  8
0
 10
1.43229
 20
0.683376
 30
0.0
 40
0
 41
0
  0
VERTEX
  8
0
 10
1.40881
 20
0.687338
 30
0.0
 40
0
 41
0
  0
VERTEX
  8
0
 10
1.38531
 20
0.683376
 30
0.0
 40
0
 41
0
  0
VERTEX
  8
0
 10
1.3648
 20
0.671332
 30
0.0
 40
0
 41
0
  0
VERTEX
  8
0
 10
1.35032
 20
0.651367
 30
0.0
 40
0
 41
0
  0
VERTEX
  8
0
 10
1.34483
 20
0.623318
 30
0.0
 40
0
 41
0
  0
VERTEX
  8
0
 10
1.35032
 20
0.595324
 30
0.0
 40
0
 41
0
  0
VERTEX
  8
0
 10
1.3648
 20
0.575358
 30
0.0
 40
0
 41
0
  0
VERTEX
  8
0
 10
1.38531
 20
0.563314
 30
0.0
 40
0
 41
0
  0
VERTEX
  8
0
 10
1.40881
 20
0.559353
 30
0.0
 40
0
 41
0
  0
VERTEX
  8
0
 10
1.43229
 20
0.563314
 30
0.0
 40
0
 41
0
  0
VERTEX
  8
0
 10
1.45281
 20
0.575358
 30
0.0
 40
0
 41
0
  0
VERTEX
  8
0
 10
1.46729
 20
0.595324
 30
0.0
 40
0
 41
0
  0
VERTEX
  8
0
 10
1.47282
 20
0.623318
 30
0.0
 40
0
 41
0
  0
SEQEND
 8
0
  0
POLYLINE
  8
0
 62
     173
 66
     1
 10
0
 20
0
 30
0.0
 70
     1
 40
0
 41
0
  0
VERTEX
  8
0
 10
1.47282
 20
0.173286
 30
0.0
 40
0
 41
0
  0
VERTEX
  8
0
 10
1.46729
 20
0.201335
 30
0.0
 40
0
 41
0
  0
VERTEX
  8
0
 10
1.45281
 20
0.2213
 30
0.0
 40
0
 41
0
  0
VERTEX
  8
0
 10
1.43229
 20
0.233344
 30
0.0
 40
0
 41
0
  0
VERTEX
  8
0
 10
1.40881
 20
0.237304
 30
0.0
 40
0
 41
0
  0
VERTEX
  8
0
 10
1.38531
 20
0.233344
 30
0.0
 40
0
 41
0
  0
VERTEX
  8
0
 10
1.3648
 20
0.2213
 30
0.0
 40
0
 41
0
  0
VERTEX
  8
0
 10
1.35032
 20
0.201335
 30
0.0
 40
0
 41
0
  0
VERTEX
  8
0
 10
1.34483
 20
0.173286
 30
0.0
 40
0
 41
0
  0
VERTEX
  8
0
 10
1.35032
 20
0.145344
 30
0.0
 40
0
 41
0
  0
VERTEX
  8
0
 10
1.3648
 20
0.125326
 30
0.0
 40
0
 41
0
  0
VERTEX
  8
0
 10
1.38531
 20
0.113336
 30
0.0
 40
0
 41
0
  0
VERTEX
  8
0
 10
1.40881
 20
0.109321
 30
0.0
 40
0
 41
0
  0
VERTEX
  8
0
 10
1.43229
 20
0.113336
 30
0.0
 40
0
 41
0
  0
VERTEX
  8
0
 10
1.45281
 20
0.125326
 30
0.0
 40
0
 41
0
  0
VERTEX
  8
0
 10
1.46729
 20
0.145344
 30
0.0
 40
0
 41
0
  0
VERTEX
  8
0
 10
1.47282
 20
0.173286
 30
0.0
 40
0
 41
0
  0
SEQEND
 8
0
  0
ENDSEC
  0
EOF
