<?xml version="1.0" encoding="UTF-8"?>
<svg xmlns="http://www.w3.org/2000/svg" xmlns:xlink="http://www.w3.org/1999/xlink" width="128pt" height="55pt" viewBox="0 0 128 55" version="1.1">
<g id="surface1">
<path style="fill:none;stroke-width:0.006;stroke-linecap:round;stroke-linejoin:miter;stroke:rgb(100%,49.803922%,45.098039%);stroke-opacity:1;stroke-miterlimit:10;" d="M 0.00510292 0.00459161 L 1.70009 0.00459161 " transform="matrix(72,0,0,-72,2.91384,53.79544)"/>
<path style="fill:none;stroke-width:0.006;stroke-linecap:round;stroke-linejoin:miter;stroke:rgb(100%,49.803922%,45.098039%);stroke-opacity:1;stroke-miterlimit:10;" d="M 1.70009 0.00459161 L 1.70009 0.729581 " transform="matrix(72,0,0,-72,2.91384,53.79544)"/>
<path style="fill:none;stroke-width:0.006;stroke-linecap:round;stroke-linejoin:miter;stroke:rgb(100%,49.803922%,45.098039%);stroke-opacity:1;stroke-miterlimit:10;" d="M 1.70009 0.729581 L 0.00510292 0.729581 " transform="matrix(72,0,0,-72,2.91384,53.79544)"/>
<path style="fill:none;stroke-width:0.006;stroke-linecap:round;stroke-linejoin:miter;stroke:rgb(100%,49.803922%,45.098039%);stroke-opacity:1;stroke-miterlimit:10;" d="M 0.00510292 0.729581 L 0.00510292 0.00459161 " transform="matrix(72,0,0,-72,2.91384,53.79544)"/>
<path style=" stroke:none;fill-rule:evenodd;fill:rgb(45.098039%,45.098039%,87.058824%);fill-opacity:1;" d="M 48.75 23.945312 C 48.75 23.320312 47.8125 23.320312 47.8125 23.945312 C 47.8125 24.566406 48.75 24.566406 48.75 23.945312 "/>
<path style=" stroke:none;fill-rule:evenodd;fill:rgb(45.098039%,45.098039%,87.058824%);fill-opacity:1;" d="M 56.308594 13.144531 C 56.308594 12.519531 55.371094 12.519531 55.371094 13.144531 C 55.371094 13.769531 56.308594 13.769531 56.308594 13.144531 "/>
<path style=" stroke:none;fill-rule:evenodd;fill:rgb(45.098039%,45.098039%,87.058824%);fill-opacity:1;" d="M 56.308594 16.746094 C 56.308594 16.121094 55.371094 16.121094 55.371094 16.746094 C 55.371094 17.367188 56.308594 17.367188 56.308594 16.746094 "/>
<path style=" stroke:none;fill-rule:evenodd;fill:rgb(45.098039%,45.098039%,87.058824%);fill-opacity:1;" d="M 56.308594 20.34375 C 56.308594 19.71875 55.371094 19.71875 55.371094 20.34375 C 55.371094 20.96875 56.308594 20.96875 56.308594 20.34375 "/>
<path style=" stroke:none;fill-rule:evenodd;fill:rgb(45.098039%,45.098039%,87.058824%);fill-opacity:1;" d="M 56.308594 23.945312 C 56.308594 23.320312 55.371094 23.320312 55.371094 23.945312 C 55.371094 24.566406 56.308594 24.566406 56.308594 23.945312 "/>
<path style=" stroke:none;fill-rule:evenodd;fill:rgb(45.098039%,45.098039%,87.058824%);fill-opacity:1;" d="M 56.308594 27.542969 C 56.308594 26.921875 55.371094 26.921875 55.371094 27.542969 C 55.371094 28.167969 56.308594 28.167969 56.308594 27.542969 "/>
<path style=" stroke:none;fill-rule:evenodd;fill:rgb(45.098039%,45.098039%,87.058824%);fill-opacity:1;" d="M 56.308594 31.144531 C 56.308594 30.519531 55.371094 30.519531 55.371094 31.144531 C 55.371094 31.769531 56.308594 31.769531 56.308594 31.144531 "/>
<path style=" stroke:none;fill-rule:evenodd;fill:rgb(45.098039%,45.098039%,87.058824%);fill-opacity:1;" d="M 56.308594 34.746094 C 56.308594 34.121094 55.371094 34.121094 55.371094 34.746094 C 55.371094 35.367188 56.308594 35.367188 56.308594 34.746094 "/>
<path style=" stroke:none;fill-rule:evenodd;fill:rgb(45.098039%,45.098039%,87.058824%);fill-opacity:1;" d="M 56.308594 38.34375 C 56.308594 37.71875 55.371094 37.71875 55.371094 38.34375 C 55.371094 38.96875 56.308594 38.96875 56.308594 38.34375 "/>
<path style=" stroke:none;fill-rule:evenodd;fill:rgb(45.098039%,45.098039%,87.058824%);fill-opacity:1;" d="M 62.429688 22.144531 C 62.429688 21.519531 61.492188 21.519531 61.492188 22.144531 C 61.492188 22.769531 62.429688 22.769531 62.429688 22.144531 "/>
<path style=" stroke:none;fill-rule:evenodd;fill:rgb(45.098039%,45.098039%,87.058824%);fill-opacity:1;" d="M 62.429688 25.746094 C 62.429688 25.121094 61.492188 25.121094 61.492188 25.746094 C 61.492188 26.367188 62.429688 26.367188 62.429688 25.746094 "/>
<path style=" stroke:none;fill-rule:evenodd;fill:rgb(45.098039%,45.098039%,87.058824%);fill-opacity:1;" d="M 62.429688 29.34375 C 62.429688 28.71875 61.492188 28.71875 61.492188 29.34375 C 61.492188 29.96875 62.429688 29.96875 62.429688 29.34375 "/>
<path style=" stroke:none;fill-rule:evenodd;fill:rgb(45.098039%,45.098039%,87.058824%);fill-opacity:1;" d="M 62.429688 32.945312 C 62.429688 32.320312 61.492188 32.320312 61.492188 32.945312 C 61.492188 33.566406 62.429688 33.566406 62.429688 32.945312 "/>
<path style=" stroke:none;fill-rule:evenodd;fill:rgb(45.098039%,45.098039%,87.058824%);fill-opacity:1;" d="M 68.910156 18.542969 C 68.910156 17.921875 67.972656 17.921875 67.972656 18.542969 C 67.972656 19.167969 68.910156 19.167969 68.910156 18.542969 "/>
<path style=" stroke:none;fill-rule:evenodd;fill:rgb(45.098039%,45.098039%,87.058824%);fill-opacity:1;" d="M 68.910156 36.542969 C 68.910156 35.921875 67.972656 35.921875 67.972656 36.542969 C 67.972656 37.167969 68.910156 37.167969 68.910156 36.542969 "/>
<path style=" stroke:none;fill-rule:evenodd;fill:rgb(45.098039%,45.098039%,87.058824%);fill-opacity:1;" d="M 72.867188 14.945312 C 72.867188 14.320312 71.933594 14.320312 71.933594 14.945312 C 71.933594 15.566406 72.867188 15.566406 72.867188 14.945312 "/>
<path style=" stroke:none;fill-rule:evenodd;fill:rgb(45.098039%,45.098039%,87.058824%);fill-opacity:1;" d="M 72.867188 25.746094 C 72.867188 25.121094 71.933594 25.121094 71.933594 25.746094 C 71.933594 26.367188 72.867188 26.367188 72.867188 25.746094 "/>
<path style=" stroke:none;fill-rule:evenodd;fill:rgb(45.098039%,45.098039%,87.058824%);fill-opacity:1;" d="M 72.867188 40.144531 C 72.867188 39.519531 71.933594 39.519531 71.933594 40.144531 C 71.933594 40.769531 72.867188 40.769531 72.867188 40.144531 "/>
<path style=" stroke:none;fill-rule:evenodd;fill:rgb(45.098039%,45.098039%,87.058824%);fill-opacity:1;" d="M 95.550781 14.945312 C 95.550781 14.320312 94.613281 14.320312 94.613281 14.945312 C 94.613281 15.566406 95.550781 15.566406 95.550781 14.945312 "/>
<path style=" stroke:none;fill-rule:evenodd;fill:rgb(45.098039%,45.098039%,87.058824%);fill-opacity:1;" d="M 95.550781 18.542969 C 95.550781 17.921875 94.613281 17.921875 94.613281 18.542969 C 94.613281 19.167969 95.550781 19.167969 95.550781 18.542969 "/>
<path style=" stroke:none;fill-rule:evenodd;fill:rgb(45.098039%,45.098039%,87.058824%);fill-opacity:1;" d="M 95.550781 22.144531 C 95.550781 21.519531 94.613281 21.519531 94.613281 22.144531 C 94.613281 22.769531 95.550781 22.769531 95.550781 22.144531 "/>
<path style=" stroke:none;fill-rule:evenodd;fill:rgb(45.098039%,45.098039%,87.058824%);fill-opacity:1;" d="M 95.550781 25.746094 C 95.550781 25.121094 94.613281 25.121094 94.613281 25.746094 C 94.613281 26.367188 95.550781 26.367188 95.550781 25.746094 "/>
<path style=" stroke:none;fill-rule:evenodd;fill:rgb(45.098039%,45.098039%,87.058824%);fill-opacity:1;" d="M 95.550781 29.34375 C 95.550781 28.71875 94.613281 28.71875 94.613281 29.34375 C 94.613281 29.96875 95.550781 29.96875 95.550781 29.34375 "/>
<path style=" stroke:none;fill-rule:evenodd;fill:rgb(45.098039%,45.098039%,87.058824%);fill-opacity:1;" d="M 95.550781 32.945312 C 95.550781 32.320312 94.613281 32.320312 94.613281 32.945312 C 94.613281 33.566406 95.550781 33.566406 95.550781 32.945312 "/>
<path style=" stroke:none;fill-rule:evenodd;fill:rgb(45.098039%,45.098039%,87.058824%);fill-opacity:1;" d="M 95.550781 36.542969 C 95.550781 35.921875 94.613281 35.921875 94.613281 36.542969 C 94.613281 37.167969 95.550781 37.167969 95.550781 36.542969 "/>
<path style=" stroke:none;fill-rule:evenodd;fill:rgb(45.098039%,45.098039%,87.058824%);fill-opacity:1;" d="M 95.550781 40.144531 C 95.550781 39.519531 94.613281 39.519531 94.613281 40.144531 C 94.613281 40.769531 95.550781 40.769531 95.550781 40.144531 "/>
<path style=" stroke:none;fill-rule:evenodd;fill:rgb(45.098039%,45.098039%,87.058824%);fill-opacity:1;" d="M 10.050781 44.464844 C 10.050781 43.121094 8.03125 43.121094 8.03125 44.464844 C 8.03125 45.808594 10.050781 45.808594 10.050781 44.464844 "/>
<path style=" stroke:none;fill-rule:evenodd;fill:rgb(45.098039%,45.098039%,87.058824%);fill-opacity:1;" d="M 57.921875 6.277344 C 57.921875 4.929688 55.90625 4.929688 55.90625 6.277344 C 55.90625 7.621094 57.921875 7.621094 57.921875 6.277344 "/>
<path style=" stroke:none;fill-rule:evenodd;fill:rgb(45.098039%,45.098039%,87.058824%);fill-opacity:1;" d="M 57.921875 49.117188 C 57.921875 47.769531 55.90625 47.769531 55.90625 49.117188 C 55.90625 50.460938 57.921875 50.460938 57.921875 49.117188 "/>
<path style=" stroke:none;fill-rule:evenodd;fill:rgb(45.098039%,45.098039%,87.058824%);fill-opacity:1;" d="M 65.121094 6.277344 C 65.121094 4.929688 63.105469 4.929688 63.105469 6.277344 C 63.105469 7.621094 65.121094 7.621094 65.121094 6.277344 "/>
<path style=" stroke:none;fill-rule:evenodd;fill:rgb(45.098039%,45.098039%,87.058824%);fill-opacity:1;" d="M 65.121094 49.117188 C 65.121094 47.769531 63.105469 47.769531 63.105469 49.117188 C 63.105469 50.460938 65.121094 50.460938 65.121094 49.117188 "/>
<path style=" stroke:none;fill-rule:evenodd;fill:rgb(45.098039%,45.098039%,87.058824%);fill-opacity:1;" d="M 72.320312 6.277344 C 72.320312 4.929688 70.304688 4.929688 70.304688 6.277344 C 70.304688 7.621094 72.320312 7.621094 72.320312 6.277344 "/>
<path style=" stroke:none;fill-rule:evenodd;fill:rgb(45.098039%,45.098039%,87.058824%);fill-opacity:1;" d="M 72.320312 49.117188 C 72.320312 47.769531 70.304688 47.769531 70.304688 49.117188 C 70.304688 50.460938 72.320312 50.460938 72.320312 49.117188 "/>
<path style=" stroke:none;fill-rule:evenodd;fill:rgb(45.098039%,45.098039%,87.058824%);fill-opacity:1;" d="M 45.582031 14.945312 C 45.582031 13.265625 43.0625 13.265625 43.0625 14.945312 C 43.0625 16.625 45.582031 16.625 45.582031 14.945312 "/>
<path style=" stroke:none;fill-rule:evenodd;fill:rgb(45.098039%,45.098039%,87.058824%);fill-opacity:1;" d="M 45.582031 22.144531 C 45.582031 20.464844 43.0625 20.464844 43.0625 22.144531 C 43.0625 23.824219 45.582031 23.824219 45.582031 22.144531 "/>
<path style=" stroke:none;fill-rule:evenodd;fill:rgb(45.098039%,45.098039%,87.058824%);fill-opacity:1;" d="M 45.582031 29.34375 C 45.582031 27.664062 43.0625 27.664062 43.0625 29.34375 C 43.0625 31.023438 45.582031 31.023438 45.582031 29.34375 "/>
<path style=" stroke:none;fill-rule:evenodd;fill:rgb(45.098039%,45.098039%,87.058824%);fill-opacity:1;" d="M 45.582031 36.542969 C 45.582031 34.863281 43.0625 34.863281 43.0625 36.542969 C 43.0625 38.222656 45.582031 38.222656 45.582031 36.542969 "/>
<path style=" stroke:none;fill-rule:evenodd;fill:rgb(45.098039%,45.098039%,87.058824%);fill-opacity:1;" d="M 52.78125 18.542969 C 52.78125 16.863281 50.261719 16.863281 50.261719 18.542969 C 50.261719 20.222656 52.78125 20.222656 52.78125 18.542969 "/>
<path style=" stroke:none;fill-rule:evenodd;fill:rgb(45.098039%,45.098039%,87.058824%);fill-opacity:1;" d="M 52.78125 25.746094 C 52.78125 24.0625 50.261719 24.0625 50.261719 25.746094 C 50.261719 27.425781 52.78125 27.425781 52.78125 25.746094 "/>
<path style=" stroke:none;fill-rule:evenodd;fill:rgb(45.098039%,45.098039%,87.058824%);fill-opacity:1;" d="M 52.78125 32.945312 C 52.78125 31.265625 50.261719 31.265625 50.261719 32.945312 C 50.261719 34.625 52.78125 34.625 52.78125 32.945312 "/>
<path style=" stroke:none;fill-rule:evenodd;fill:rgb(45.098039%,45.098039%,87.058824%);fill-opacity:1;" d="M 52.78125 40.144531 C 52.78125 38.464844 50.261719 38.464844 50.261719 40.144531 C 50.261719 41.824219 52.78125 41.824219 52.78125 40.144531 "/>
<path style=" stroke:none;fill-rule:evenodd;fill:rgb(45.098039%,45.098039%,87.058824%);fill-opacity:1;" d="M 77.980469 18.542969 C 77.980469 16.863281 75.460938 16.863281 75.460938 18.542969 C 75.460938 20.222656 77.980469 20.222656 77.980469 18.542969 "/>
<path style=" stroke:none;fill-rule:evenodd;fill:rgb(45.098039%,45.098039%,87.058824%);fill-opacity:1;" d="M 77.980469 25.746094 C 77.980469 24.0625 75.460938 24.0625 75.460938 25.746094 C 75.460938 27.425781 77.980469 27.425781 77.980469 25.746094 "/>
<path style=" stroke:none;fill-rule:evenodd;fill:rgb(45.098039%,45.098039%,87.058824%);fill-opacity:1;" d="M 77.980469 32.945312 C 77.980469 31.265625 75.460938 31.265625 75.460938 32.945312 C 75.460938 34.625 77.980469 34.625 77.980469 32.945312 "/>
<path style=" stroke:none;fill-rule:evenodd;fill:rgb(45.098039%,45.098039%,87.058824%);fill-opacity:1;" d="M 77.980469 40.144531 C 77.980469 38.464844 75.460938 38.464844 75.460938 40.144531 C 75.460938 41.824219 77.980469 41.824219 77.980469 40.144531 "/>
<path style=" stroke:none;fill-rule:evenodd;fill:rgb(45.098039%,45.098039%,87.058824%);fill-opacity:1;" d="M 85.179688 14.945312 C 85.179688 13.265625 82.660156 13.265625 82.660156 14.945312 C 82.660156 16.625 85.179688 16.625 85.179688 14.945312 "/>
<path style=" stroke:none;fill-rule:evenodd;fill:rgb(45.098039%,45.098039%,87.058824%);fill-opacity:1;" d="M 85.179688 22.144531 C 85.179688 20.464844 82.660156 20.464844 82.660156 22.144531 C 82.660156 23.824219 85.179688 23.824219 85.179688 22.144531 "/>
<path style=" stroke:none;fill-rule:evenodd;fill:rgb(45.098039%,45.098039%,87.058824%);fill-opacity:1;" d="M 85.179688 29.34375 C 85.179688 27.664062 82.660156 27.664062 82.660156 29.34375 C 82.660156 31.023438 85.179688 31.023438 85.179688 29.34375 "/>
<path style=" stroke:none;fill-rule:evenodd;fill:rgb(45.098039%,45.098039%,87.058824%);fill-opacity:1;" d="M 85.179688 36.542969 C 85.179688 34.863281 82.660156 34.863281 82.660156 36.542969 C 82.660156 38.222656 85.179688 38.222656 85.179688 36.542969 "/>
<path style=" stroke:none;fill-rule:evenodd;fill:rgb(45.098039%,45.098039%,87.058824%);fill-opacity:1;" d="M 10.769531 14.945312 C 10.769531 13.121094 8.03125 13.121094 8.03125 14.945312 C 8.03125 16.769531 10.769531 16.769531 10.769531 14.945312 "/>
<path style=" stroke:none;fill-rule:evenodd;fill:rgb(45.098039%,45.098039%,87.058824%);fill-opacity:1;" d="M 10.769531 22.144531 C 10.769531 20.320312 8.03125 20.320312 8.03125 22.144531 C 8.03125 23.96875 10.769531 23.96875 10.769531 22.144531 "/>
<path style=" stroke:none;fill-rule:evenodd;fill:rgb(45.098039%,45.098039%,87.058824%);fill-opacity:1;" d="M 10.769531 29.34375 C 10.769531 27.519531 8.03125 27.519531 8.03125 29.34375 C 8.03125 31.167969 10.769531 31.167969 10.769531 29.34375 "/>
<path style=" stroke:none;fill-rule:evenodd;fill:rgb(45.098039%,45.098039%,87.058824%);fill-opacity:1;" d="M 10.769531 36.542969 C 10.769531 34.71875 8.03125 34.71875 8.03125 36.542969 C 8.03125 38.367188 10.769531 38.367188 10.769531 36.542969 "/>
<path style=" stroke:none;fill-rule:evenodd;fill:rgb(45.098039%,45.098039%,87.058824%);fill-opacity:1;" d="M 17.96875 14.945312 C 17.96875 13.121094 15.234375 13.121094 15.234375 14.945312 C 15.234375 16.769531 17.96875 16.769531 17.96875 14.945312 "/>
<path style=" stroke:none;fill-rule:evenodd;fill:rgb(45.098039%,45.098039%,87.058824%);fill-opacity:1;" d="M 17.96875 22.144531 C 17.96875 20.320312 15.234375 20.320312 15.234375 22.144531 C 15.234375 23.96875 17.96875 23.96875 17.96875 22.144531 "/>
<path style=" stroke:none;fill-rule:evenodd;fill:rgb(45.098039%,45.098039%,87.058824%);fill-opacity:1;" d="M 17.96875 29.34375 C 17.96875 27.519531 15.234375 27.519531 15.234375 29.34375 C 15.234375 31.167969 17.96875 31.167969 17.96875 29.34375 "/>
<path style=" stroke:none;fill-rule:evenodd;fill:rgb(45.098039%,45.098039%,87.058824%);fill-opacity:1;" d="M 17.96875 36.542969 C 17.96875 34.71875 15.234375 34.71875 15.234375 36.542969 C 15.234375 38.367188 17.96875 38.367188 17.96875 36.542969 "/>
<path style=" stroke:none;fill-rule:evenodd;fill:rgb(45.098039%,45.098039%,87.058824%);fill-opacity:1;" d="M 19.941406 5.195312 C 19.941406 2.171875 15.40625 2.171875 15.40625 5.195312 C 15.40625 8.21875 19.941406 8.21875 19.941406 5.195312 "/>
<path style=" stroke:none;fill-rule:evenodd;fill:rgb(45.098039%,45.098039%,87.058824%);fill-opacity:1;" d="M 19.941406 49.84375 C 19.941406 46.820312 15.40625 46.820312 15.40625 49.84375 C 15.40625 52.867188 19.941406 52.867188 19.941406 49.84375 "/>
<path style=" stroke:none;fill-rule:evenodd;fill:rgb(45.098039%,45.098039%,87.058824%);fill-opacity:1;" d="M 112.835938 5.195312 C 112.835938 2.171875 108.300781 2.171875 108.300781 5.195312 C 108.300781 8.21875 112.835938 8.21875 112.835938 5.195312 "/>
<path style=" stroke:none;fill-rule:evenodd;fill:rgb(45.098039%,45.098039%,87.058824%);fill-opacity:1;" d="M 112.835938 49.84375 C 112.835938 46.820312 108.300781 46.820312 108.300781 49.84375 C 108.300781 52.867188 112.835938 52.867188 112.835938 49.84375 "/>
<path style=" stroke:none;fill-rule:evenodd;fill:rgb(45.098039%,45.098039%,87.058824%);fill-opacity:1;" d="M 30.929688 11.34375 C 30.929688 5.199219 21.714844 5.199219 21.714844 11.34375 C 21.714844 17.488281 30.929688 17.488281 30.929688 11.34375 "/>
<path style=" stroke:none;fill-rule:evenodd;fill:rgb(45.098039%,45.098039%,87.058824%);fill-opacity:1;" d="M 30.929688 43.746094 C 30.929688 37.601562 21.714844 37.601562 21.714844 43.746094 C 21.714844 49.886719 30.929688 49.886719 30.929688 43.746094 "/>
<path style=" stroke:none;fill-rule:evenodd;fill:rgb(45.098039%,45.098039%,87.058824%);fill-opacity:1;" d="M 106.527344 11.34375 C 106.527344 5.199219 97.3125 5.199219 97.3125 11.34375 C 97.3125 17.488281 106.527344 17.488281 106.527344 11.34375 "/>
<path style=" stroke:none;fill-rule:evenodd;fill:rgb(45.098039%,45.098039%,87.058824%);fill-opacity:1;" d="M 106.527344 43.746094 C 106.527344 37.601562 97.3125 37.601562 97.3125 43.746094 C 97.3125 49.886719 106.527344 49.886719 106.527344 43.746094 "/>
</g>
</svg>
