G04 start of page 2 for group 0 idx 0 *
G04 Title: (unknown), top *
G04 Creator: pcb 1.99z *
G04 CreationDate: Fri 14 Nov 2014 07:38:11 PM GMT UTC *
G04 For: commonadmin *
G04 Format: Gerber/RS-274X *
G04 PCB-Dimensions (mil): 1705.00 735.00 *
G04 PCB-Coordinate-Origin: lower left *
%MOIN*%
%FSLAX25Y25*%
%LNTOP*%
%ADD26C,0.0380*%
%ADD25C,0.0280*%
%ADD24C,0.0630*%
%ADD23C,0.1280*%
%ADD22C,0.0354*%
%ADD21C,0.0130*%
%ADD20C,0.0270*%
%ADD19R,0.0295X0.0295*%
%ADD18C,0.0120*%
%ADD17R,0.0120X0.0120*%
%ADD16C,0.0600*%
%ADD15C,0.0827*%
%ADD14C,0.1476*%
%ADD13C,0.0551*%
%ADD12C,0.0060*%
%ADD11C,0.0001*%
G54D11*G36*
X101317Y25385D02*X101344Y25374D01*
X101919Y25236D01*
X102508Y25189D01*
X103097Y25236D01*
X103672Y25374D01*
X104218Y25600D01*
X104722Y25909D01*
X105172Y26293D01*
X105556Y26742D01*
X105865Y27246D01*
X106034Y27655D01*
X111814Y27653D01*
X111344Y27540D01*
X110797Y27314D01*
X110293Y27005D01*
X109844Y26621D01*
X109460Y26171D01*
X109151Y25667D01*
X108925Y25121D01*
X108787Y24546D01*
X108740Y23957D01*
X108787Y23367D01*
X108925Y22792D01*
X109151Y22246D01*
X109460Y21742D01*
X109844Y21293D01*
X110293Y20909D01*
X110797Y20600D01*
X111344Y20374D01*
X111848Y20253D01*
X106035Y20255D01*
X105865Y20667D01*
X105556Y21171D01*
X105172Y21621D01*
X104722Y22005D01*
X104218Y22314D01*
X103672Y22540D01*
X103097Y22678D01*
X102508Y22724D01*
X101919Y22678D01*
X101344Y22540D01*
X101317Y22529D01*
Y25385D01*
G37*
G36*
Y45385D02*X101344Y45374D01*
X101919Y45236D01*
X102508Y45189D01*
X103097Y45236D01*
X103672Y45374D01*
X104218Y45600D01*
X104722Y45909D01*
X105172Y46293D01*
X105556Y46742D01*
X105865Y47246D01*
X106034Y47655D01*
X111814Y47653D01*
X111344Y47540D01*
X110797Y47314D01*
X110293Y47005D01*
X109844Y46621D01*
X109460Y46171D01*
X109151Y45667D01*
X108925Y45121D01*
X108787Y44546D01*
X108740Y43957D01*
X108787Y43367D01*
X108925Y42792D01*
X109151Y42246D01*
X109460Y41742D01*
X109844Y41293D01*
X110293Y40909D01*
X110797Y40600D01*
X111344Y40374D01*
X111848Y40253D01*
X106035Y40255D01*
X105865Y40667D01*
X105556Y41171D01*
X105172Y41621D01*
X104722Y42005D01*
X104218Y42314D01*
X103672Y42540D01*
X103097Y42678D01*
X102508Y42724D01*
X101919Y42678D01*
X101344Y42540D01*
X101317Y42529D01*
Y45385D01*
G37*
G36*
X169008Y71957D02*Y1457D01*
X125626D01*
Y15493D01*
X127259Y15498D01*
X127412Y15535D01*
X127557Y15595D01*
X127692Y15677D01*
X127811Y15779D01*
X127913Y15899D01*
X127996Y16033D01*
X128056Y16179D01*
X128093Y16332D01*
X128102Y16489D01*
X128093Y20582D01*
X128056Y20735D01*
X127996Y20880D01*
X127949Y20957D01*
X127996Y21033D01*
X128056Y21179D01*
X128093Y21332D01*
X128102Y21489D01*
X128093Y25582D01*
X128056Y25735D01*
X127996Y25880D01*
X127949Y25957D01*
X127996Y26033D01*
X128056Y26179D01*
X128093Y26332D01*
X128102Y26489D01*
X128093Y30582D01*
X128056Y30735D01*
X127996Y30880D01*
X127949Y30957D01*
X127996Y31033D01*
X128056Y31179D01*
X128093Y31332D01*
X128102Y31489D01*
X128093Y35582D01*
X128056Y35735D01*
X127996Y35880D01*
X127949Y35957D01*
X127996Y36033D01*
X128056Y36179D01*
X128093Y36332D01*
X128102Y36489D01*
X128093Y40582D01*
X128056Y40735D01*
X127996Y40880D01*
X127949Y40957D01*
X127996Y41033D01*
X128056Y41179D01*
X128093Y41332D01*
X128102Y41489D01*
X128093Y45582D01*
X128056Y45735D01*
X127996Y45880D01*
X127949Y45957D01*
X127996Y46033D01*
X128056Y46179D01*
X128093Y46332D01*
X128102Y46489D01*
X128093Y50582D01*
X128056Y50735D01*
X127996Y50880D01*
X127949Y50957D01*
X127996Y51033D01*
X128056Y51179D01*
X128093Y51332D01*
X128102Y51489D01*
X128093Y55582D01*
X128056Y55735D01*
X127996Y55880D01*
X127913Y56014D01*
X127811Y56134D01*
X127692Y56236D01*
X127557Y56318D01*
X127412Y56379D01*
X127259Y56415D01*
X127102Y56425D01*
X125626Y56420D01*
Y71957D01*
X169008D01*
G37*
G36*
X125626Y1457D02*X101317D01*
Y15385D01*
X101344Y15374D01*
X101919Y15236D01*
X102508Y15189D01*
X103097Y15236D01*
X103672Y15374D01*
X104218Y15600D01*
X104722Y15909D01*
X105172Y16293D01*
X105556Y16742D01*
X105865Y17246D01*
X106034Y17655D01*
X118038Y17650D01*
X118041Y16332D01*
X118078Y16179D01*
X118138Y16033D01*
X118220Y15899D01*
X118323Y15779D01*
X118442Y15677D01*
X118577Y15595D01*
X118722Y15535D01*
X118875Y15498D01*
X119032Y15489D01*
X122141Y15498D01*
X122294Y15535D01*
X122439Y15595D01*
X122574Y15677D01*
X122693Y15779D01*
X122795Y15899D01*
X122878Y16033D01*
X122938Y16179D01*
X122975Y16332D01*
X122984Y16489D01*
X122975Y20582D01*
X122938Y20735D01*
X122878Y20880D01*
X122831Y20957D01*
X122878Y21033D01*
X122938Y21179D01*
X122975Y21332D01*
X122984Y21489D01*
X122975Y25582D01*
X122938Y25735D01*
X122878Y25880D01*
X122831Y25957D01*
X122878Y26033D01*
X122938Y26179D01*
X122975Y26332D01*
X122984Y26489D01*
X122975Y30582D01*
X122938Y30735D01*
X122878Y30880D01*
X122831Y30957D01*
X122878Y31033D01*
X122938Y31179D01*
X122975Y31332D01*
X122984Y31489D01*
X122975Y35582D01*
X122938Y35735D01*
X122878Y35880D01*
X122831Y35957D01*
X122878Y36033D01*
X122938Y36179D01*
X122975Y36332D01*
X122984Y36489D01*
X122975Y40582D01*
X122938Y40735D01*
X122878Y40880D01*
X122831Y40957D01*
X122878Y41033D01*
X122938Y41179D01*
X122975Y41332D01*
X122984Y41489D01*
X122975Y45582D01*
X122938Y45735D01*
X122878Y45880D01*
X122831Y45957D01*
X122878Y46033D01*
X122938Y46179D01*
X122975Y46332D01*
X122984Y46489D01*
X122975Y50582D01*
X122938Y50735D01*
X122878Y50880D01*
X122831Y50957D01*
X122878Y51033D01*
X122938Y51179D01*
X122975Y51332D01*
X122984Y51489D01*
X122975Y55582D01*
X122938Y55735D01*
X122878Y55880D01*
X122795Y56014D01*
X122693Y56134D01*
X122574Y56236D01*
X122439Y56318D01*
X122294Y56379D01*
X122141Y56415D01*
X121984Y56425D01*
X118875Y56415D01*
X118722Y56379D01*
X118577Y56318D01*
X118442Y56236D01*
X118323Y56134D01*
X118220Y56014D01*
X118138Y55880D01*
X118078Y55735D01*
X118041Y55582D01*
X118032Y55425D01*
X118032Y55251D01*
X116036Y55253D01*
X115865Y55667D01*
X115556Y56171D01*
X115172Y56621D01*
X114722Y57005D01*
X114218Y57314D01*
X113672Y57540D01*
X113097Y57678D01*
X112508Y57724D01*
X111919Y57678D01*
X111344Y57540D01*
X110797Y57314D01*
X110293Y57005D01*
X109844Y56621D01*
X109460Y56171D01*
X109151Y55667D01*
X108925Y55121D01*
X108787Y54546D01*
X108740Y53957D01*
X108787Y53367D01*
X108925Y52792D01*
X109151Y52246D01*
X109460Y51742D01*
X109844Y51293D01*
X110293Y50909D01*
X110797Y50600D01*
X111344Y50374D01*
X111848Y50253D01*
X106035Y50255D01*
X105865Y50667D01*
X105556Y51171D01*
X105172Y51621D01*
X104722Y52005D01*
X104218Y52314D01*
X103672Y52540D01*
X103097Y52678D01*
X102508Y52724D01*
X101919Y52678D01*
X101344Y52540D01*
X101317Y52529D01*
Y71957D01*
X125626D01*
Y56420D01*
X123993Y56415D01*
X123840Y56379D01*
X123695Y56318D01*
X123560Y56236D01*
X123441Y56134D01*
X123338Y56014D01*
X123256Y55880D01*
X123196Y55735D01*
X123159Y55582D01*
X123150Y55425D01*
X123159Y51332D01*
X123196Y51179D01*
X123256Y51033D01*
X123303Y50957D01*
X123256Y50880D01*
X123196Y50735D01*
X123159Y50582D01*
X123150Y50425D01*
X123159Y46332D01*
X123196Y46179D01*
X123256Y46033D01*
X123303Y45957D01*
X123256Y45880D01*
X123196Y45735D01*
X123159Y45582D01*
X123150Y45425D01*
X123159Y41332D01*
X123196Y41179D01*
X123256Y41033D01*
X123303Y40957D01*
X123256Y40880D01*
X123196Y40735D01*
X123159Y40582D01*
X123150Y40425D01*
X123159Y36332D01*
X123196Y36179D01*
X123256Y36033D01*
X123303Y35957D01*
X123256Y35880D01*
X123196Y35735D01*
X123159Y35582D01*
X123150Y35425D01*
X123159Y31332D01*
X123196Y31179D01*
X123256Y31033D01*
X123303Y30957D01*
X123256Y30880D01*
X123196Y30735D01*
X123159Y30582D01*
X123150Y30425D01*
X123159Y26332D01*
X123196Y26179D01*
X123256Y26033D01*
X123303Y25957D01*
X123256Y25880D01*
X123196Y25735D01*
X123159Y25582D01*
X123150Y25425D01*
X123159Y21332D01*
X123196Y21179D01*
X123256Y21033D01*
X123303Y20957D01*
X123256Y20880D01*
X123196Y20735D01*
X123159Y20582D01*
X123150Y20425D01*
X123159Y16332D01*
X123196Y16179D01*
X123256Y16033D01*
X123338Y15899D01*
X123441Y15779D01*
X123560Y15677D01*
X123695Y15595D01*
X123840Y15535D01*
X123993Y15498D01*
X124150Y15489D01*
X125626Y15493D01*
Y1457D01*
G37*
G36*
X89254Y71957D02*X101317D01*
Y52529D01*
X100797Y52314D01*
X100293Y52005D01*
X99844Y51621D01*
X99460Y51171D01*
X99151Y50667D01*
X98925Y50121D01*
X98787Y49546D01*
X98740Y48957D01*
X98787Y48367D01*
X98925Y47792D01*
X99151Y47246D01*
X99460Y46742D01*
X99844Y46293D01*
X100293Y45909D01*
X100797Y45600D01*
X101317Y45385D01*
Y42529D01*
X100797Y42314D01*
X100293Y42005D01*
X99844Y41621D01*
X99460Y41171D01*
X99151Y40667D01*
X98925Y40121D01*
X98787Y39546D01*
X98786Y39535D01*
X98750Y39685D01*
X98608Y40027D01*
X98415Y40342D01*
X98175Y40624D01*
X97893Y40864D01*
X97578Y41057D01*
X97236Y41199D01*
X96877Y41285D01*
X96508Y41314D01*
X96139Y41285D01*
X95779Y41199D01*
X95438Y41057D01*
X95122Y40864D01*
X94841Y40624D01*
X94601Y40342D01*
X94408Y40027D01*
X94266Y39685D01*
X94180Y39325D01*
X94151Y38957D01*
X94180Y38588D01*
X94266Y38228D01*
X94408Y37887D01*
X94601Y37571D01*
X94841Y37290D01*
X95122Y37050D01*
X95438Y36856D01*
X95779Y36715D01*
X95953Y36673D01*
X100497Y32129D01*
X100293Y32005D01*
X99844Y31621D01*
X99460Y31171D01*
X99151Y30667D01*
X98925Y30121D01*
X98787Y29546D01*
X98740Y28957D01*
X98787Y28367D01*
X98925Y27792D01*
X99151Y27246D01*
X99460Y26742D01*
X99844Y26293D01*
X100293Y25909D01*
X100797Y25600D01*
X101317Y25385D01*
Y22529D01*
X100797Y22314D01*
X100293Y22005D01*
X99844Y21621D01*
X99460Y21171D01*
X99151Y20667D01*
X98925Y20121D01*
X98787Y19546D01*
X98786Y19535D01*
X98750Y19685D01*
X98608Y20027D01*
X98415Y20342D01*
X98175Y20624D01*
X97893Y20864D01*
X97808Y20916D01*
Y24806D01*
X97812Y24857D01*
X97796Y25060D01*
X97796Y25061D01*
X97760Y25212D01*
X97748Y25260D01*
X97716Y25338D01*
X97670Y25449D01*
X97628Y25516D01*
X97563Y25623D01*
X97563Y25623D01*
X97430Y25779D01*
X97391Y25812D01*
X95002Y28201D01*
X94994Y30592D01*
X94939Y30822D01*
X94849Y31040D01*
X94725Y31241D01*
X94572Y31421D01*
X94392Y31574D01*
X94191Y31697D01*
X93973Y31788D01*
X93743Y31843D01*
X93508Y31857D01*
X92072Y31843D01*
X91908Y31803D01*
X91743Y31843D01*
X91508Y31857D01*
X90072Y31843D01*
X89958Y31815D01*
X89843Y31843D01*
X89608Y31857D01*
X89254Y31853D01*
Y41565D01*
X89843Y41571D01*
X90008Y41610D01*
X90172Y41571D01*
X90408Y41557D01*
X91843Y41571D01*
X92073Y41626D01*
X92248Y41698D01*
X92357Y41653D01*
X92678Y41576D01*
X93008Y41550D01*
X93337Y41576D01*
X93659Y41653D01*
X93964Y41780D01*
X94246Y41953D01*
X94497Y42167D01*
X94712Y42419D01*
X94885Y42700D01*
X95011Y43006D01*
X95088Y43327D01*
X95108Y43657D01*
Y44918D01*
X97391Y47201D01*
X97430Y47235D01*
X97563Y47390D01*
X97563Y47390D01*
X97670Y47565D01*
X97748Y47754D01*
X97796Y47953D01*
X97812Y48157D01*
X97808Y48208D01*
Y51997D01*
X97893Y52050D01*
X98175Y52290D01*
X98415Y52571D01*
X98608Y52887D01*
X98750Y53228D01*
X98836Y53588D01*
X98858Y53957D01*
X98836Y54325D01*
X98750Y54685D01*
X98608Y55027D01*
X98415Y55342D01*
X98175Y55624D01*
X97893Y55864D01*
X97578Y56057D01*
X97236Y56199D01*
X96877Y56285D01*
X96508Y56314D01*
X96139Y56285D01*
X95779Y56199D01*
X95438Y56057D01*
X95122Y55864D01*
X94841Y55624D01*
X94601Y55342D01*
X94408Y55027D01*
X94266Y54685D01*
X94180Y54325D01*
X94151Y53957D01*
X94180Y53588D01*
X94266Y53228D01*
X94408Y52887D01*
X94601Y52571D01*
X94841Y52290D01*
X95122Y52050D01*
X95208Y51997D01*
Y48695D01*
X94369Y47856D01*
X94246Y47961D01*
X93964Y48134D01*
X93659Y48260D01*
X93337Y48337D01*
X93277Y48342D01*
X93336Y48588D01*
X93358Y48957D01*
X93336Y49325D01*
X93250Y49685D01*
X93108Y50027D01*
X92915Y50342D01*
X92675Y50624D01*
X92393Y50864D01*
X92078Y51057D01*
X91736Y51199D01*
X91377Y51285D01*
X91008Y51314D01*
X90639Y51285D01*
X90279Y51199D01*
X89938Y51057D01*
X89622Y50864D01*
X89341Y50624D01*
X89254Y50522D01*
Y71957D01*
G37*
G36*
X101317Y1457D02*X89254D01*
Y22391D01*
X89341Y22290D01*
X89622Y22050D01*
X89938Y21856D01*
X90279Y21715D01*
X90639Y21628D01*
X91008Y21599D01*
X91377Y21628D01*
X91736Y21715D01*
X92078Y21856D01*
X92393Y22050D01*
X92675Y22290D01*
X92915Y22571D01*
X93108Y22887D01*
X93250Y23228D01*
X93336Y23588D01*
X93358Y23957D01*
X93336Y24325D01*
X93250Y24685D01*
X93108Y25027D01*
X93085Y25064D01*
X93743Y25071D01*
X93973Y25126D01*
X94191Y25216D01*
X94265Y25261D01*
X95208Y24318D01*
Y20916D01*
X95122Y20864D01*
X94841Y20624D01*
X94601Y20342D01*
X94408Y20027D01*
X94266Y19685D01*
X94180Y19325D01*
X94151Y18957D01*
X94180Y18588D01*
X94266Y18228D01*
X94408Y17887D01*
X94601Y17571D01*
X94841Y17290D01*
X95122Y17050D01*
X95438Y16856D01*
X95779Y16715D01*
X96139Y16628D01*
X96508Y16599D01*
X96877Y16628D01*
X97236Y16715D01*
X97578Y16856D01*
X97893Y17050D01*
X98175Y17290D01*
X98415Y17571D01*
X98608Y17887D01*
X98750Y18228D01*
X98786Y18379D01*
X98787Y18367D01*
X98925Y17792D01*
X99151Y17246D01*
X99460Y16742D01*
X99844Y16293D01*
X100293Y15909D01*
X100797Y15600D01*
X101317Y15385D01*
Y1457D01*
G37*
G36*
X89254D02*X67502D01*
Y15190D01*
X67508Y15189D01*
X68097Y15236D01*
X68672Y15374D01*
X69218Y15600D01*
X69722Y15909D01*
X70172Y16293D01*
X70556Y16742D01*
X70865Y17246D01*
X71091Y17792D01*
X71229Y18367D01*
X71264Y18957D01*
X71229Y19546D01*
X71091Y20121D01*
X70865Y20667D01*
X70556Y21171D01*
X70172Y21621D01*
X69722Y22005D01*
X69218Y22314D01*
X68672Y22540D01*
X68097Y22678D01*
X67508Y22724D01*
X67502Y22724D01*
Y25190D01*
X67508Y25189D01*
X68097Y25236D01*
X68672Y25374D01*
X69218Y25600D01*
X69722Y25909D01*
X70172Y26293D01*
X70556Y26742D01*
X70865Y27246D01*
X71091Y27792D01*
X71229Y28367D01*
X71264Y28957D01*
X71229Y29546D01*
X71091Y30121D01*
X70865Y30667D01*
X70556Y31171D01*
X70172Y31621D01*
X69722Y32005D01*
X69218Y32314D01*
X68808Y32484D01*
Y33406D01*
X68812Y33457D01*
X68796Y33660D01*
X68796Y33661D01*
X68760Y33812D01*
X68748Y33860D01*
X68716Y33938D01*
X68670Y34049D01*
X68628Y34116D01*
X68563Y34223D01*
X68563Y34223D01*
X68430Y34379D01*
X68391Y34412D01*
X67606Y35197D01*
X68097Y35236D01*
X68672Y35374D01*
X69218Y35600D01*
X69722Y35909D01*
X70172Y36293D01*
X70556Y36742D01*
X70865Y37246D01*
X71091Y37792D01*
X71229Y38367D01*
X71264Y38957D01*
X71229Y39546D01*
X71091Y40121D01*
X70865Y40667D01*
X70556Y41171D01*
X70172Y41621D01*
X69722Y42005D01*
X69218Y42314D01*
X68672Y42540D01*
X68097Y42678D01*
X67508Y42724D01*
X67502Y42724D01*
Y45190D01*
X67508Y45189D01*
X68097Y45236D01*
X68672Y45374D01*
X69218Y45600D01*
X69722Y45909D01*
X70172Y46293D01*
X70556Y46742D01*
X70865Y47246D01*
X71091Y47792D01*
X71229Y48367D01*
X71264Y48957D01*
X71229Y49546D01*
X71091Y50121D01*
X70865Y50667D01*
X70556Y51171D01*
X70172Y51621D01*
X69722Y52005D01*
X69218Y52314D01*
X68672Y52540D01*
X68097Y52678D01*
X67508Y52724D01*
X67502Y52724D01*
Y71957D01*
X89254D01*
Y50522D01*
X89101Y50342D01*
X88908Y50027D01*
X88766Y49685D01*
X88680Y49325D01*
X88674Y49248D01*
X88508Y49261D01*
X88457Y49257D01*
X83559D01*
X83508Y49261D01*
X83304Y49245D01*
X83105Y49197D01*
X82916Y49119D01*
X82741Y49012D01*
X82741Y49011D01*
X82586Y48879D01*
X82553Y48840D01*
X81125Y47412D01*
X81086Y47379D01*
X80953Y47223D01*
X80846Y47049D01*
X80768Y46860D01*
X80720Y46661D01*
X80720Y46660D01*
X80704Y46457D01*
X80708Y46406D01*
Y45916D01*
X80622Y45864D01*
X80341Y45624D01*
X80101Y45342D01*
X79908Y45027D01*
X79766Y44685D01*
X79680Y44325D01*
X79651Y43957D01*
X79680Y43588D01*
X79766Y43228D01*
X79908Y42887D01*
X80101Y42571D01*
X80341Y42290D01*
X80622Y42050D01*
X80938Y41856D01*
X81279Y41715D01*
X81639Y41628D01*
X82008Y41599D01*
X82377Y41628D01*
X82736Y41715D01*
X83078Y41856D01*
X83393Y42050D01*
X83395Y42051D01*
X83444Y41993D01*
X83623Y41839D01*
X83825Y41716D01*
X84043Y41626D01*
X84272Y41571D01*
X84508Y41557D01*
X85808Y41569D01*
Y41095D01*
X84969Y40257D01*
X83967D01*
X83915Y40342D01*
X83675Y40624D01*
X83393Y40864D01*
X83078Y41057D01*
X82736Y41199D01*
X82377Y41285D01*
X82008Y41314D01*
X81639Y41285D01*
X81279Y41199D01*
X80938Y41057D01*
X80622Y40864D01*
X80341Y40624D01*
X80101Y40342D01*
X79908Y40027D01*
X79766Y39685D01*
X79680Y39325D01*
X79651Y38957D01*
X79680Y38588D01*
X79766Y38228D01*
X79908Y37887D01*
X80101Y37571D01*
X80341Y37290D01*
X80622Y37050D01*
X80938Y36856D01*
X81279Y36715D01*
X81639Y36628D01*
X82008Y36599D01*
X82377Y36628D01*
X82736Y36715D01*
X83078Y36856D01*
X83393Y37050D01*
X83675Y37290D01*
X83915Y37571D01*
X83967Y37657D01*
X85457D01*
X85508Y37653D01*
X85711Y37669D01*
X85712Y37669D01*
X85911Y37717D01*
X86100Y37795D01*
X86274Y37902D01*
X86430Y38035D01*
X86463Y38074D01*
X87991Y39601D01*
X88030Y39635D01*
X88163Y39790D01*
X88163Y39790D01*
X88270Y39965D01*
X88348Y40154D01*
X88396Y40353D01*
X88412Y40557D01*
X88408Y40608D01*
Y41557D01*
X89254Y41565D01*
Y31853D01*
X88308Y31844D01*
Y32406D01*
X88312Y32457D01*
X88296Y32660D01*
X88296Y32661D01*
X88260Y32812D01*
X88248Y32860D01*
X88216Y32938D01*
X88170Y33049D01*
X88128Y33116D01*
X88063Y33223D01*
X88063Y33223D01*
X87930Y33379D01*
X87891Y33412D01*
X86463Y34840D01*
X86430Y34879D01*
X86274Y35012D01*
X86100Y35119D01*
X85911Y35197D01*
X85712Y35245D01*
X85711Y35245D01*
X85508Y35261D01*
X85457Y35257D01*
X83967D01*
X83915Y35342D01*
X83675Y35624D01*
X83393Y35864D01*
X83078Y36057D01*
X82736Y36199D01*
X82377Y36285D01*
X82008Y36314D01*
X81639Y36285D01*
X81279Y36199D01*
X80938Y36057D01*
X80622Y35864D01*
X80341Y35624D01*
X80101Y35342D01*
X79908Y35027D01*
X79766Y34685D01*
X79680Y34325D01*
X79651Y33957D01*
X79680Y33588D01*
X79766Y33228D01*
X79908Y32887D01*
X80101Y32571D01*
X80341Y32290D01*
X80622Y32050D01*
X80938Y31856D01*
X81279Y31715D01*
X81639Y31628D01*
X82008Y31599D01*
X82377Y31628D01*
X82736Y31715D01*
X83078Y31856D01*
X83330Y32011D01*
X83268Y31860D01*
X83220Y31661D01*
X83204Y31457D01*
X83218Y31274D01*
X83191Y31241D01*
X83078Y31057D01*
X82736Y31199D01*
X82377Y31285D01*
X82008Y31314D01*
X81639Y31285D01*
X81279Y31199D01*
X80938Y31057D01*
X80622Y30864D01*
X80341Y30624D01*
X80101Y30342D01*
X79908Y30027D01*
X79766Y29685D01*
X79680Y29325D01*
X79651Y28957D01*
X79680Y28588D01*
X79766Y28228D01*
X79908Y27887D01*
X80101Y27571D01*
X80341Y27290D01*
X80622Y27050D01*
X80708Y26997D01*
Y26508D01*
X80704Y26457D01*
X80720Y26253D01*
X80720Y26253D01*
X80768Y26054D01*
X80846Y25865D01*
X80887Y25798D01*
X80953Y25690D01*
X80953Y25690D01*
X81086Y25535D01*
X81125Y25501D01*
X82053Y24573D01*
X82086Y24535D01*
X82241Y24402D01*
X82241Y24402D01*
X82350Y24335D01*
X82416Y24295D01*
X82605Y24217D01*
X82804Y24169D01*
X82804Y24169D01*
X83008Y24153D01*
X83059Y24157D01*
X88457D01*
X88508Y24153D01*
X88667Y24165D01*
X88651Y23957D01*
X88680Y23588D01*
X88766Y23228D01*
X88908Y22887D01*
X89101Y22571D01*
X89254Y22391D01*
Y1457D01*
G37*
G36*
X67502Y42724D02*X66919Y42678D01*
X66344Y42540D01*
X65797Y42314D01*
X65293Y42005D01*
X65293Y42004D01*
X65250Y42185D01*
X65108Y42527D01*
X64915Y42842D01*
X64675Y43124D01*
X64393Y43364D01*
X64078Y43557D01*
X63736Y43699D01*
X63377Y43785D01*
X63008Y43814D01*
X62639Y43785D01*
X62502Y43752D01*
Y71957D01*
X67502D01*
Y52724D01*
X66919Y52678D01*
X66344Y52540D01*
X65797Y52314D01*
X65293Y52005D01*
X64844Y51621D01*
X64460Y51171D01*
X64151Y50667D01*
X63925Y50121D01*
X63787Y49546D01*
X63740Y48957D01*
X63787Y48367D01*
X63925Y47792D01*
X64151Y47246D01*
X64460Y46742D01*
X64844Y46293D01*
X65293Y45909D01*
X65797Y45600D01*
X66344Y45374D01*
X66919Y45236D01*
X67502Y45190D01*
Y42724D01*
G37*
G36*
Y1457D02*X62502D01*
Y36624D01*
X66208Y32918D01*
Y32484D01*
X65797Y32314D01*
X65293Y32005D01*
X64844Y31621D01*
X64460Y31171D01*
X64151Y30667D01*
X63925Y30121D01*
X63787Y29546D01*
X63740Y28957D01*
X63787Y28367D01*
X63925Y27792D01*
X64151Y27246D01*
X64460Y26742D01*
X64844Y26293D01*
X65293Y25909D01*
X65797Y25600D01*
X66344Y25374D01*
X66919Y25236D01*
X67502Y25190D01*
Y22724D01*
X66919Y22678D01*
X66344Y22540D01*
X65797Y22314D01*
X65293Y22005D01*
X64844Y21621D01*
X64460Y21171D01*
X64151Y20667D01*
X63925Y20121D01*
X63787Y19546D01*
X63740Y18957D01*
X63787Y18367D01*
X63925Y17792D01*
X64151Y17246D01*
X64460Y16742D01*
X64844Y16293D01*
X65293Y15909D01*
X65797Y15600D01*
X66344Y15374D01*
X66919Y15236D01*
X67502Y15190D01*
Y1457D01*
G37*
G36*
X57502Y71957D02*X62502D01*
Y43752D01*
X62279Y43699D01*
X61938Y43557D01*
X61622Y43364D01*
X61341Y43124D01*
X61104Y42846D01*
X61229Y43367D01*
X61264Y43957D01*
X61229Y44546D01*
X61091Y45121D01*
X60865Y45667D01*
X60556Y46171D01*
X60172Y46621D01*
X59722Y47005D01*
X59218Y47314D01*
X58672Y47540D01*
X58097Y47678D01*
X57508Y47724D01*
X57502Y47724D01*
Y50190D01*
X57508Y50189D01*
X58097Y50236D01*
X58672Y50374D01*
X59218Y50600D01*
X59722Y50909D01*
X60172Y51293D01*
X60556Y51742D01*
X60865Y52246D01*
X61091Y52792D01*
X61229Y53367D01*
X61264Y53957D01*
X61229Y54546D01*
X61091Y55121D01*
X60865Y55667D01*
X60556Y56171D01*
X60172Y56621D01*
X59722Y57005D01*
X59218Y57314D01*
X58672Y57540D01*
X58097Y57678D01*
X57508Y57724D01*
X57502Y57724D01*
Y71957D01*
G37*
G36*
X62502Y1457D02*X57502D01*
Y20190D01*
X57508Y20189D01*
X58097Y20236D01*
X58672Y20374D01*
X59218Y20600D01*
X59722Y20909D01*
X60172Y21293D01*
X60556Y21742D01*
X60865Y22246D01*
X61091Y22792D01*
X61229Y23367D01*
X61264Y23957D01*
X61229Y24546D01*
X61091Y25121D01*
X60865Y25667D01*
X60556Y26171D01*
X60172Y26621D01*
X59722Y27005D01*
X59218Y27314D01*
X58672Y27540D01*
X58097Y27678D01*
X57508Y27724D01*
X57502Y27724D01*
Y30190D01*
X57508Y30189D01*
X58097Y30236D01*
X58672Y30374D01*
X59218Y30600D01*
X59722Y30909D01*
X60172Y31293D01*
X60556Y31742D01*
X60865Y32246D01*
X61091Y32792D01*
X61229Y33367D01*
X61264Y33957D01*
X61229Y34546D01*
X61091Y35121D01*
X60865Y35667D01*
X60556Y36171D01*
X60172Y36621D01*
X59722Y37005D01*
X59218Y37314D01*
X58672Y37540D01*
X58097Y37678D01*
X57508Y37724D01*
X57502Y37724D01*
Y40190D01*
X57508Y40189D01*
X58097Y40236D01*
X58672Y40374D01*
X59218Y40600D01*
X59722Y40909D01*
X60172Y41293D01*
X60556Y41742D01*
X60727Y42021D01*
X60680Y41825D01*
X60651Y41457D01*
X60680Y41088D01*
X60766Y40728D01*
X60908Y40387D01*
X61101Y40071D01*
X61341Y39790D01*
X61622Y39550D01*
X61708Y39497D01*
Y38008D01*
X61704Y37957D01*
X61720Y37753D01*
X61720Y37753D01*
X61768Y37554D01*
X61846Y37365D01*
X61887Y37298D01*
X61953Y37190D01*
X61953Y37190D01*
X62086Y37035D01*
X62125Y37001D01*
X62502Y36624D01*
Y1457D01*
G37*
G36*
X57502D02*X19001D01*
Y19443D01*
X19008Y19443D01*
X19714Y19498D01*
X20403Y19664D01*
X21057Y19935D01*
X21661Y20305D01*
X22200Y20765D01*
X22660Y21304D01*
X23030Y21907D01*
X23301Y22562D01*
X23466Y23251D01*
X23508Y23957D01*
X23466Y24663D01*
X23301Y25352D01*
X23030Y26006D01*
X22660Y26610D01*
X22200Y27148D01*
X21661Y27608D01*
X21057Y27979D01*
X20403Y28250D01*
X19714Y28415D01*
X19008Y28471D01*
X19001Y28470D01*
Y29443D01*
X19008Y29443D01*
X19714Y29498D01*
X20403Y29664D01*
X21057Y29935D01*
X21661Y30305D01*
X22200Y30765D01*
X22660Y31304D01*
X23030Y31907D01*
X23301Y32562D01*
X23466Y33251D01*
X23508Y33957D01*
X23466Y34663D01*
X23301Y35352D01*
X23030Y36006D01*
X22660Y36610D01*
X22200Y37148D01*
X21661Y37608D01*
X21057Y37979D01*
X20403Y38250D01*
X19714Y38415D01*
X19008Y38471D01*
X19001Y38470D01*
Y39443D01*
X19008Y39443D01*
X19714Y39498D01*
X20403Y39664D01*
X21057Y39935D01*
X21661Y40305D01*
X22200Y40765D01*
X22660Y41304D01*
X23030Y41907D01*
X23301Y42562D01*
X23466Y43251D01*
X23508Y43957D01*
X23466Y44663D01*
X23301Y45352D01*
X23030Y46006D01*
X22660Y46610D01*
X22200Y47148D01*
X21661Y47608D01*
X21057Y47979D01*
X20403Y48250D01*
X19714Y48415D01*
X19008Y48471D01*
X19001Y48470D01*
Y49443D01*
X19008Y49443D01*
X19714Y49498D01*
X20403Y49664D01*
X21057Y49935D01*
X21661Y50305D01*
X22200Y50765D01*
X22660Y51304D01*
X23030Y51907D01*
X23301Y52562D01*
X23466Y53251D01*
X23508Y53957D01*
X23466Y54663D01*
X23301Y55352D01*
X23030Y56006D01*
X22660Y56610D01*
X22200Y57148D01*
X21661Y57608D01*
X21057Y57979D01*
X20403Y58250D01*
X19714Y58415D01*
X19008Y58471D01*
X19001Y58470D01*
Y71957D01*
X57502D01*
Y57724D01*
X56919Y57678D01*
X56344Y57540D01*
X55797Y57314D01*
X55293Y57005D01*
X54844Y56621D01*
X54460Y56171D01*
X54151Y55667D01*
X53925Y55121D01*
X53787Y54546D01*
X53740Y53957D01*
X53787Y53367D01*
X53925Y52792D01*
X54151Y52246D01*
X54460Y51742D01*
X54844Y51293D01*
X55293Y50909D01*
X55797Y50600D01*
X56344Y50374D01*
X56919Y50236D01*
X57502Y50190D01*
Y47724D01*
X56919Y47678D01*
X56344Y47540D01*
X55797Y47314D01*
X55293Y47005D01*
X54844Y46621D01*
X54460Y46171D01*
X54151Y45667D01*
X53925Y45121D01*
X53787Y44546D01*
X53740Y43957D01*
X53787Y43367D01*
X53925Y42792D01*
X54151Y42246D01*
X54460Y41742D01*
X54844Y41293D01*
X55293Y40909D01*
X55797Y40600D01*
X56344Y40374D01*
X56919Y40236D01*
X57502Y40190D01*
Y37724D01*
X56919Y37678D01*
X56344Y37540D01*
X55797Y37314D01*
X55293Y37005D01*
X54844Y36621D01*
X54460Y36171D01*
X54151Y35667D01*
X53925Y35121D01*
X53787Y34546D01*
X53740Y33957D01*
X53787Y33367D01*
X53925Y32792D01*
X54151Y32246D01*
X54460Y31742D01*
X54844Y31293D01*
X55293Y30909D01*
X55797Y30600D01*
X56344Y30374D01*
X56919Y30236D01*
X57502Y30190D01*
Y27724D01*
X56919Y27678D01*
X56344Y27540D01*
X55797Y27314D01*
X55293Y27005D01*
X54844Y26621D01*
X54460Y26171D01*
X54151Y25667D01*
X53925Y25121D01*
X53787Y24546D01*
X53740Y23957D01*
X53787Y23367D01*
X53925Y22792D01*
X54151Y22246D01*
X54460Y21742D01*
X54844Y21293D01*
X55293Y20909D01*
X55797Y20600D01*
X56344Y20374D01*
X56919Y20236D01*
X57502Y20190D01*
Y1457D01*
G37*
G36*
X19001D02*X9008D01*
Y19443D01*
X9714Y19498D01*
X10403Y19664D01*
X11057Y19935D01*
X11661Y20305D01*
X12200Y20765D01*
X12660Y21304D01*
X13030Y21907D01*
X13301Y22562D01*
X13466Y23251D01*
X13508Y23957D01*
X13466Y24663D01*
X13301Y25352D01*
X13030Y26006D01*
X12660Y26610D01*
X12200Y27148D01*
X11661Y27608D01*
X11057Y27979D01*
X10403Y28250D01*
X9714Y28415D01*
X9008Y28471D01*
Y29443D01*
X9714Y29498D01*
X10403Y29664D01*
X11057Y29935D01*
X11661Y30305D01*
X12200Y30765D01*
X12660Y31304D01*
X13030Y31907D01*
X13301Y32562D01*
X13466Y33251D01*
X13508Y33957D01*
X13466Y34663D01*
X13301Y35352D01*
X13030Y36006D01*
X12660Y36610D01*
X12200Y37148D01*
X11661Y37608D01*
X11057Y37979D01*
X10403Y38250D01*
X9714Y38415D01*
X9008Y38471D01*
Y39443D01*
X9714Y39498D01*
X10403Y39664D01*
X11057Y39935D01*
X11661Y40305D01*
X12200Y40765D01*
X12660Y41304D01*
X13030Y41907D01*
X13301Y42562D01*
X13466Y43251D01*
X13508Y43957D01*
X13466Y44663D01*
X13301Y45352D01*
X13030Y46006D01*
X12660Y46610D01*
X12200Y47148D01*
X11661Y47608D01*
X11057Y47979D01*
X10403Y48250D01*
X9714Y48415D01*
X9008Y48471D01*
Y49463D01*
X12243Y49471D01*
X12473Y49526D01*
X12691Y49616D01*
X12892Y49739D01*
X13072Y49893D01*
X13225Y50072D01*
X13349Y50274D01*
X13439Y50492D01*
X13494Y50721D01*
X13508Y50957D01*
X13494Y57192D01*
X13439Y57422D01*
X13349Y57640D01*
X13225Y57841D01*
X13072Y58021D01*
X12892Y58174D01*
X12691Y58297D01*
X12473Y58388D01*
X12243Y58443D01*
X12008Y58457D01*
X9008Y58450D01*
Y71957D01*
X19001D01*
Y58470D01*
X18302Y58415D01*
X17613Y58250D01*
X16959Y57979D01*
X16355Y57608D01*
X15816Y57148D01*
X15356Y56610D01*
X14986Y56006D01*
X14715Y55352D01*
X14550Y54663D01*
X14494Y53957D01*
X14550Y53251D01*
X14715Y52562D01*
X14986Y51907D01*
X15356Y51304D01*
X15816Y50765D01*
X16355Y50305D01*
X16959Y49935D01*
X17613Y49664D01*
X18302Y49498D01*
X19001Y49443D01*
Y48470D01*
X18302Y48415D01*
X17613Y48250D01*
X16959Y47979D01*
X16355Y47608D01*
X15816Y47148D01*
X15356Y46610D01*
X14986Y46006D01*
X14715Y45352D01*
X14550Y44663D01*
X14494Y43957D01*
X14550Y43251D01*
X14715Y42562D01*
X14986Y41907D01*
X15356Y41304D01*
X15816Y40765D01*
X16355Y40305D01*
X16959Y39935D01*
X17613Y39664D01*
X18302Y39498D01*
X19001Y39443D01*
Y38470D01*
X18302Y38415D01*
X17613Y38250D01*
X16959Y37979D01*
X16355Y37608D01*
X15816Y37148D01*
X15356Y36610D01*
X14986Y36006D01*
X14715Y35352D01*
X14550Y34663D01*
X14494Y33957D01*
X14550Y33251D01*
X14715Y32562D01*
X14986Y31907D01*
X15356Y31304D01*
X15816Y30765D01*
X16355Y30305D01*
X16959Y29935D01*
X17613Y29664D01*
X18302Y29498D01*
X19001Y29443D01*
Y28470D01*
X18302Y28415D01*
X17613Y28250D01*
X16959Y27979D01*
X16355Y27608D01*
X15816Y27148D01*
X15356Y26610D01*
X14986Y26006D01*
X14715Y25352D01*
X14550Y24663D01*
X14494Y23957D01*
X14550Y23251D01*
X14715Y22562D01*
X14986Y21907D01*
X15356Y21304D01*
X15816Y20765D01*
X16355Y20305D01*
X16959Y19935D01*
X17613Y19664D01*
X18302Y19498D01*
X19001Y19443D01*
Y1457D01*
G37*
G36*
X9008D02*X1008D01*
Y71957D01*
X9008D01*
Y58450D01*
X5772Y58443D01*
X5543Y58388D01*
X5325Y58297D01*
X5123Y58174D01*
X4944Y58021D01*
X4791Y57841D01*
X4667Y57640D01*
X4577Y57422D01*
X4522Y57192D01*
X4508Y56957D01*
X4522Y50721D01*
X4577Y50492D01*
X4667Y50274D01*
X4791Y50072D01*
X4944Y49893D01*
X5123Y49739D01*
X5325Y49616D01*
X5543Y49526D01*
X5772Y49471D01*
X6008Y49457D01*
X9008Y49463D01*
Y48471D01*
X8302Y48415D01*
X7613Y48250D01*
X6959Y47979D01*
X6355Y47608D01*
X5816Y47148D01*
X5356Y46610D01*
X4986Y46006D01*
X4715Y45352D01*
X4550Y44663D01*
X4494Y43957D01*
X4550Y43251D01*
X4715Y42562D01*
X4986Y41907D01*
X5356Y41304D01*
X5816Y40765D01*
X6355Y40305D01*
X6959Y39935D01*
X7613Y39664D01*
X8302Y39498D01*
X9008Y39443D01*
Y38471D01*
X8302Y38415D01*
X7613Y38250D01*
X6959Y37979D01*
X6355Y37608D01*
X5816Y37148D01*
X5356Y36610D01*
X4986Y36006D01*
X4715Y35352D01*
X4550Y34663D01*
X4494Y33957D01*
X4550Y33251D01*
X4715Y32562D01*
X4986Y31907D01*
X5356Y31304D01*
X5816Y30765D01*
X6355Y30305D01*
X6959Y29935D01*
X7613Y29664D01*
X8302Y29498D01*
X9008Y29443D01*
Y28471D01*
X8302Y28415D01*
X7613Y28250D01*
X6959Y27979D01*
X6355Y27608D01*
X5816Y27148D01*
X5356Y26610D01*
X4986Y26006D01*
X4715Y25352D01*
X4550Y24663D01*
X4494Y23957D01*
X4550Y23251D01*
X4715Y22562D01*
X4986Y21907D01*
X5356Y21304D01*
X5816Y20765D01*
X6355Y20305D01*
X6959Y19935D01*
X7613Y19664D01*
X8302Y19498D01*
X9008Y19443D01*
Y1457D01*
G37*
G36*
X83967Y32657D02*X84008D01*
X83954Y32634D01*
X83967Y32657D01*
G37*
G36*
X116033Y52653D02*X118038Y52651D01*
X118041Y51332D01*
X118078Y51179D01*
X118138Y51033D01*
X118185Y50957D01*
X118138Y50880D01*
X118078Y50735D01*
X118041Y50582D01*
X118032Y50425D01*
X118032Y50250D01*
X113166Y50252D01*
X113672Y50374D01*
X114218Y50600D01*
X114722Y50909D01*
X115172Y51293D01*
X115556Y51742D01*
X115865Y52246D01*
X116033Y52653D01*
G37*
G36*
X113205Y47652D02*X118038Y47650D01*
X118041Y46332D01*
X118078Y46179D01*
X118138Y46033D01*
X118185Y45957D01*
X118138Y45880D01*
X118078Y45735D01*
X118041Y45582D01*
X118032Y45425D01*
X118032Y45251D01*
X116036Y45253D01*
X115865Y45667D01*
X115556Y46171D01*
X115172Y46621D01*
X114722Y47005D01*
X114218Y47314D01*
X113672Y47540D01*
X113205Y47652D01*
G37*
G36*
X116033Y42653D02*X118038Y42651D01*
X118041Y41332D01*
X118078Y41179D01*
X118138Y41033D01*
X118185Y40957D01*
X118138Y40880D01*
X118078Y40735D01*
X118041Y40582D01*
X118032Y40425D01*
X118032Y40250D01*
X113166Y40252D01*
X113672Y40374D01*
X114218Y40600D01*
X114722Y40909D01*
X115172Y41293D01*
X115556Y41742D01*
X115865Y42246D01*
X116033Y42653D01*
G37*
G36*
X106034Y37655D02*X111814Y37653D01*
X111344Y37540D01*
X110797Y37314D01*
X110293Y37005D01*
X109844Y36621D01*
X109460Y36171D01*
X109151Y35667D01*
X108925Y35121D01*
X108787Y34546D01*
X108740Y33957D01*
X108787Y33367D01*
X108925Y32792D01*
X109151Y32246D01*
X109460Y31742D01*
X109844Y31293D01*
X110293Y30909D01*
X110797Y30600D01*
X111344Y30374D01*
X111848Y30253D01*
X106035Y30255D01*
X105865Y30667D01*
X105556Y31171D01*
X105172Y31621D01*
X104722Y32005D01*
X104218Y32314D01*
X103674Y32539D01*
X103670Y32549D01*
X103563Y32723D01*
X103430Y32879D01*
X103391Y32912D01*
X100554Y35749D01*
X100797Y35600D01*
X101344Y35374D01*
X101919Y35236D01*
X102508Y35189D01*
X103097Y35236D01*
X103672Y35374D01*
X104218Y35600D01*
X104722Y35909D01*
X105172Y36293D01*
X105556Y36742D01*
X105865Y37246D01*
X106034Y37655D01*
G37*
G36*
X113205Y37652D02*X118038Y37650D01*
X118041Y36332D01*
X118078Y36179D01*
X118138Y36033D01*
X118185Y35957D01*
X118138Y35880D01*
X118078Y35735D01*
X118041Y35582D01*
X118032Y35425D01*
X118032Y35251D01*
X116036Y35253D01*
X115865Y35667D01*
X115556Y36171D01*
X115172Y36621D01*
X114722Y37005D01*
X114218Y37314D01*
X113672Y37540D01*
X113205Y37652D01*
G37*
G36*
X116033Y32653D02*X118038Y32651D01*
X118041Y31332D01*
X118078Y31179D01*
X118138Y31033D01*
X118185Y30957D01*
X118138Y30880D01*
X118078Y30735D01*
X118041Y30582D01*
X118032Y30425D01*
X118032Y30250D01*
X113166Y30252D01*
X113672Y30374D01*
X114218Y30600D01*
X114722Y30909D01*
X115172Y31293D01*
X115556Y31742D01*
X115865Y32246D01*
X116033Y32653D01*
G37*
G36*
X99300Y37003D02*X98535Y37768D01*
X98608Y37887D01*
X98750Y38228D01*
X98786Y38379D01*
X98787Y38367D01*
X98925Y37792D01*
X99151Y37246D01*
X99300Y37003D01*
G37*
G36*
X113205Y27652D02*X118038Y27650D01*
X118041Y26332D01*
X118078Y26179D01*
X118138Y26033D01*
X118185Y25957D01*
X118138Y25880D01*
X118078Y25735D01*
X118041Y25582D01*
X118032Y25425D01*
X118032Y25251D01*
X116036Y25253D01*
X115865Y25667D01*
X115556Y26171D01*
X115172Y26621D01*
X114722Y27005D01*
X114218Y27314D01*
X113672Y27540D01*
X113205Y27652D01*
G37*
G36*
X116033Y22653D02*X118038Y22651D01*
X118041Y21332D01*
X118078Y21179D01*
X118138Y21033D01*
X118185Y20957D01*
X118138Y20880D01*
X118078Y20735D01*
X118041Y20582D01*
X118032Y20425D01*
X118032Y20250D01*
X113166Y20252D01*
X113672Y20374D01*
X114218Y20600D01*
X114722Y20909D01*
X115172Y21293D01*
X115556Y21742D01*
X115865Y22246D01*
X116033Y22653D01*
G37*
G54D12*X67508Y28957D02*Y33457D01*
X63008Y41457D02*Y37957D01*
X67508Y33457D01*
X102508Y28957D02*Y31957D01*
X96508Y38957D02*Y37957D01*
X102508Y31957D02*X96508Y37957D01*
Y18957D02*Y24857D01*
X92908Y28457D01*
X102508Y18957D02*X120508Y18949D01*
X112508Y23957D02*X120508Y23949D01*
X102508Y28957D02*X120508Y28949D01*
X112508Y33957D02*X120508Y33949D01*
X82008Y46457D02*X83508Y47957D01*
X88508D01*
X89008Y47457D01*
X82008Y43957D02*Y46457D01*
X87108Y44957D02*Y40557D01*
X85508Y38957D01*
X91008Y48957D02*Y44957D01*
X96508Y48157D02*X93008Y44657D01*
X89008Y47457D02*Y44957D01*
Y28457D02*Y25957D01*
X88508Y25457D01*
X83008D01*
X82008Y26457D01*
Y28957D01*
X85508Y38957D02*X82008D01*
Y33957D02*X85508D01*
X87008Y32457D01*
Y28457D01*
X85008D02*Y30957D01*
X84508Y31457D01*
X91008Y23957D02*Y28357D01*
X90908Y28457D01*
X84508Y31457D02*X80008D01*
X96508Y53957D02*Y48157D01*
X102508Y38957D02*X120508Y38949D01*
X112508Y43957D02*X120508Y43949D01*
X102508Y48957D02*X120508Y48949D01*
X112508Y53957D02*X120508Y53949D01*
G54D13*X102508Y48957D03*
Y38957D03*
Y28957D03*
Y18957D03*
X112508Y53957D03*
Y43957D03*
Y33957D03*
Y23957D03*
G54D14*X137508Y58957D03*
Y13957D03*
G54D15*X149516Y67500D03*
Y5492D03*
G54D13*X67508Y38957D03*
Y28957D03*
Y18957D03*
X57508Y33957D03*
Y23957D03*
X67508Y48957D03*
X57508Y53957D03*
Y43957D03*
G54D11*G36*
X72000Y9500D02*Y3500D01*
X78000D01*
Y9500D01*
X72000D01*
G37*
G54D16*X85000Y6500D03*
X95000D03*
G54D11*G36*
X72000Y69000D02*Y63000D01*
X78000D01*
Y69000D01*
X72000D01*
G37*
G54D16*X85000Y66000D03*
X95000D03*
G54D14*X32508Y58957D03*
G54D16*X19008Y53957D03*
G54D14*X32508Y13957D03*
G54D15*X20500Y67500D03*
Y5492D03*
G54D11*G36*
X5508Y15957D02*Y9957D01*
X11508D01*
Y15957D01*
X5508D01*
G37*
G36*
X6008Y56957D02*Y50957D01*
X12008D01*
Y56957D01*
X6008D01*
G37*
G54D16*X9008Y43957D03*
X19008D03*
X9008Y33957D03*
X19008D03*
X9008Y23957D03*
X19008D03*
G54D17*X85008Y29757D02*Y27157D01*
X87008Y29757D02*Y27157D01*
X89008Y29757D02*Y27157D01*
X90908Y29757D02*Y27157D01*
X92908Y29757D02*Y27157D01*
G54D18*X93008Y46257D02*Y43657D01*
G54D17*X91008Y46257D02*Y43657D01*
X89008Y46257D02*Y43657D01*
X87108Y46257D02*Y43657D01*
X85108Y46257D02*Y43657D01*
G54D19*X120508Y53949D02*Y52965D01*
X125626Y53949D02*Y52965D01*
X120508Y18949D02*Y17965D01*
X125626Y18949D02*Y17965D01*
X120508Y23949D02*Y22965D01*
X125626Y23949D02*Y22965D01*
X120508Y28949D02*Y27965D01*
X125626Y28949D02*Y27965D01*
X120508Y33949D02*Y32965D01*
X125626Y33949D02*Y32965D01*
X120508Y38949D02*Y37965D01*
Y43949D02*Y42965D01*
Y48949D02*Y47965D01*
X125626Y38949D02*Y37965D01*
Y43949D02*Y42965D01*
Y48949D02*Y47965D01*
G54D20*X73508Y36457D03*
X63008Y41457D03*
X73508D03*
Y31457D03*
X96508Y53957D03*
X73508Y46457D03*
Y51457D03*
Y56457D03*
X128008Y53957D03*
Y48957D03*
Y43957D03*
Y38957D03*
Y33957D03*
Y28957D03*
Y23957D03*
Y18957D03*
X96508Y38957D03*
X82008Y43957D03*
Y28957D03*
Y33957D03*
Y38957D03*
X91008Y48957D03*
Y23957D03*
X73508Y26457D03*
Y21457D03*
X96508Y18957D03*
G54D21*G54D22*G54D23*G54D24*G54D22*G54D25*G54D23*G54D26*G54D23*G54D24*G54D25*G54D26*M02*
